<svg width="50" height="50" fill="none" xmlns="http://www.w3.org/2000/svg"><path d="M27.083 4.167V12.5a8.333 8.333 0 008.334 8.333h8.333M6.25 12.5v25a8.333 8.333 0 008.333 8.333h20.834A8.333 8.333 0 0043.75 37.5V24.285c0-2.21-.878-4.33-2.44-5.893L29.523 6.607a8.333 8.333 0 00-5.892-2.44h-9.049A8.333 8.333 0 006.25 12.5z" stroke="#91ABB8" stroke-width="2" stroke-linejoin="round"/><path d="M13.41 37.5v-8.948h2.899c1.098 0 1.814.045 2.148.134.513.135.942.428 1.288.88.346.447.519 1.027.519 1.739 0 .55-.1 1.011-.3 1.385-.199.375-.453.67-.762.885a2.617 2.617 0 01-.934.422c-.431.085-1.056.128-1.874.128h-1.178V37.5H13.41zm1.806-7.434v2.539h.989c.712 0 1.188-.047 1.428-.14a1.19 1.19 0 00.769-1.135c0-.326-.096-.595-.287-.806a1.249 1.249 0 00-.726-.397c-.216-.04-.65-.061-1.3-.061h-.873zm6.524-1.514h3.303c.744 0 1.312.057 1.703.171.524.155.974.43 1.349.824.374.395.659.879.854 1.453.195.57.293 1.273.293 2.112 0 .736-.092 1.37-.275 1.904-.223.65-.543 1.178-.958 1.58-.313.306-.736.544-1.27.715-.398.126-.931.189-1.599.189h-3.4v-8.948zm1.807 1.514v5.926h1.35c.504 0 .868-.028 1.092-.085.293-.073.535-.197.726-.372.195-.175.354-.462.476-.86.122-.404.183-.951.183-1.643 0-.691-.06-1.222-.183-1.593-.122-.37-.293-.659-.512-.866a1.72 1.72 0 00-.837-.422c-.252-.057-.746-.085-1.483-.085h-.812zm7.245 7.434v-8.948h6.134v1.514H32.6v2.118h3.735v1.514H32.6V37.5h-1.807z" fill="#91ABB8"/></svg>