<svg width="60" height="60" fill="none" xmlns="http://www.w3.org/2000/svg"><circle cx="30" cy="30" r="29" stroke="#8EAEBA" stroke-width="2"/><path d="M20.622 29.845a1 1 0 10-1.244 1.565l1.244-1.565zm5.22 5.429l.623-.783-.622.783zm4.592-.406l.75.661-.75-.66zM40.75 24.661a1 1 0 10-1.502-1.322l1.502 1.322zm-5.534 4.773l-.75-.66.75.66zm-15.84 1.976l5.843 4.646 1.245-1.565-5.843-4.646-1.244 1.565zm5.843 4.646a4.347 4.347 0 005.964-.527l-1.501-1.321a2.347 2.347 0 01-3.218.283l-1.245 1.566zm5.964-.527l4.784-5.434-1.502-1.322-4.783 5.435 1.501 1.321zm4.784-5.434l4.783-5.434-1.502-1.322-4.783 5.434 1.502 1.322z" fill="#8EAEBA"/></svg>