<svg width="251" height="47" fill="none" xmlns="http://www.w3.org/2000/svg"><g clip-path="url(#clip0_48_193)" fill-rule="evenodd" clip-rule="evenodd" fill="#fff"><path d="M135.445 40.023v5.963c1.321-.076 2.889.123 3.913-.9 1.342-1.178 1.155-3.678-.421-4.57-1.045-.645-2.324-.447-3.492-.493zm59.793 2.55H251v.634h-55.762v-.633zm-192.553 0h60.01v.634H2.685v-.633zm172.391-3.488l4.729 6.095v-6.095h.93v7.712h-.93v-.017l-.013.017-4.716-6.115v6.115h-.93v-7.712h.93zm-20.684 0h5.718v.891h-4.779v2.522h4.231v.89h-4.231v2.577h4.779v.836h-5.718v-7.716zm-39.015 0h5.718v.891h-4.78v2.522h4.232v.89h-4.232v2.577h4.78v.836h-5.723v-7.716h.005zm-38.625 3.15c-.57-.937-.161-2.132.667-2.736.586-.427 1.504-.515 2.209-.414.786.114 1.542.46 2.26.803l-.501.84c-.705-.325-1.538-.815-2.35-.807-.484.005-1.121.194-1.38.65-.268.474-.242 1.128.306 1.382 1.053.591 2.336.646 3.377 1.28 1.164.81.87 2.791-.365 3.395-1.598.828-3.454.152-4.826-.802l.569-.824c.637.423 1.308.879 2.06 1.04.48.1 1.203.092 1.632-.166.607-.363.968-1.148.416-1.744-1.253-.849-3.097-.625-4.074-1.896zm15.93-3.053h1.101l2.116 6.15 2.068-6.12.752.008 2.044 5.896 2.162-5.968h1.015l-2.74 7.78-.866-.042-2.005-5.947-2.12 5.951-.697.017-2.83-7.725zm41.811-.105c1.789.059 3.815-.283 5.345.874 1.928 1.406 1.924 4.633 0 6.04-1.534 1.161-3.565.747-5.349.806 0-2.572-.004-5.148.004-7.72zM191.521 3.4l3.853-.008 8.875 13.228L213.11 3.4h3.9v26.292l-4.146-.004-.008-19.12-8.646 12.852-8.645-12.802-.004 19.074h-4.044l.004-26.292zm-63.51 0h4.036v22.486l14.235.009v3.793l-18.271.004V3.4zm-31.755 0h19.329l-.004 3.805h-15.285v7.806l13.7.004v3.797l-13.705.012.009 10.86-4.044.008V3.4zm-19.117 0h4.035l.009 26.283-4.044.009V3.4zm88.876-.228l3.471.03 12.043 26.49h-4.507l-2.961-6.762-12.791.004-2.987 6.758-4.354-.005 12.086-26.515zm-3.173 16.164l9.656.004-4.805-10.982-4.851 10.977zM231.348 3.4h19.542v3.805l-15.498-.004-.004 7.391 13.798-.004.004 3.806-13.811.008.009 7.594 15.591-.013.021 3.709h-19.652V3.4zM46.344 7.206c-.009 2.99-.005 5.98-.005 8.97 2.35-.012 4.695.017 7.04.005 1.69.012 3.496-.372 4.758-1.563 1.61-1.512 1.703-4.316.157-5.905-1.198-1.144-2.923-1.503-4.537-1.512-2.473-.02-4.945.013-7.413.005zM42.197 3.4c3.998.004 7.995-.004 11.993-.004 2.6.008 5.353.752 7.21 2.648 2.578 2.471 2.833 6.788.934 9.723-1.168 1.841-3.203 2.847-5.213 3.51 2.626 3.471 5.238 6.956 7.885 10.415-1.733 0-3.47 0-5.204.004-2.175-2.94-4.346-5.879-6.491-8.84-.327-.376-.616-.975-1.228-.861-1.912-.076-3.828.012-5.744-.017 0 3.235-.004 6.47.005 9.706-1.381.008-2.766.008-4.147.008 0-8.764-.004-17.528 0-26.292zm-37.581.701C6.915 1.892 9.914.418 13.087 0 10.402 1.326 7.752 2.995 6.18 5.622 3.43 9.93 2.977 15.77 5.449 20.302c2.014 3.696 6.25 6.053 10.48 5.74 5.863-.244 10.833-5.701 10.438-11.53-.157-5.343-5.425-9.887-10.786-9.026-3.594.36-6.351 2.978-8.31 5.8 1.347-4.034 4.776-7.57 9.087-8.321 5.842-1.115 12.18 2.842 13.697 8.574 1.648 6.002-1.143 12.768-6.356 16.13-3.772 2.525-8.7 3.142-13.025 1.824-4.694-1.44-8.56-5.28-9.991-9.95C-1.021 14.19.513 7.978 4.616 4.1z"/></g><defs><clipPath id="clip0_48_193"><path fill="#fff" d="M0 0h251v47H0z"/></clipPath></defs></svg>