<svg width="60" height="60" fill="none" xmlns="http://www.w3.org/2000/svg"><path d="M46.352 9.307l-1.127.99 1.127-.99zm7.305 8.322l1.128-.99-1.128.99zm.24 6.858l1.195.907-1.194-.907zM34.214 50.399l-1.194-.907 1.194.907zm-8.426 0l1.194-.907-1.194.907zM6.102 24.487l-1.194.907 1.194-.907zm.24-6.858l1.128.99-1.127-.99zm7.306-8.322l-1.127-.99 1.127.99zm40.273 13.15a1.5 1.5 0 100-3v3zM30 51.908l-1.419.488a1.5 1.5 0 002.838 0L30 51.908zM6.079 19.458a1.5 1.5 0 000 3v-3zm39.146-9.162l7.305 8.322 2.255-1.979-7.306-8.322-2.254 1.98zm7.478 13.284L33.02 49.492l2.389 1.815 19.684-25.913-2.389-1.814zM26.981 49.492L7.297 23.58l-2.39 1.814 19.685 25.913 2.389-1.815zM7.47 18.618l7.305-8.322-2.254-1.979-7.306 8.322 2.255 1.98zM35.316 9h7.063V6h-7.063v3zm5.316 13.457h13.29v-3h-13.29v3zM33.92 8.051l5.316 13.457 2.79-1.102L36.71 6.949 33.92 8.05zm-2.502 44.345L42.05 21.444l-2.837-.974-10.632 30.95 2.838.975zM17.62 9h7.654V6H17.62v3zm7.654 0h10.04V6h-10.04v3zM6.079 22.457h13.29v-3H6.078v3zm13.29 0h21.263v-3H19.368v3zM23.9 6.897l-5.906 13.457 2.747 1.206 5.906-13.457L23.9 6.897zm7.518 44.524L20.787 20.47l-2.837.974 10.63 30.952 2.838-.975zM7.297 23.58a3.935 3.935 0 01.173-4.962L5.215 16.64a6.935 6.935 0 00-.307 8.755l2.389-1.814zm25.722 25.912a3.776 3.776 0 01-6.038 0l-2.389 1.815c2.728 3.59 8.088 3.59 10.816 0l-2.389-1.815zM52.53 18.618a3.935 3.935 0 01.173 4.962l2.39 1.814a6.935 6.935 0 00-.308-8.755l-2.255 1.98zm-5.05-10.3A6.787 6.787 0 0042.378 6v3c1.083 0 2.12.469 2.846 1.296l2.254-1.979zm-32.705 1.978A3.787 3.787 0 0117.621 9V6c-1.954 0-3.81.846-5.1 2.317l2.254 1.98z" fill="#8EAEBA"/></svg>