<svg width="251" height="85" fill="none" xmlns="http://www.w3.org/2000/svg"><g clip-path="url(#clip0_48_211)" fill-rule="evenodd" clip-rule="evenodd"><path d="M122.116 50.402H104.47c-2.033 0-3.133 1.402-3.133 3.105V73.78c0 1.998 1.438 3.146 3.217 3.146 1.733 0 3.133-1.148 3.133-3.147V56.57h11.296v17.21c0 1.998 1.396 3.146 3.175 3.146 1.733 0 3.175-1.19 3.175-3.189v-20.23c-.042-1.699-1.184-3.105-3.217-3.105zm30.718.001h-.253c-1.864 0-3.091.936-4.402 2.803l-10.327 14.662V53.545c0-1.999-1.269-3.147-3.002-3.147-1.775 0-3.09 1.148-3.09 3.147v19.55c0 2.126 1.353 3.57 3.512 3.57h.295c1.99 0 3.259-1.02 4.487-2.804L150.38 59.2v14.323c0 2 1.269 3.147 3.048 3.147 1.733 0 3.049-1.147 3.049-3.147v-19.55c-.004-2.206-1.316-3.57-3.643-3.57zm35.251 20.104h-1.607V53.295c0-1.999-1.438-3.147-3.217-3.147-1.733 0-3.133 1.148-3.133 3.147v17.212h-10.959V53.295c0-1.999-1.354-3.147-3.175-3.147-1.775 0-3.175 1.148-3.175 3.147V73.57c0 1.698 1.143 3.104 3.133 3.104h19v2.804c0 1.999 1.353 3.147 3.09 3.147 1.776 0 3.133-1.148 3.133-3.147v-5.823c-.004-2.084-1.231-3.147-3.09-3.147zm31.691 0h-1.606V53.295c0-1.999-1.438-3.147-3.217-3.147-1.733 0-3.133 1.148-3.133 3.147v17.212h-11.001V53.295c0-1.999-1.354-3.147-3.176-3.147-1.775 0-3.175 1.148-3.175 3.147V73.57c0 1.698 1.143 3.104 3.133 3.104h19v2.804c0 1.999 1.354 3.147 3.091 3.147 1.775 0 3.133-1.148 3.133-3.147v-5.823c.038-2.084-1.189-3.147-3.049-3.147zm30.887 1.698l-8.632-18.825c-.974-2.084-2.327-2.973-4.275-2.973h-.338c-2.032 0-3.385.893-4.36 2.973l-8.631 18.825c-.847 1.872-.253 3.528 1.438 4.163 1.522.593 3.049.255 3.892-1.528l1.948-4.121c1.733.593 3.892.893 5.924.893 2.159 0 4.061-.296 5.672-.893l1.863 4.078c.806 1.783 2.454 2.126 3.934 1.571 1.691-.635 2.37-2.376 1.565-4.163zm-12.987-6.247c-1.312 0-2.707-.17-3.766-.466l3.681-8.246 3.681 8.246c-1.016.297-2.285.466-3.596.466zM129.689 28.43h-1.606v-17c0-1.698-1.143-3.104-3.133-3.104h-14.472c-1.69 0-2.833 1.148-2.833 3.147v4.12c0 2.974-.042 5.27-.548 7.734-.506 2.423-1.143 3.91-2.075 5.142h-.721c-2.032 0-3.002 1.274-3.002 3.104v5.823c0 2 1.353 3.147 3.091 3.147 1.775 0 3.133-1.148 3.133-3.147v-2.803h19.042v2.803c0 2 1.353 3.147 3.09 3.147 1.776 0 3.133-1.148 3.133-3.147v-5.861c-.008-1.83-.982-3.104-3.099-3.104zm-7.91 0h-10.284c.636-1.359 1.142-2.591 1.564-4.463.422-1.957.59-3.91.637-6.459l.042-3.062h8.041v13.985zm25.894-20.311c-7.573 0-13.371 5.738-13.371 13.345 0 7.733 5.84 13.345 13.371 13.345 7.573 0 13.371-5.866 13.371-13.43 0-7.61-5.84-13.26-13.371-13.26zm0 20.74c-4.145 0-7.152-3.147-7.152-7.438 0-4.205 3.003-7.352 7.152-7.352 4.187 0 7.151 3.147 7.151 7.352-.042 4.29-2.876 7.437-7.151 7.437zm42.44-.429h-1.607v-17c0-1.698-1.143-3.104-3.133-3.104h-14.471c-1.691 0-2.834 1.148-2.834 3.147v4.12c0 2.974-.042 5.27-.548 7.734-.506 2.423-1.142 3.91-2.074 5.142h-.721c-2.033 0-3.003 1.274-3.003 3.104v5.823c0 2 1.354 3.147 3.091 3.147 1.775 0 3.133-1.148 3.133-3.147v-2.803h19.042v2.803c0 2 1.354 3.147 3.091 3.147 1.775 0 3.133-1.148 3.133-3.147v-5.865c-.009-1.826-.983-3.1-3.099-3.1zm-7.953 0h-10.284c.637-1.359 1.143-2.591 1.564-4.463.422-1.957.591-3.91.637-6.459l.042-3.062h8.041v13.985zm25.683-20.311c-7.573 0-13.37 5.738-13.37 13.345 0 7.733 5.84 13.345 13.37 13.345 7.573 0 13.371-5.866 13.371-13.43 0-7.61-5.798-13.26-13.371-13.26zm0 20.74c-4.145 0-7.151-3.147-7.151-7.438 0-4.205 3.002-7.352 7.151-7.352 4.187 0 7.152 3.147 7.152 7.352 0 4.29-2.838 7.437-7.152 7.437z" fill="#fff"/><path d="M37.869 0c24.625 0 43.583 17.042 43.583 42.288C81.452 67.704 62.536 85 37.869 85H10.196C4.613 85 0 81.303 0 74.844v-64.26C0 4.12 4.613 0 10.196 0h27.673z" fill="#CFCFCF"/><path d="M19.21 44.541c0-7.818-2.495-14.958-1.69-19.422l-.169-.254c-2.838 2.973-4.701 2.164-4.87 1.228-.422-1.914 2.918-4.248 4.824-5.1l.126-.38c-1.775.254-3.85.042-3.934-1.233-.084-1.529 2.918-2.846 6.899-2.55a.891.891 0 00.21-.169c-.253-.084-.506-.211-.847-.38-1.016-.509-1.27-1.403-.932-2.042.38-.682 1.48-.979 2.412-.936a10.55 10.55 0 013.512.724c.085-.042.211-.085.295-.127-.337-.254-.636-.55-.763-.809-.253-.423-.295-1.02.169-1.36.548-.423 1.948-.592 3.217.551l.679.682c.127-.042.295-.042.422-.085-.211-.338-.38-.681-.422-.978-.084-.424.084-.894.548-1.063.548-.17 1.227.085 1.607.64a6.3 6.3 0 01.763 1.783c-2.791.338-10.196 2.04-10.196 11.05 0 8.795 7.278 18.02 7.278 31.619 0 4.93-1.1 9.902-5.545 15.683-3.428 4.464-8.926 8.754-17.473 12.282C6.81 84.619 8.463 85 10.238 85h3.09c7.068-3.909 10.58-7.522 12.992-10.922 4.74 2.126 9.31 3.015 13.413 3.015 7.7 0 14.26-3.57 17.688-9.902 3.513-2.126 5.84-6.5 6.009-9.605 2.201-2.761 2.58-6.247 1.906-8.627-.169-.55-.637-.593-1.396-.085-6.94 4.163-13.666 6.162-20.058 6.162-3.892 0-7.868-.64-12.102-1.872-.295-4.548-1.227-8.415-1.564-10.71-.506-3.063.21-5.311 3.554-5.311 2.455 0 6.983.64 10.622 2.295 3.597 1.656 5.756 4.887 7.236 4.887.59 0 1.227-.38 1.227-1.655 0-2.635-.932-6.845-2.075-8.331 3.386-.212 6.051-.17 7.531 0 3.133.55 3.302 2.126 3.892 3.147.637 1.02 1.649 1.486 2.918 1.486 2.327 0 3.765-1.19 3.765-5.569 0-9.563-6.008-14.196-12.312-14.196-5.161 0-7.194 1.147-12.102 1.147-3.47 0-6.388-7.14-10.368-8.076-1.733-3.91-5.672-4.337-8.084-2.38-2.2-1.36-5.629-.64-5.755 1.872-2.538-.767-5.798.593-4.402 3.909-6.215.131-7.4 5.616-3.213 6.25-5.414 3.063-2.918 8.374 1.606 7.226.338 3.782 1.822 9.86 1.822 14.027 0 5.823-2.623 7.183-6.22 7.183-2.833 0-7.024-1.02-9.858-1.872v4.078c2.876.725 7.151 1.614 10.41 1.614 5.668.089 8.8-3.27 8.8-9.644zM31.735 57.76c3.892 1.105 9.268 1.656 13.708 1.359a36.724 36.724 0 0017.052-5.612c-1.99 5.057-9.479 8.204-16.715 9.093a7.995 7.995 0 01-.168 1.063c5.414-.296 10.58-2.083 12.907-3.697-1.354 4.972-8 6.971-14.008 7.268-.168.38-.337.766-.548 1.105 3.512.042 6.856-.593 8.884-1.233-1.821 3.444-8.04 6.205-14.344 6.205-3.133 0-6.983-.593-10.369-2.21 2.5-4.503 3.432-9.094 3.6-13.341zm15.698-28.012c.848-2.55 1.607-4.506 2.96-5.95 1.48-1.53 3.091-2.042 6.641-2.042 4.908 0 9.011 4.972 9.011 11.986 0 1.02-1.395 1.02-1.821.085-1.691-2.974-3.934-3.401-7.489-3.655-2.623-.17-5.798.084-8.716.211-.501.005-.67-.377-.586-.635z" fill="#000"/><path d="M0 65.027c2.96-.593 5.882-1.148 5.882-1.148l.38-1.614c-1.354-.084-4.019-.042-6.262.043v2.719z" fill="#000"/><path d="M32.03 17c1.057-.339 2.538.682 3.343 2.296.805 1.613.59 3.231-.422 3.57-1.016.381-2.496-.682-3.301-2.296a1.985 1.985 0 01-.253-.64l.168-.041c.338.296.721.423 1.016.211.38-.254.338-.893 0-1.444-.21-.466-.72-.936-1.142-.893l-.127-.085c.169-.339.38-.593.717-.678zm7.277 16.191c-4.655-1.02-9.732-2.38-12.439-6.374-.042-.084-.127-.127-.21-.084-.085.042-.127.084-.17.211 0 .212 0 .466.085.682l-.38.127c-.72-1.02-.847-2.253-.168-3.146 1.016-1.275 3.09-1.148 4.318-.34l-.127.382c-.679-.127-1.311-.127-1.775.17-.422.253-.464.639-.211 1.105 2.243 4.205 8.8 5.099 16.588 4.506.805-.042.974-.424 1.1-.809.68-2.719 1.906-5.141 3.724-6.971-1.438.212-2.75.254-3.892.296-4.019.255-6.304-.254-7.025-.85l.127-.34c.421.127.89.17.974.043.126-.17.042-.297-.17-.466-.762-.724-4.186-4.248-4.186-4.248-.38-2.973-4.697-3.105-6.43-.17l-.59-.169c.168-.64.42-1.19.678-1.571-3.597.809-5.671 4.078-6.05 7.225-1.607 13.514 18.83 10.414 24.666 15.81.127.085.38.466.59.212.157-.597-2.424-3.74-9.027-5.23zM62.54 53.465c-3.301 2.126-9.226 5.057-17.052 5.611-4.444.297-9.858-.254-13.75-1.359-.042 1.317-.21 2.634-.421 3.994 2.2.55 6.093 1.317 11.722 1.486-.253 1.53-1.776 6.67-5.714 10.03 7.151.296 13.666-2.508 15.572-6.163-1.99.64-5.372 1.275-8.884 1.232.168-.338.38-.724.548-1.105 6.008-.296 12.696-2.295 14.007-7.268-2.327 1.614-7.488 3.401-12.907 3.698.085-.339.127-.724.169-1.063 7.231-.89 14.72-4.036 16.71-9.093z" fill="#fff"/></g><defs><clipPath id="clip0_48_211"><path fill="#fff" d="M0 0h251v85H0z"/></clipPath></defs></svg>