<svg width="60" height="60" fill="none" xmlns="http://www.w3.org/2000/svg"><g clip-path="url(#clip0_228_1090)"><path d="M23.723.01l1.822-.008h8.91L36.28.01l2.285.025 1.083.017 1.044.028L41.7.115l.97.04.935.052.9.063.862.075.833.082c4.35.49 7.332 1.54 9.582 3.79 2.25 2.25 3.3 5.23 3.79 9.583l.085.832.073.865.063.9.05.933.062 1.47.03 1.025.032 1.61.023 2.287.01 2.45-.002 8.283-.008 1.825-.025 2.285-.018 1.082-.027 1.045-.035 1.008-.04.97-.053.935-.062.9-.075.862-.083.833c-.49 4.35-1.54 7.332-3.79 9.582-2.25 2.25-5.23 3.3-9.582 3.79l-.833.085-.864.073-.9.062-.933.05-1.47.063-1.025.03-1.61.032-2.287.023-2.45.01-8.283-.003-1.825-.007-2.285-.025-1.082-.018-1.046-.027-1.007-.035-.97-.04-.935-.053-.9-.062-.862-.075-.833-.083c-4.35-.49-7.333-1.54-9.582-3.79-2.25-2.25-3.3-5.23-3.79-9.582l-.085-.833-.073-.865-.063-.9-.05-.932-.062-1.47-.03-1.025-.033-1.61-.022-2.288-.01-2.45.003-8.282.007-1.825.025-2.285.017-1.083.028-1.045.035-1.007.04-.97.052-.935.063-.9.075-.863.083-.832c.49-4.35 1.54-7.333 3.79-9.583S9.448.917 13.8.427l.832-.085.866-.072.9-.063.932-.05L18.8.095l1.025-.03 1.61-.033L23.723.01zm-6.748 18.24h-6.85c.325 15.6 8.125 24.975 21.8 24.975h.775V34.3c5.025.5 8.825 4.175 10.35 8.925h7.1C48.2 36.125 43.075 32.2 39.875 30.7c3.2-1.85 7.7-6.35 8.775-12.45H42.2c-1.4 4.95-5.55 9.45-9.5 9.875V18.25h-6.45v17.3c-4-1-9.05-5.85-9.275-17.3z" fill="#E1E1E1"/></g><defs><clipPath id="clip0_228_1090"><path fill="#fff" d="M0 0h60v60H0z"/></clipPath></defs></svg>