<svg width="20" height="21" fill="none" xmlns="http://www.w3.org/2000/svg"><path d="M15.947 15.386a.75.75 0 10-1.06 1.061l1.06-1.06zm1.856 3.978a.75.75 0 001.06-1.061l-1.06 1.06zm.447-9.28a8.667 8.667 0 00-8.667-8.667v1.5a7.167 7.167 0 017.167 7.166h1.5zM9.583 1.416a8.667 8.667 0 00-8.666 8.666h1.5a7.167 7.167 0 017.166-7.166v-1.5zM.917 10.083a8.667 8.667 0 008.666 8.667v-1.5a7.167 7.167 0 01-7.167-7.167h-1.5zm8.666 8.667a8.667 8.667 0 008.667-8.667h-1.5a7.167 7.167 0 01-7.167 7.167v1.5zm5.303-2.303l2.917 2.917 1.06-1.061-2.916-2.917-1.06 1.061z" fill="#919291"/></svg>