<svg width="60" height="60" fill="none" xmlns="http://www.w3.org/2000/svg"><path d="M17.267 4.5a1.5 1.5 0 10-2.828 1l2.828-1zm-2.828 50a1.5 1.5 0 002.828 1l-2.828-1zM43.499 30c0 7.456-6.043 13.5-13.5 13.5v3c9.113 0 16.5-7.387 16.5-16.5h-3zM30 16.5c7.457 0 13.5 6.044 13.5 13.5h3c0-9.113-7.387-16.5-16.5-16.5v3zm0-3c-5.875 0-10.877-3.754-12.732-9l-2.828 1c2.264 6.406 8.374 11 15.56 11v-3zm-12.732 42c1.855-5.245 6.857-9 12.733-9v-3c-7.187 0-13.297 4.594-15.561 11l2.828 1z" fill="#8EAEBA"/><path d="M43.586 4.5a1.5 1.5 0 012.828 1l-2.828-1zm2.828 50a1.5 1.5 0 01-2.828 1l2.828-1zM17.354 30c0 7.456 6.044 13.5 13.5 13.5v3c-9.113 0-16.5-7.387-16.5-16.5h3zm13.5-13.5c-7.456 0-13.5 6.044-13.5 13.5h-3c0-9.113 7.387-16.5 16.5-16.5v3zm0-3c5.875 0 10.878-3.754 12.732-9l2.828 1c-2.264 6.406-8.374 11-15.56 11v-3zm12.732 42c-1.854-5.245-6.857-9-12.732-9v-3c7.186 0 13.296 4.594 15.56 11l-2.828 1z" fill="#8EAEBA"/><path d="M17.5 25h25m-25 10h25" stroke="#8EAEBA" stroke-width="3" stroke-linecap="round"/></svg>