<svg width="30" height="30" fill="none" xmlns="http://www.w3.org/2000/svg"><path d="M18.75 20l-.147.735a.75.75 0 00.818-.4L18.75 20zM10 11.25l-.335-.67a.75.75 0 00-.4.817L10 11.25zm.443-.221l.335.67-.335-.67zm1.203-3.165l.696-.278-.696.278zm-1.017-2.542l-.697.278.697-.278zm14.05 14.05l.278-.697-.279.696zm-2.543-1.018l.278-.696-.278.696zm-3.165 1.204l.671.335-.67-.335zm6.529 2.135v2.057H27v-2.057h-1.5zM6.25 4.5h2.057V3H6.25v1.5zM18.75 20l.148-.735h-.003c-.003-.002-.01-.003-.019-.005a7.889 7.889 0 01-.442-.116c-.308-.09-.748-.237-1.264-.458-1.034-.444-2.351-1.178-3.515-2.341l-1.06 1.06c1.336 1.337 2.832 2.165 3.985 2.66.578.247 1.075.413 1.431.518a9.351 9.351 0 00.542.142l.034.007.01.002.004.001h.001L18.75 20zm-5.095-3.655c-1.163-1.164-1.897-2.48-2.34-3.515a11.425 11.425 0 01-.459-1.264 7.889 7.889 0 01-.116-.442l-.004-.02v-.002L10 11.25l-.735.148v.001a.148.148 0 00.003.014 3.828 3.828 0 00.035.153c.025.101.062.245.114.423.105.356.27.853.519 1.431.494 1.153 1.322 2.649 2.659 3.985l1.06-1.06zm-3.32-4.424l.443-.221-.67-1.342-.443.221.67 1.342zm2.007-4.335l-1.017-2.543-1.393.557 1.017 2.543 1.393-.557zm12.615 11.089l-2.543-1.017-.557 1.393 2.543 1.017.557-1.393zm-6.657.547l-.22.443 1.34.67.222-.442-1.342-.67zm4.114-1.564a3.25 3.25 0 00-4.114 1.564l1.342.67a1.75 1.75 0 012.215-.841l.557-1.393zM10.778 11.7a3.25 3.25 0 001.564-4.114l-1.393.557a1.75 1.75 0 01-.842 2.215l.67 1.342zm-2.47-7.2a1.75 1.75 0 011.624 1.1l1.393-.557A3.25 3.25 0 008.307 3v1.5zM27 21.693a3.25 3.25 0 00-2.043-3.018l-.557 1.393a1.75 1.75 0 011.1 1.625H27zM23.75 25.5C13.118 25.5 4.5 16.881 4.5 6.25H3C3 17.71 12.29 27 23.75 27v-1.5zm0 1.5A3.25 3.25 0 0027 23.75h-1.5a1.75 1.75 0 01-1.75 1.75V27zM4.5 6.25c0-.966.784-1.75 1.75-1.75V3A3.25 3.25 0 003 6.25h1.5z" fill="#8EAEBA"/></svg>