<svg width="210" height="56" fill="none" xmlns="http://www.w3.org/2000/svg"><g clip-path="url(#clip0_48_209)"><path fill-rule="evenodd" clip-rule="evenodd" d="M56.7 23.007c.327 1.633.467 3.313.467 4.993 0 15.493-12.787 28-28.56 28C12.787 56 0 43.493 0 28S12.787 0 28.607 0c6.486 0 12.833 2.147 17.966 6.207l-5.6 4.013a21.657 21.657 0 00-12.366-3.733c-12.134 0-21.98 9.66-21.98 21.513 0 11.853 9.893 21.513 21.98 21.513 12.133 0 21.98-9.66 21.98-21.513v-.56l6.113-4.433zm-39.013-2.474v8.074L28.56 35.28 54.6 16.473c-.933-2.006-2.1-3.873-3.407-5.6L28.56 27.207l-10.873-6.674zm148.82-3.733l7.746-5.6H148.26v33.693h25.993v-5.646H155.68v-8.634h15.867v-5.6H155.68V16.8h10.827zm-46.9 7.467h9.006c8.214 0 12.74 3.546 12.74 9.986 0 6.72-4.993 10.547-13.673 10.547h-15.493V11.153h29.586l-7.746 5.647h-14.42v7.467zm0 14.98h7.746c4.574 0 6.907-1.494 6.907-4.667 0-3.08-2.193-4.667-6.907-4.667h-7.746v9.334zm75.74-28.094h-14.14v33.694h7.42v-9.52h6.72C204.4 35.327 210 30.66 210 23.24c0-7.467-5.6-12.087-14.653-12.087zm-.14 18.527h-6.58V16.8h6.58c4.76 0 7.373 2.287 7.373 6.44 0 4.2-2.613 6.487-7.373 6.44zm-102.2 9.473c2.286 0 4.48-.56 6.393-1.586l1.633-.887 4.807 3.453c-3.173 3.314-7.84 5.134-13.16 5.134-5.133 0-9.8-1.774-13.16-4.994-3.313-3.173-5.18-7.606-5.18-12.46 0-4.806 1.867-9.193 5.227-12.32 3.313-3.08 8.073-4.806 13.16-4.806 4.76 0 8.913 1.4 11.993 4.106l.327.28-5.32 3.827c-1.96-1.4-4.34-2.1-6.72-2.053-6.674 0-11.574 4.666-11.574 11.106.047 6.487 4.9 11.2 11.574 11.2z" fill="#fff"/></g><defs><clipPath id="clip0_48_209"><path fill="#fff" d="M0 0h210v56H0z"/></clipPath></defs></svg>