<svg width="60" height="60" fill="none" xmlns="http://www.w3.org/2000/svg"><g clip-path="url(#clip0_228_1092)"><path fill-rule="evenodd" clip-rule="evenodd" d="M60 30c0 16.568-13.432 30-30 30C13.432 60 0 46.568 0 30 0 13.432 13.432 0 30 0c16.568 0 30 13.432 30 30zm-28.925-7.852c-2.918 1.212-8.75 3.724-17.495 7.535-1.42.564-2.165 1.117-2.232 1.657-.116.915 1.03 1.275 2.584 1.762.213.068.433.136.658.21 1.532.498 3.593 1.08 4.663 1.103.972.02 2.057-.38 3.255-1.2 8.17-5.518 12.387-8.305 12.652-8.365.188-.043.448-.098.623.06.175.155.157.45.14.53-.116.482-4.6 4.655-6.926 6.815a70.6 70.6 0 00-1.342 1.26c-.235.242-.475.475-.705.697-1.425 1.37-2.49 2.4.06 4.08 1.225.808 2.205 1.475 3.182 2.14 1.068.728 2.133 1.453 3.513 2.358.35.23.685.468 1.013.7 1.242.887 2.36 1.682 3.74 1.557.8-.075 1.63-.827 2.05-3.075.992-5.315 2.947-16.825 3.4-21.57.027-.393.01-.79-.05-1.18a1.265 1.265 0 00-.43-.812c-.358-.293-.913-.355-1.163-.35-1.127.02-2.858.623-11.19 4.088z" fill="#E1E1E1"/></g><defs><clipPath id="clip0_228_1092"><path fill="#fff" d="M0 0h60v60H0z"/></clipPath></defs></svg>