<svg width="60" height="60" fill="none" xmlns="http://www.w3.org/2000/svg"><ellipse cx="30" cy="41.25" rx="15" ry="6.25" stroke="#8EAEBA" stroke-width="3" stroke-linejoin="round"/><circle cx="30" cy="20" r="7.5" stroke="#8EAEBA" stroke-width="3" stroke-linejoin="round"/><path fill-rule="evenodd" clip-rule="evenodd" d="M15.39 33.568c-2.774.18-5.3.71-7.286 1.504-1.236.494-2.336 1.12-3.152 1.892-.82.775-1.452 1.8-1.452 3.036s.632 2.261 1.452 3.036c.816.772 1.916 1.398 3.152 1.892 1.102.44 2.37.8 3.754 1.063-.903-1.091-1.504-2.278-1.743-3.526-.315-.102-.614-.21-.897-.322-1.026-.41-1.756-.862-2.205-1.287-.446-.421-.513-.711-.513-.856 0-.145.067-.435.513-.856.449-.425 1.179-.876 2.205-1.287a15.96 15.96 0 012.125-.668c.932-1.354 2.315-2.58 4.046-3.621zm34.495 8.897c-.239 1.248-.84 2.435-1.743 3.526 1.384-.263 2.652-.622 3.754-1.063 1.236-.494 2.336-1.12 3.152-1.892.82-.775 1.452-1.8 1.452-3.036s-.632-2.261-1.452-3.036c-.816-.772-1.916-1.398-3.152-1.892-1.986-.795-4.512-1.325-7.285-1.504 1.731 1.04 3.114 2.267 4.046 3.62a15.92 15.92 0 012.125.67c1.026.41 1.756.861 2.205 1.286.446.421.513.71.513.856 0 .145-.067.435-.513.856-.449.425-1.179.876-2.205 1.287-.283.113-.582.22-.897.322zm-8.766-16.748a12.525 12.525 0 01-1.704 2.506 6.5 6.5 0 102.442-12.191c.316.944.522 1.939.604 2.968h.04a3.5 3.5 0 11-1.382 6.717zm-22.976-9.686a6.5 6.5 0 102.442 12.191 12.53 12.53 0 01-1.704-2.505A3.5 3.5 0 1117.5 19h.04c.08-1.03.287-2.024.603-2.969z" fill="#8EAEBA"/></svg>