<svg width="60" height="60" fill="none" xmlns="http://www.w3.org/2000/svg"><path d="M8.5 55a1.5 1.5 0 003 0h-3zm40 0a1.5 1.5 0 003 0h-3zM21 55a1.5 1.5 0 003 0h-3zm15 0a1.5 1.5 0 003 0h-3zm-24.5 0V15h-3v40h3zM20 6.5h20v-3H20v3zM48.5 15v40h3V15h-3zM40 6.5a8.5 8.5 0 018.5 8.5h3c0-6.351-5.149-11.5-11.5-11.5v3zM11.5 15A8.5 8.5 0 0120 6.5v-3C13.649 3.5 8.5 8.649 8.5 15h3zM24 55V42.5h-3V55h3zm12-12.5V55h3V42.5h-3zm-6-6a6 6 0 016 6h3a9 9 0 00-9-9v3zm-6 6a6 6 0 016-6v-3a9 9 0 00-9 9h3z" fill="#91ABB8"/><path d="M30 12.5v15m7.5-7.5h-15M5 55h50" stroke="#91ABB8" stroke-width="3" stroke-linecap="round"/></svg>