<svg width="30" height="30" fill="none" xmlns="http://www.w3.org/2000/svg"><circle cx="15" cy="13.75" r="3.75" stroke="#8EAEBA" stroke-width="1.5"/><path d="M25.5 13.611c0 2.818-1.637 6.123-3.866 8.762-1.105 1.307-2.326 2.417-3.508 3.193-1.197.786-2.281 1.184-3.126 1.184v1.5c1.265 0 2.642-.571 3.95-1.43 1.323-.87 2.65-2.082 3.83-3.48 2.34-2.77 4.22-6.41 4.22-9.729h-1.5zM15 26.75c-.845 0-1.929-.398-3.126-1.184-1.182-.776-2.403-1.886-3.508-3.193-2.23-2.64-3.866-5.944-3.866-8.762H3c0 3.319 1.88 6.959 4.22 9.73 1.18 1.397 2.508 2.61 3.83 3.479 1.308.859 2.685 1.43 3.95 1.43v-1.5zM4.5 13.611C4.5 7.898 9.192 3.25 15 3.25v-1.5c-6.619 0-12 5.302-12 11.861h1.5zM15 3.25c5.808 0 10.5 4.648 10.5 10.361H27C27 7.051 21.619 1.75 15 1.75v1.5z" fill="#8EAEBA"/></svg>