<svg width="250" height="79" fill="none" xmlns="http://www.w3.org/2000/svg"><g clip-path="url(#clip0_48_204)" fill-rule="evenodd" clip-rule="evenodd"><path d="M57.193.005a.237.237 0 01.28.26 7.015 7.015 0 001.67 4.5 7.052 7.052 0 005.31 2.486c.297-.078.37.436.066.433a7.06 7.06 0 00-3.897 1.174c-1.878 1.234-3.096 3.396-3.142 5.634-.01.136.022.355-.16.39-.147.058-.302-.088-.287-.234a6.964 6.964 0 00-1.6-4.424C54.15 8.656 52.152 7.67 50.11 7.67c-.108.002-.236-.01-.29-.117-.098-.141.037-.36.211-.324a7.054 7.054 0 004.323-1.514c1.66-1.29 2.676-3.35 2.676-5.442-.013-.117.039-.241.162-.268zm-36.35 5.147c1.668.003 3.337 0 5.004 0 4.848 12.52 9.688 25.04 14.531 37.556-1.588.003-3.176 0-4.764 0-1.166-3.002-2.327-6.006-3.488-9.008-5.852-.003-11.706 0-17.558 0-1.16 3.004-2.324 6.006-3.488 9.01-1.588 0-3.176.003-4.764-.002 4.84-12.52 9.683-25.039 14.526-37.556zm-4.358 23.593c4.576.002 9.149-.003 13.721.002-2.28-5.916-4.57-11.83-6.858-17.744-2.292 5.909-4.575 11.825-6.863 17.742zm26.677-23.57c1.62-.003 3.24 0 4.86 0V42.71c-1.62-.005-3.242.007-4.865-.005.01-12.513.005-25.022.005-37.532zm11.66 10.736c1.62-.002 3.24 0 4.86 0 0 8.933.002 17.866 0 26.797-1.62.003-3.24.003-4.86 0V15.911z" fill="#CECECE"/><path d="M66.56 5.174c7.481-.003 14.963 0 22.447 0v4.918H71.54v11.392h15.532v4.67h-15.53v11.64c6.281.003 12.563 0 18.844 0v4.919c-7.94 0-15.881.002-23.822 0-.005-12.517-.005-25.03-.005-37.54zm175.914 7.163h2.617c-.003.165-.003.334-.003.5h-1.004c-.002.978-.002 1.957-.002 2.938h-.582c-.002-.979 0-1.958 0-2.939-.343-.002-.685 0-1.026 0a20.767 20.767 0 010-.5zm3.137 0h.805c.327.898.631 1.804.962 2.703.332-.899.651-1.802.982-2.703h.813c.002 1.147-.003 2.291.002 3.438-.191.002-.378.002-.562.002 0-.95-.012-1.901.032-2.85-.331.954-.687 1.9-1.031 2.85-.177.003-.351 0-.528-.007-.314-.93-.643-1.855-.969-2.78.022.927.017 1.857.017 2.787h-.523v-3.44zm-79.144 2.642c.555-.073 1.114-.08 1.674-.105 0 1.612-.002 3.223 0 4.835-2.376.008-4.74.923-6.468 2.545a9.456 9.456 0 00-2.97 5.767c-.108.787-.064 1.58-.071 2.372v12.315c-1.62.002-3.24 0-4.86 0-.003-9.011 0-18.02 0-27.03h4.86v2.765a14.528 14.528 0 017.835-3.464zm-33.658.314a14.591 14.591 0 018.82.862 14.395 14.395 0 016.36 5.368c1.696 2.588 2.484 5.736 2.243 8.811a14.12 14.12 0 01-2.877 7.536 14.427 14.427 0 01-6.438 4.755 14.23 14.23 0 01-5.199.889c-3.544-.227-6.946-1.86-9.389-4.405-.002 5.9 0 11.801 0 17.7h-4.86c-.002-8.472 0-16.945 0-25.418.007-1.563-.064-3.14.231-4.684a14.178 14.178 0 013.996-7.567 14.43 14.43 0 017.113-3.847zm2.143 4.28a9.492 9.492 0 00-4.19 1.453c-2.108 1.342-3.64 3.546-4.136 5.983-.213.961-.211 1.95-.191 2.929a9.266 9.266 0 00.707 3.272c.967 2.354 2.943 4.273 5.336 5.184 2.69 1.049 5.862.774 8.321-.736 2.263-1.356 3.905-3.688 4.384-6.27.192-.959.179-1.942.155-2.914a9.355 9.355 0 00-2.455-5.877c-1.966-2.172-5.002-3.333-7.931-3.024zm38.935-1.037c3.309-2.951 8.083-4.227 12.428-3.219a12.626 12.626 0 016.151 3.443 12.57 12.57 0 013.614 7.798c.095.972.017 1.943.029 2.915 0 .696.007 1.395-.022 2.091-7.352.003-14.706-.002-22.057.003a9.935 9.935 0 003.711 5.487c2.091 1.546 4.821 2.26 7.401 1.805 2.209-.38 4.249-1.568 5.707-3.248 1.207.947 2.405 1.906 3.606 2.863-2.291 2.698-5.624 4.5-9.159 4.918a14.402 14.402 0 01-7.609-1.152 14.546 14.546 0 01-4.988-3.657 14.351 14.351 0 01-3.272-6.425 14.088 14.088 0 01.597-8.076 14.155 14.155 0 013.863-5.546zm3.974 2.788a9.45 9.45 0 00-3.905 5.711h17.317a8.06 8.06 0 00-1.622-4.17c-1.242-1.644-3.147-2.766-5.192-3.083-2.29-.343-4.693.246-6.598 1.542zm28.822-6.121c1.65-.3 3.358-.332 5 .02 2.789.579 5.315 2.258 6.94 4.576-1.21.809-2.418 1.627-3.633 2.428a7.365 7.365 0 00-3.181-2.525c-1.711-.71-3.68-.728-5.425-.136-.938.324-1.821.893-2.361 1.733a2.799 2.799 0 00-.393 2.213c.206.777.888 1.305 1.554 1.697 1.379.765 2.93 1.15 4.465 1.473 1.35.242 2.695.536 3.998.967 1.208.377 2.369.942 3.351 1.74 1.237 1.016 2.081 2.492 2.295 4.074.211 1.566.132 3.21-.462 4.69a7.59 7.59 0 01-2.572 3.194c-1.139.816-2.457 1.358-3.822 1.68a17.23 17.23 0 01-4.278.462 14.239 14.239 0 01-10.297-4.884c1.217-.961 2.454-1.896 3.679-2.848 1.701 2.35 4.656 3.725 7.563 3.532 1.261-.09 2.548-.37 3.615-1.068.68-.443 1.272-1.07 1.552-1.839.284-.837.284-1.79-.059-2.612-.526-1.076-1.618-1.743-2.713-2.152-1.487-.519-3.051-.753-4.573-1.14-1.475-.38-2.975-.757-4.325-1.48-1.671-.835-3.068-2.352-3.436-4.207-.339-1.722-.233-3.599.623-5.167a7.557 7.557 0 012.445-2.649c1.328-.898 2.867-1.475 4.45-1.772zm20.565.937c-1.158.54-2.256 1.261-3.078 2.245-.884 1.018-1.463 2.29-1.603 3.63-.127 1.271-.049 2.595.437 3.79.543 1.26 1.542 2.302 2.735 2.976 1.315.784 2.805 1.205 4.28 1.585 1.589.426 3.226.67 4.794 1.174 1.107.382 2.214 1.003 2.826 2.033.385.71.432 1.563.284 2.347-.167.89-.77 1.646-1.495 2.17-1.084.776-2.425 1.092-3.74 1.192-2.919.22-5.906-1.149-7.607-3.518a2.47 2.47 0 00-.346.246c-1.112.87-2.246 1.712-3.348 2.595 2.221 2.557 5.387 4.29 8.763 4.748 1.413.214 2.852.146 4.261-.039 1.635-.226 3.259-.674 4.683-1.522a7.78 7.78 0 002.661-2.507c.727-1.079 1.075-2.37 1.151-3.655.076-1.475-.064-3.024-.802-4.334-.634-1.188-1.675-2.123-2.853-2.768-1.301-.726-2.754-1.12-4.19-1.468-.994-.236-2.005-.375-2.994-.628-1.26-.32-2.531-.702-3.636-1.398-.535-.358-1.06-.818-1.249-1.451-.246-.845-.032-1.79.508-2.479.569-.779 1.438-1.285 2.347-1.582 1.833-.584 3.9-.509 5.643.329a7.378 7.378 0 012.842 2.373c1.21-.813 2.435-1.611 3.645-2.432a11.267 11.267 0 00-2.435-2.51c-2.096-1.6-4.769-2.415-7.41-2.306-1.748.056-3.491.434-5.074 1.164zm-134.731-.402h5.763c2.558 3.287 5.111 6.576 7.666 9.866 2.555-3.285 5.113-6.57 7.661-9.863 1.922-.008 3.841-.005 5.763-.003-3.483 4.502-6.985 8.99-10.473 13.489 3.49 4.494 6.985 8.984 10.473 13.48-1.917.008-3.836-.002-5.753.006-2.565-3.282-5.108-6.584-7.673-9.866-2.546 3.29-5.108 6.57-7.656 9.858-1.922.008-3.844.003-5.766.003 3.49-4.495 6.983-8.99 10.476-13.484-3.493-4.494-6.986-8.991-10.481-13.486zm156.219 40.824c.42-.032.842-.037 1.264-.044-.312 2.968-.633 5.934-.947 8.901-.423 0-.842.013-1.26.042.3-2.968.634-5.931.943-8.9zm-24.212 1.064c.385-.13.868.105.947.516.113.516-.309 1.037-.82 1.115-.4.085-.859-.234-.849-.652-.052-.45.297-.862.722-.98zm-12.551.463c.408-.205.984.056 1.041.52.108.587-.474 1.157-1.061 1.08-.346-.037-.643-.356-.623-.707-.007-.397.275-.752.643-.893zm-8.736.05c.42-.031.842-.04 1.264-.043-.383 3.676-.79 7.353-1.173 11.03 1.895-.054 3.792-.123 5.687-.196-.032.385-.081.77-.11 1.154-2.322.1-4.647.154-6.966.256.434-4.066.871-8.134 1.298-12.2zm-52.057 1.802c.81-.046 1.622-.056 2.435-.092.927-.02 1.873-.124 2.788.087.66.149 1.323.48 1.689 1.064.432.648.417 1.48.255 2.211-.255 1.127-1.217 2.043-2.354 2.28.562.062 1.151.17 1.608.527.589.431.876 1.167.879 1.878.054 1.365-.766 2.68-1.947 3.352-.81.468-1.745.699-2.678.745-1.32.054-2.643.088-3.964.144.417-4.064.876-8.13 1.289-12.196zm1.156 1.098c-.152 1.395-.297 2.79-.447 4.186.705-.032 1.409-.051 2.116-.078.481-.005.97-.044 1.426-.207.803-.268 1.465-.972 1.603-1.812.076-.499.02-1.054-.307-1.46-.407-.504-1.082-.706-1.713-.709-.894.01-1.785.073-2.678.08zm-.557 5.247c-.155 1.551-.342 3.097-.506 4.646.476-.008.952-.034 1.429-.044.64-.032 1.288-.012 1.921-.149.757-.15 1.513-.491 1.994-1.107.356-.444.503-1.023.488-1.583.005-.516-.189-1.06-.621-1.37-.596-.439-1.374-.5-2.091-.49-.874.034-1.745.046-2.614.097zm85.828-3.988c.996-1.147 2.594-1.755 4.106-1.52.904.113 1.704.666 2.214 1.4.04-.45.094-.9.14-1.35.388-.008.776-.022 1.166-.04-.236 2.192-.464 4.383-.695 6.572-.13 1.222-.189 2.513-.822 3.606-.66 1.154-1.912 1.911-3.22 2.096-.877.122-1.787.134-2.641-.114a4.118 4.118 0 01-1.999-1.296c.31-.328.653-.62.968-.944.503.757 1.357 1.246 2.26 1.351.771.076 1.581.007 2.288-.331a3.017 3.017 0 001.581-1.75c.314-.83.312-1.727.412-2.596-.415.545-.947 1.02-1.593 1.276-1.244.52-2.766.499-3.915-.249-.766-.48-1.276-1.297-1.441-2.171-.26-1.408.238-2.886 1.191-3.94zm2.734-.428c-1.424.37-2.558 1.67-2.695 3.128-.081.774.145 1.595.685 2.172a2.54 2.54 0 001.649.78c1.321.084 2.637-.66 3.285-1.795.351-.585.461-1.28.434-1.953-.037-.723-.344-1.458-.94-1.899-.678-.521-1.601-.626-2.418-.433zm-62.84-1.001c.375-.005.751-.032 1.129-.024-.074.754-.148 1.51-.226 2.266a74.228 74.228 0 012.329-.08c-.049.346-.081.694-.123 1.04-.775.044-1.551.058-2.326.085-.155 1.655-.342 3.311-.496 4.967-.027.392.014.927.449 1.088.591.202 1.227-.01 1.762-.275-.005.358-.029.716-.049 1.076a4.135 4.135 0 01-2.035.319c-.432-.044-.859-.263-1.087-.64-.248-.373-.3-.83-.258-1.266.174-1.741.371-3.48.54-5.22-.569.01-1.139.026-1.706.063.042-.353.081-.706.121-1.06a56.857 56.857 0 011.71-.06c.062-.64.135-1.278.194-1.919.027-.117-.01-.263.072-.36zm-5.759.207c.385-.022.771-.032 1.156-.044-.069.76-.15 1.515-.226 2.274.776-.034 1.552-.056 2.327-.083-.039.353-.083.704-.12 1.057-.778.037-1.559.022-2.334.1-.145 1.658-.342 3.311-.491 4.967-.025.375.022.869.415 1.05.603.228 1.266.006 1.814-.266-.037.36-.037.723-.064 1.086a4.147 4.147 0 01-2.082.309c-.432-.049-.842-.29-1.058-.667-.223-.358-.28-.792-.24-1.203.176-1.753.37-3.504.545-5.26-.567.028-1.132.035-1.697.067.03-.356.064-.711.121-1.062.564-.015 1.129-.036 1.696-.056.088-.757.152-1.514.238-2.27zm56.895 1.573c.759-1.079 2.124-1.717 3.449-1.58.611.039 1.257.24 1.66.728.513.628.586 1.49.508 2.266-.182 1.727-.366 3.45-.555 5.177-.388 0-.776.017-1.159.039l.361-3.455c.054-.668.182-1.33.152-2.002-.024-.555-.198-1.19-.724-1.475-.594-.314-1.315-.28-1.934-.066-.727.27-1.289.862-1.645 1.534-.233.482-.338 1.013-.39 1.541-.145 1.356-.292 2.713-.434 4.071-.391.02-.778.03-1.166.044l.655-6.23c.069-.612.088-1.225.115-1.839l1.198-.044c-.005.434-.044.862-.091 1.29zm-111.09-1.33c.397-.11.868.168.908.59.071.51-.354.99-.852 1.059-.378.068-.795-.22-.827-.604-.076-.482.307-.94.771-1.045zm106.189.217c.385-.017.77-.03 1.158-.041-.28 2.69-.567 5.38-.859 8.07-.388.018-.773.025-1.159.045.285-2.69.575-5.381.86-8.074zm-3.022.093c.437.007.874-.025 1.308-.037-1.374 2.73-2.766 5.454-4.143 8.183-.435.027-.869.042-1.303.044-.811-2.649-1.621-5.3-2.426-7.952.457-.01.913-.039 1.372-.044.624 2.233 1.24 4.468 1.866 6.7 1.112-2.295 2.199-4.606 3.326-6.894zm-144.673.085c.388-.017.779-.022 1.169-.047-.23 2.085-.432 4.171-.673 6.255.886-1.263 2.59-1.896 4.092-1.48.44.117.86.36 1.117.74.43.604.484 1.386.425 2.101-.182 1.736-.376 3.472-.553 5.208-.387.027-.775.025-1.16.054.154-1.734.39-3.46.512-5.196 0-.523-.068-1.098-.432-1.505-.422-.443-1.094-.499-1.671-.43-.778.094-1.476.572-1.915 1.205-.424.545-.596 1.234-.67 1.906-.152 1.39-.297 2.78-.45 4.17-.384.023-.772.035-1.16.04.454-4.339.918-8.68 1.37-13.021zm135.237.246c.386-.005.771-.01 1.159-.042-.285 2.696-.574 5.39-.862 8.086-.39 0-.775.034-1.163.027.297-2.69.572-5.383.866-8.071zm-16.949.681c.67-.358 1.468-.411 2.209-.272-.115.384-.24.764-.358 1.147a2.654 2.654 0 00-2.393.66 3.176 3.176 0 00-1.041 2.178c-.155 1.434-.312 2.871-.464 4.305-.385.024-.771.034-1.158.041.26-2.69.596-5.373.785-8.07.385-.006.771-.02 1.159-.04l-.16 1.515c.312-.614.8-1.147 1.421-1.464zM67.001 63.735c.92-.935 2.276-1.33 3.57-1.313.632.02 1.278.125 1.85.41.45.228.825.579 1.139.97-.398.303-.8.597-1.2.897-.307-.531-.835-.935-1.449-1.047-.876-.16-1.83-.01-2.577.49-.59.389-1.011 1.036-1.058 1.743-.083.533.11 1.102.533 1.45.633.527 1.463.68 2.224.936.684.226 1.404.428 1.985.871.548.41.894 1.067.928 1.743.05.826-.152 1.676-.633 2.357-1.195 1.734-3.606 2.452-5.594 1.782a3.319 3.319 0 01-1.875-1.448l1.237-.864a2.416 2.416 0 001.364 1.217c1.26.443 2.801.058 3.63-1 .433-.539.605-1.289.406-1.951-.211-.618-.8-1.003-1.387-1.225-.827-.297-1.694-.487-2.506-.83-.575-.243-1.124-.623-1.416-1.183-.344-.621-.325-1.361-.21-2.038a3.606 3.606 0 011.04-1.967zm117.652-.867c1.12-.365 2.445-.35 3.442.331.643.421 1.06 1.12 1.232 1.855.159.66.115 1.35.01 2.011-2.251.08-4.5.154-6.748.239-.012.62.157 1.251.523 1.758.483.687 1.347 1.059 2.182 1.003 1.082-.02 2.067-.65 2.707-1.488.273.239.548.47.82.709-.572.667-1.286 1.234-2.123 1.531-1.06.385-2.28.446-3.324-.017-1.006-.428-1.723-1.39-1.919-2.447a5.002 5.002 0 01.353-2.848c.543-1.21 1.579-2.204 2.845-2.637zm-.037 1.134c-.927.45-1.728 1.298-1.892 2.338 1.821-.037 3.64-.13 5.457-.175.036-.414.012-.843-.138-1.235-.186-.49-.582-.9-1.08-1.079-.758-.27-1.625-.202-2.347.151zm-22 .071c1.036-.667 2.361-.891 3.552-.557.876.255 1.622.92 1.944 1.77.319.784.316 1.658.169 2.478-.194.08-.435.027-.646.054-2.032.073-4.067.134-6.099.216-.025.75.24 1.524.778 2.063.54.538 1.335.774 2.089.689 1.016-.076 1.936-.68 2.538-1.476.277.234.557.468.824.714-.741.871-1.755 1.538-2.898 1.74-.894.168-1.861.12-2.681-.297a3.238 3.238 0 01-1.544-1.626c-.314-.68-.358-1.446-.27-2.18a4.914 4.914 0 012.244-3.588zm1.426.47c-1.146.363-2.175 1.317-2.374 2.525 1.819-.037 3.64-.13 5.459-.175.062-.694-.083-1.454-.618-1.946-.656-.587-1.647-.633-2.467-.404zm-33.574 1.597a4.6 4.6 0 012.992-1.663c.78-.097 1.615-.022 2.31.37.456.246.829.621 1.126 1.042.057-.453.094-.905.152-1.356.386-.002.774-.017 1.159-.039-.287 2.695-.567 5.39-.857 8.086-.132.833-.343 1.687-.846 2.384-.69.988-1.827 1.629-3.02 1.801-.918.132-1.88.14-2.771-.146a4.122 4.122 0 01-1.887-1.258c.311-.327.65-.624.969-.945.516.786 1.419 1.278 2.352 1.36.738.057 1.507-.014 2.184-.335a2.99 2.99 0 001.473-1.473c.43-.899.42-1.911.533-2.878-.408.53-.923 1-1.552 1.256-1.264.548-2.827.524-3.993-.253-.707-.455-1.191-1.203-1.375-2.011-.309-1.385.138-2.868 1.051-3.942zm2.894-.574c-1.667.396-2.936 2.093-2.735 3.8.086.899.665 1.743 1.512 2.092 1.186.499 2.595.046 3.491-.811.905-.843 1.252-2.184.942-3.367-.152-.563-.503-1.079-1.004-1.386-.648-.419-1.468-.484-2.206-.328zm-129.58-.592c1.07-.363 2.261-.419 3.344-.08.643.194 1.18.633 1.588 1.154-.398.3-.795.601-1.196.896-.262-.422-.638-.792-1.119-.952-.795-.278-1.689-.18-2.454.14-.73.317-1.34.968-1.48 1.759-.082.436-.077.92.171 1.307.275.456.771.711 1.252.901.864.307 1.763.519 2.604.889.555.246 1.073.635 1.346 1.188.36.667.316 1.466.15 2.181-.325 1.269-1.368 2.26-2.56 2.754a5.083 5.083 0 01-3.852.051 3.282 3.282 0 01-1.574-1.341c.413-.288.823-.575 1.235-.86.329.699 1.026 1.193 1.785 1.33 1.24.253 2.65-.234 3.343-1.313.434-.677.52-1.665-.047-2.293-.547-.609-1.387-.794-2.14-1.028-.85-.265-1.765-.494-2.43-1.12-.55-.504-.764-1.285-.697-2.008.029-.565.154-1.13.422-1.632a4.126 4.126 0 012.31-1.923zm117.829 1.385c.769-1.098 2.168-1.738 3.51-1.577.631.048 1.301.287 1.675.823.456.637.505 1.465.427 2.22-.182 1.707-.366 3.411-.545 5.118-.391.007-.778.02-1.166.036.14-1.239.262-2.48.393-3.72.063-.738.22-1.485.058-2.22-.085-.407-.306-.816-.697-1.006-.594-.292-1.303-.253-1.914-.039-.56.21-1.024.618-1.363 1.1-.405.536-.569 1.206-.643 1.858-.147 1.395-.302 2.788-.446 4.183-.388.017-.776.027-1.161.046.198-1.974.412-3.951.618-5.926.084-.713.13-1.429.142-2.145.401-.02.801-.029 1.203-.046-.005.436-.042.867-.091 1.295zm-4.904-1.112a36.57 36.57 0 011.161-.044c-.285 2.69-.562 5.383-.861 8.071-.386.017-.771.024-1.157.044.288-2.69.575-5.381.857-8.071zm-9.786 1.68c.844-1.089 2.243-1.712 3.623-1.666 1.013-.002 2.052.39 2.729 1.154.835.935 1.011 2.294.749 3.482-.307 1.439-1.296 2.73-2.644 3.36-1.112.523-2.455.68-3.613.219a2.88 2.88 0 01-1.414-1.18c-.214 2.1-.444 4.202-.653 6.303-.388.02-.778.041-1.166.034.454-4.341.923-8.68 1.37-13.021.388-.01.773-.017 1.161-.04-.037.451-.091.902-.142 1.355zm2.493-.517a3.757 3.757 0 00-2.852 3.698c.03.816.427 1.635 1.119 2.097.999.687 2.401.626 3.42.012.81-.47 1.379-1.288 1.62-2.181.184-.672.226-1.407-.012-2.072-.185-.546-.56-1.032-1.071-1.313-.667-.39-1.487-.409-2.224-.24zm-68.626 1.461c.079-.76.14-1.521.238-2.279.386.008.769-.031 1.156-.022-.08.755-.157 1.512-.223 2.27a49.227 49.227 0 012.32-.078c-.042.345-.071.696-.125 1.04-.774.024-1.544.063-2.315.075-.162 1.597-.322 3.192-.486 4.789-.04.343-.052.72.137 1.027.15.242.45.31.715.324.473.015.935-.146 1.35-.358-.013.356-.037.711-.04 1.067a3.852 3.852 0 01-2.233.302c-.594-.103-1.041-.633-1.137-1.208-.09-.519.035-1.04.071-1.558l.452-4.332c-.57.012-1.141.032-1.708.059.03-.302.076-.602.103-.904a2.11 2.11 0 00-.089-.182c-.041.37-.198.716-.302 1.071a2.637 2.637 0 00-2.032.375 3.185 3.185 0 00-1.367 2.172c-.165 1.531-.332 3.063-.494 4.594-.387.022-.775.037-1.163.04.272-2.689.601-5.374.788-8.07.388-.004.773-.019 1.16-.04a35.8 35.8 0 01-.166 1.535c.326-.667.864-1.236 1.549-1.543.636-.312 1.37-.329 2.06-.232l.102.14c.553-.06 1.117-.042 1.68-.074zm55.58-.58a4.499 4.499 0 013.562-1.667c.952-.01 1.932.304 2.619.974.552.519.884 1.24.994 1.98.196 1.346-.233 2.758-1.107 3.8-.857 1.035-2.172 1.665-3.515 1.726-1.186.083-2.489-.385-3.11-1.439-.236 2.101-.432 4.205-.67 6.304-.386.007-.77.034-1.156.032.461-4.342.915-8.685 1.377-13.026.388-.005.775-.017 1.163-.04-.059.451-.088.906-.157 1.357zm2.757-.566a3.656 3.656 0 00-1.517.628c-1.021.698-1.628 1.93-1.59 3.155.031.852.485 1.687 1.224 2.135 1.075.658 2.528.514 3.535-.207 1.035-.723 1.575-2.003 1.548-3.24-.031-.838-.429-1.697-1.17-2.14-.597-.383-1.343-.439-2.03-.331zm-10.614-.69c.817-.104 1.681-.04 2.437.312a3.248 3.248 0 011.6 1.566c.56 1.202.433 2.641-.137 3.817a4.846 4.846 0 01-3.247 2.608c-1.137.268-2.41.195-3.407-.458-.845-.535-1.375-1.48-1.478-2.459-.118-1.154.162-2.357.837-3.311a4.877 4.877 0 013.395-2.075zm-.16 1.077a3.362 3.362 0 00-1.328.58c-.935.683-1.455 1.828-1.504 2.965-.03.652.135 1.331.545 1.855.466.611 1.25.927 2.01.918a3.42 3.42 0 002.057-.65c1.006-.721 1.539-1.98 1.51-3.195-.018-.842-.418-1.709-1.162-2.154-.623-.4-1.41-.45-2.128-.32zm159.577-.095c.359-.134.823-.059 1.041.277.292.421.106 1.01-.275 1.313-.373.314-1.053.345-1.335-.098-.361-.53-.005-1.29.569-1.492zm-190.06.355c.674-.36 1.477-.416 2.22-.277-.12.382-.24.764-.362 1.146a2.715 2.715 0 00-1.66.168c-.91.429-1.57 1.33-1.733 2.31-.176 1.557-.331 3.115-.51 4.67-.386.02-.773.035-1.159.037.278-2.688.6-5.373.793-8.069.386-.007.773-.012 1.156-.046-.04.502-.11.998-.147 1.5.312-.604.788-1.127 1.401-1.439zm-9.159.085c.967-.2 2.043-.121 2.88.436.815.511 1.276 1.449 1.37 2.381.063.507-.003 1.016-.077 1.52-2.253.08-4.506.15-6.757.238.007.726.225 1.478.74 2.009.509.545 1.28.808 2.019.752 1.06-.036 2.035-.655 2.655-1.485.278.231.55.47.825.706-.424.492-.915.933-1.49 1.25a4.88 4.88 0 01-3.004.542c-.844-.12-1.65-.55-2.18-1.217-.665-.816-.869-1.924-.717-2.946.212-1.982 1.76-3.774 3.736-4.186zm-2.442 3.609c1.821-.042 3.643-.12 5.464-.183.027-.392.015-.794-.123-1.166a1.855 1.855 0 00-1.259-1.193c-1.75-.51-3.758.776-4.082 2.542zM25.228 69.38c.945-.91 2.296-1.274 3.587-1.296.714-.021 1.487.14 2.008.658.532.506.704 1.283.63 1.992-.13 1.278-.265 2.556-.397 3.837-.057.557-.057 1.117-.054 1.677-.373.022-.746.027-1.12.044a6.72 6.72 0 01.042-1.315c-.375.524-.844 1.003-1.44 1.274-.74.333-1.584.42-2.384.297-.619-.098-1.22-.436-1.522-.994-.353-.589-.267-1.32-.069-1.945.28-.828 1.041-1.39 1.829-1.707 1.235-.499 2.592-.49 3.9-.58.062-.554.079-1.187-.29-1.65-.323-.404-.87-.533-1.369-.53-1.004-.018-1.986.389-2.734 1.041a36.996 36.996 0 01-.616-.803zm1.79 3.328c-.452.18-.928.41-1.2.825-.268.436-.312 1.045.007 1.466.228.297.604.448.967.504.938.156 1.974-.16 2.577-.908.536-.643.712-1.49.764-2.303-1.046.031-2.118.066-3.115.416zm-10.12-2.583c.569-.97 1.625-1.678 2.768-1.726.626-.022 1.291.031 1.839.365.407.236.675.655.822 1.09.174.56.17 1.157.103 1.734-.184 1.663-.35 3.328-.54 4.991-.388-.007-.773.025-1.16.025.144-1.283.27-2.569.41-3.852.065-.69.18-1.385.09-2.08-.061-.46-.339-.92-.793-1.085-.538-.197-1.144-.173-1.686-.015-.827.278-1.39 1.033-1.65 1.834-.206.572-.226 1.183-.292 1.78-.118 1.185-.245 2.368-.36 3.554-.386.046-.776.039-1.164.049.132-1.322.275-2.64.412-3.962.057-.672.192-1.35.071-2.023-.068-.402-.292-.8-.675-.984-.537-.253-1.173-.224-1.728-.036-.653.241-1.134.784-1.465 1.373-.27.482-.38 1.032-.45 1.575-.154 1.405-.301 2.81-.463 4.213-.386.012-.773.031-1.159.038.13-1.236.26-2.473.393-3.71.142-1.451.346-2.9.385-4.36.423-.008.842-.025 1.262-.042-.047.409-.093.82-.13 1.232.636-.906 1.713-1.505 2.83-1.527.604-.004 1.25.12 1.701.543.305.263.503.626.629 1.006zm124.176.677c.476-.047.955-.032 1.434-.064a523.797 523.797 0 01-1.839 4.113c-.393.022-.785.034-1.178.036.525-1.363 1.06-2.722 1.583-4.085z" fill="#fff"/></g><defs><clipPath id="clip0_48_204"><path fill="#fff" d="M0 0h250v79H0z"/></clipPath></defs></svg>