<svg width="231" height="75" fill="none" xmlns="http://www.w3.org/2000/svg"><path d="M49.063 8.602a7.857 7.857 0 00-7.828 5.757 10.99 10.99 0 000 6.493 7.392 7.392 0 006.253 5.591 7.267 7.267 0 007.797-3.417 10.16 10.16 0 00.449-10.149 7.087 7.087 0 00-6.702-4.287l.03.012zm-.151 26.357a17.81 17.81 0 01-12.397-4.496 16.577 16.577 0 01-5.367-13.136 16.964 16.964 0 014.016-11.302A16.758 16.758 0 0144.698.492 18.613 18.613 0 0158.19 2.457a15.887 15.887 0 018.215 13.794 17.042 17.042 0 01-4.918 13.883 17.462 17.462 0 01-12.548 4.84l-.027-.015zm117.007-14.32a11.327 11.327 0 00-5.053-1.815 6.866 6.866 0 00-5.32 1.11 4.323 4.323 0 00-1.502 4.768 4.061 4.061 0 003.568 2.697 9.657 9.657 0 004.751-.735 5.263 5.263 0 003.521-5.998l.035-.027zm.151-6.249c.07-.952.07-1.911 0-2.863a3.93 3.93 0 00-2.879-3.088 21.28 21.28 0 00-14.885 1.138l-1.242-6.853a22.302 22.302 0 016.102-1.95 31.061 31.061 0 0113.268.194c4.631 1.168 7.87 3.853 8.772 8.771a22.1 22.1 0 01.224 3.777v12.428c.166 2.55.391 2.805 2.999 3.192v5.262a11.251 11.251 0 01-7.855-.24 4.587 4.587 0 01-2.472-3.494c0-.298-.078-.615-.136-1.064-3.165 4.496-7.692 5.669-12.668 5.383-5.502-.48-9.851-4.183-10.567-8.606-1.288-7.181 2.337-12.548 9.58-13.627 4.632-.736 5.893-.407 11.813 1.617l-.054.023zm-42.531 6.4l-5.096.313v13.075h-9.549V1.09h9.398v12.235a18.78 18.78 0 006.164-.464 7.235 7.235 0 004.918-5.023c.615-2.19.913-4.496 1.377-6.821h8.695c.193 6.821-1.169 12.834-7.693 16.58.256.48.465.898.689 1.288 2.685 4.496 5.367 8.996 8.037 13.419.309.623.58 1.261.808 1.92h-10.04l-7.72-13.42.012-.015zM92.043 1.045h9.294v33.19h-9.383v-10.64c-1.726.391-3.312.87-4.933 1.08a14.715 14.715 0 01-11.798-2.79 13.96 13.96 0 01-4.736-8.47c-.809-4.063-.313-8.183-.449-12.366h9.7v1.497c0 2.686 0 5.382.136 8.052a6.101 6.101 0 006.276 5.924h.05a9.547 9.547 0 005.847-1.768V1.045h-.004zm-72.905 33.06H9.813V9.518H.023V1.076h28.8v8.35h-9.685v24.678zM4.52 69.453c-1.378 0-2.206-.99-2.217-2.759A2.839 2.839 0 014.52 65.45a1.814 1.814 0 011.93 1.904 1.981 1.981 0 01-1.853 2.097c-.023 0-.05.004-.077.004zm.677-5.997a3.67 3.67 0 00-2.999 1.393c.012-.685.29-1.335.778-1.815.298-.31.661-.546 1.064-.689a7.277 7.277 0 011.393-.406l.781-.166.855-.151.871-.151v-2.07a22.54 22.54 0 00-3.494.808 8.495 8.495 0 00-2.399 1.215 5.226 5.226 0 00-2.023 4.647 6.08 6.08 0 001.168 3.897 4.025 4.025 0 003.328 1.5 4.183 4.183 0 002.998-1.183 4.035 4.035 0 001.23-2.999 3.605 3.605 0 00-.959-2.805 3.533 3.533 0 00-2.608-.96l.016-.065zm9.82 5.32a2.192 2.192 0 01-1.857.84c-.855 0-1.498-.345-1.498-1.065s.658-1.064 1.633-1.064c.604-.015 1.2.151 1.71.48l.012.809zm2.879.63c-.376 0-.569-.208-.569-.63v-2.79a2.86 2.86 0 00-1.08-2.368 4.357 4.357 0 00-2.816-.855 6.394 6.394 0 00-3 .658v1.97a4.803 4.803 0 012.473-.69c1.498 0 2.175.511 2.175 1.498v.24a5.023 5.023 0 00-2.446-.449 3.806 3.806 0 00-2.278.689 2.307 2.307 0 00-.96 2.008 2.741 2.741 0 002.999 2.743 3.766 3.766 0 002.816-1.126 1.807 1.807 0 001.858 1.049c.44.027.878-.093 1.246-.344V69.3a.941.941 0 01-.434.104h.016v.004zm3.943 1.8v-3.223h3.374v3.223h2.31v-8.2h-2.31v3.03h-3.374v-3.03h-2.326v8.2h2.326zm9.816 0V67.67l3.239 3.537h2.983l-4.121-4.512 3.568-3.687h-2.848l-2.817 2.983v-2.983h-2.326v8.199h2.322zm13.898-1.95a11.49 11.49 0 00.72-4.318h2.566v4.318h-3.286zm-1.199 4.02V71.19h5.908v2.086h2.233V69.26h-1.35v-6.269h-6.896v1.59a9.109 9.109 0 01-.99 4.663H42.21v4.016l2.144.016zm15.067-8.335v6.253h2.325v-8.203h-7.092v2.415c.031.948-.062 1.892-.27 2.817-.179.735-.527 1.048-1.065 1.048a1.431 1.431 0 01-.48 0v1.888c.275.117.573.167.87.151a2.76 2.76 0 002.76-2.325c.247-.94.371-1.908.375-2.879v-1.153l2.577-.012zm7.584 1.873c-.778 0-1.23-.36-1.23-1.006s.464-1.006 1.23-1.006h1.71v2.008h-1.71v.004zm-1.571 4.392l1.888-2.713h1.393v2.713h2.31v-8.215h-4.392c-2.159 0-3.223 1.138-3.223 2.67a2.343 2.343 0 001.618 2.414l-2.206 3.12 2.612.01zm13.94 0v-6.268h3.27v6.268h2.31v-8.2h-7.9v8.2h2.32zm11.756-6.4c.6-.02 1.18.22 1.59.658a2.462 2.462 0 010 3.27 2.09 2.09 0 01-1.59.657 2.304 2.304 0 01-2.04-1.215v-2.19a2.321 2.321 0 012.04-1.23v.05zm.658-2.07a3.17 3.17 0 00-2.697 1.215v-.96h-2.31v11.484h2.325v-4.271a3.235 3.235 0 002.697 1.215 3.515 3.515 0 002.759-1.23 4.509 4.509 0 001.095-3 4.399 4.399 0 00-1.095-2.998 3.483 3.483 0 00-2.774-1.409v-.046zm6.88 3.525a1.782 1.782 0 011.798-1.648 1.662 1.662 0 011.722 1.601v.047h-3.52zm2.251 5.154a5.09 5.09 0 003.119-.84V68.72a5.224 5.224 0 01-2.624.72c-1.497 0-2.503-.585-2.743-1.71h5.877v-.616a4.598 4.598 0 00-1.064-2.999 3.52 3.52 0 00-2.847-1.257 4.044 4.044 0 00-3.088 1.246 4.239 4.239 0 00-1.184 2.999 4.046 4.046 0 001.32 3.134 4.636 4.636 0 003.234 1.18zm7.568-2.16c.515-1.38.759-2.843.72-4.317h2.565v4.318h-3.285zm-1.199 4.02V71.19h5.92v2.086h2.248V69.26h-1.35v-6.269h-6.895v1.59a9.11 9.11 0 01-.991 4.663h-1.049v4.016l2.117.016zm11.557-2.07V64.94h3.27v6.268h2.325v-8.2h-7.901v8.2h2.306zm11.771-6.399c.6-.02 1.18.22 1.59.658a2.462 2.462 0 010 3.27c-.41.437-.99.677-1.59.657a2.303 2.303 0 01-2.039-1.215v-2.19a2.32 2.32 0 012.039-1.23v.05zm.662-2.07a3.169 3.169 0 00-2.697 1.215v-.96h-2.326v11.484h2.326v-4.271a3.235 3.235 0 002.697 1.215 3.513 3.513 0 002.758-1.23 4.506 4.506 0 001.095-3 4.393 4.393 0 00-1.095-2.998 3.48 3.48 0 00-2.758-1.409v-.046zm7.285 8.47l3.719-4.84v4.84h2.279v-8.2h-2.175l-3.703 4.83v-4.83h-2.294v8.2h2.174zm10.134 0v-3.223h3.374v3.223h2.31v-8.2h-2.31v3.03h-3.374v-3.03h-2.31v8.2h2.31zm9.669 0l3.719-4.84v4.84h2.279v-8.2h-2.159l-3.719 4.83v-4.83h-2.279v8.2h2.159zm10.014 0v-5.069l2.008 2.55h.929l2.024-2.55v5.069h2.19v-8.2h-2.279l-2.399 3.057-2.384-3.056h-2.279v8.199h2.19zm13.899-2.43a2.197 2.197 0 01-1.858.84c-.855 0-1.501-.345-1.501-1.065s.631-1.064 1.606-1.064a3.017 3.017 0 011.71.48l.043.809zm2.878.63c-.375 0-.568-.208-.568-.63v-2.79c.042-.917-.36-1.8-1.08-2.368a4.362 4.362 0 00-2.821-.855 6.39 6.39 0 00-2.998.658v1.97a4.8 4.8 0 012.472-.69c1.501 0 2.175.511 2.175 1.498v.24a5.032 5.032 0 00-2.415-.449 3.808 3.808 0 00-2.279.689 2.306 2.306 0 00-.959 2.008 2.74 2.74 0 002.998 2.743 3.765 3.765 0 002.817-1.126 1.81 1.81 0 001.857 1.049c.442.027.879-.093 1.246-.344V69.3a.889.889 0 01-.445.108zm5.634 1.8v-6.268h2.592v-1.935h-7.463v1.935h2.549v6.268h2.322zm5.278-4.945a1.782 1.782 0 011.872-1.648 1.661 1.661 0 011.722 1.601v.047h-3.594zm2.248 5.154a5.086 5.086 0 003.118-.84V68.72a5.21 5.21 0 01-2.623.72c-1.501 0-2.503-.585-2.743-1.71h5.877v-.616a4.603 4.603 0 00-1.064-2.999 3.517 3.517 0 00-2.848-1.257 4.047 4.047 0 00-3.087 1.246 4.236 4.236 0 00-1.184 2.999 4.045 4.045 0 001.319 3.134 4.643 4.643 0 003.235 1.18zm10.764-6.474v6.253h2.326v-8.203h-7.077v2.415c.031.948-.062 1.892-.271 2.817-.178.735-.526 1.048-1.064 1.048a1.432 1.432 0 01-.48 0v1.888c.275.117.573.167.871.151a2.759 2.759 0 002.758-2.325c.248-.94.372-1.908.376-2.879v-1.153l2.561-.012zm5.909 1.32a1.782 1.782 0 011.872-1.648 1.662 1.662 0 011.722 1.601v.047h-3.594zm2.248 5.154a5.09 5.09 0 003.118-.84V68.72a5.22 5.22 0 01-2.623.72c-1.501 0-2.504-.585-2.743-1.71h5.877v-.616a4.603 4.603 0 00-1.064-2.999 3.517 3.517 0 00-2.848-1.257 4.044 4.044 0 00-3.088 1.246 4.245 4.245 0 00-1.184 2.999 4.05 4.05 0 001.32 3.134 4.643 4.643 0 003.235 1.18zm9.023-9.325c.77.03 1.52-.24 2.097-.75a2.697 2.697 0 00.855-2.056h-1.753a1.214 1.214 0 01-2.43 0h-1.737a2.757 2.757 0 002.701 2.814c.1 0 .197 0 .298-.012l-.031.004zm-1.873 9.1l3.718-4.829v4.83h2.279v-8.2h-2.174l-3.718 4.83v-4.83h-2.279v8.2h2.174z" fill="#fff"/></svg>