<svg width="60" height="60" fill="none" xmlns="http://www.w3.org/2000/svg"><path d="M40 8.506l-1.058 1.063a1.5 1.5 0 002.116 0L40 8.506zm1.148-1.142L40.09 6.301l1.058 1.063zm-2.296 0l1.058-1.063-1.058 1.063zM27.377 18.78l1.058-1.063-1.058 1.063zm10.328 10.274l-1.058 1.064 1.058-1.064zm4.59 0l-1.058-1.063 1.058 1.063zM52.623 18.78l1.058 1.063-1.058-1.063zM41.058 9.57l1.147-1.142L40.09 6.3l-1.148 1.141 2.116 2.127zm-3.264-1.142l1.148 1.141 2.116-2.127-1.148-1.141-2.115 2.127zM26.32 19.843l10.328 10.275 2.116-2.127-10.328-10.274-2.116 2.127zm17.034 10.275l10.328-10.274-2.116-2.127L41.237 27.99l2.116 2.127zm8.212-21.69a6.542 6.542 0 010 9.289l2.116 2.127a9.542 9.542 0 000-13.543l-2.116 2.127zM53.681 6.3c-3.754-3.735-9.837-3.735-13.591 0l2.115 2.127a6.645 6.645 0 019.36 0L53.681 6.3zM28.435 8.428a6.645 6.645 0 019.36 0L39.91 6.3c-3.754-3.735-9.837-3.735-13.591 0l2.116 2.127zm8.212 21.69a4.758 4.758 0 006.706 0l-2.116-2.127a1.758 1.758 0 01-2.474 0l-2.116 2.127zM26.319 6.3a9.542 9.542 0 000 13.542l2.116-2.126a6.542 6.542 0 010-9.29L26.319 6.3zM5 23.5a1.5 1.5 0 000 3v-3zm5 1.5l.601-1.374A1.5 1.5 0 0010 23.5V25zm8.09 12.371a1.5 1.5 0 10-1.18 2.758l1.18-2.758zm8.948 3.29l1.379.592-1.38-.591zm-2.626 1.051l-.591 1.379.59-1.379zm4.806-6.138l1.379.591-1.379-.59zM5 26.5h5v-3H5v3zm4.399-.126L27.58 34.33l1.203-2.749L10.6 23.626l-1.2 2.748zm18.44 8.61l-2.18 5.087 2.758 1.182 2.18-5.088-2.758-1.181zm-2.836 5.35L18.09 37.37l-1.182 2.758 6.912 2.962 1.182-2.758zm.656-.263a.5.5 0 01-.656.262l-1.182 2.758a3.5 3.5 0 004.596-1.838l-2.758-1.182zm1.921-5.742a.5.5 0 01.26.655l2.757 1.181a3.5 3.5 0 00-1.814-4.585l-1.203 2.75z" fill="#8EAEBA"/><path d="M5.67 46.158a1.5 1.5 0 10-1.34 2.684l1.34-2.684zm22.5-7.5l-1.34-.67-1.342 2.683 1.341.67 1.342-2.683zm8.063 5.709l-.67 1.341.67-1.341zm2.683 2.133H48v-3h-9.084v3zm9.584.5v6h3v-6h-3zm-.5 6.5H21.889v3H48v-3zm-29.018-.686L5.67 46.158l-1.342 2.684 13.311 6.655 1.342-2.683zm17.922-9.79l-8.733-4.366-1.342 2.684 8.733 4.366 1.342-2.683zM21.888 53.5a6.5 6.5 0 01-2.906-.686l-1.342 2.683a9.5 9.5 0 004.248 1.003v-3zM48.5 53a.5.5 0 01-.5.5v3a3.5 3.5 0 003.5-3.5h-3zm-.5-6.5a.5.5 0 01.5.5h3a3.5 3.5 0 00-3.5-3.5v3zm-9.084-3a4.5 4.5 0 01-2.012-.475l-1.342 2.683a7.5 7.5 0 003.354.792v-3z" fill="#8EAEBA"/></svg>