<svg width="60" height="60" fill="none" xmlns="http://www.w3.org/2000/svg"><path d="M30 13.81l-1.098 1.022a1.5 1.5 0 002.196 0L30 13.811zm1.913-2.054l-1.098-1.022 1.098 1.022zm-3.826 0l1.098-1.022-1.098 1.022zM8.961 32.304l-1.098 1.022 1.098-1.022zm17.214 18.494l1.098-1.022-1.098 1.022zm7.65 0l-1.098-1.022 1.098 1.022zM51.04 32.304l-1.098-1.022 1.098 1.022zm0-20.548l1.098-1.022-1.098 1.022zm-42.078 0l-1.098-1.022 1.098 1.022zM7.5 28.5a1.5 1.5 0 000 3v-3zM20 30v1.5a1.5 1.5 0 001.248-.668L20 30zm5-7.5l1.248-.832a1.5 1.5 0 00-2.496 0L25 22.5zm10 15l-1.248.832a1.5 1.5 0 002.496 0L35 37.5zm5-7.5v-1.5a1.5 1.5 0 00-1.248.668L40 30zm12.5 1.5a1.5 1.5 0 000-3v3zM31.098 14.832l1.913-2.054-2.196-2.044-1.913 2.055 2.196 2.043zm-4.109-2.054l1.913 2.054 2.196-2.043-1.913-2.055-2.196 2.044zM7.863 33.326L25.077 51.82l2.196-2.044-17.214-18.494-2.196 2.044zm27.06 18.494l17.214-18.494-2.196-2.044-17.214 18.494 2.196 2.044zm15.018-39.042c4.745 5.098 4.745 13.406 0 18.504l2.196 2.044c5.817-6.25 5.817-16.342 0-22.592l-2.196 2.044zm2.196-2.044c-5.875-6.312-15.448-6.312-21.322 0l2.196 2.044c4.688-5.037 12.241-5.037 16.93 0l2.196-2.044zm-42.078 2.044c4.689-5.037 12.242-5.037 16.93 0l2.196-2.044c-5.874-6.312-15.447-6.312-21.322 0l2.196 2.044zM25.077 51.82c2.706 2.907 7.14 2.907 9.846 0l-2.196-2.044c-1.52 1.632-3.935 1.632-5.454 0l-2.196 2.044zM7.863 10.734c-5.817 6.25-5.817 16.342 0 22.592l2.196-2.044c-4.745-5.098-4.745-13.406 0-18.504l-2.196-2.044zM7.5 31.5H20v-3H7.5v3zm13.748-.668l5-7.5-2.496-1.664-5 7.5 2.496 1.664zm2.504-7.5l10 15 2.496-1.664-10-15-2.496 1.664zm12.496 15l5-7.5-2.496-1.664-5 7.5 2.496 1.664zM40 31.5h12.5v-3H40v3z" fill="#8EAEBA"/></svg>