<svg width="24" height="24" fill="none" xmlns="http://www.w3.org/2000/svg"><path d="M6.416 7.376a.75.75 0 00-.832 1.248l.832-1.248zm3.365 3.145l.416-.624-.416.624zm4.438 0l-.416-.624.416.624zm4.197-1.897a.75.75 0 10-.832-1.248l.832 1.248zM6 3.75h12v-1.5H6v1.5zM21.25 7v10h1.5V7h-1.5zM18 20.25H6v1.5h12v-1.5zM2.75 17V7h-1.5v10h1.5zM6 20.25A3.25 3.25 0 012.75 17h-1.5A4.75 4.75 0 006 21.75v-1.5zM21.25 17A3.25 3.25 0 0118 20.25v1.5A4.75 4.75 0 0022.75 17h-1.5zM18 3.75A3.25 3.25 0 0121.25 7h1.5A4.75 4.75 0 0018 2.25v1.5zM6 2.25A4.75 4.75 0 001.25 7h1.5A3.25 3.25 0 016 3.75v-1.5zm-.416 6.374l3.781 2.52.832-1.247-3.781-2.521-.832 1.248zm9.05 2.52l3.782-2.52-.832-1.248-3.781 2.52.832 1.249zm-5.269 0a4.75 4.75 0 005.27 0l-.832-1.247a3.25 3.25 0 01-3.606 0l-.832 1.248z" fill="#919291"/></svg>