<svg width="250" height="72" fill="none" xmlns="http://www.w3.org/2000/svg"><g clip-path="url(#clip0_48_190)"><path fill-rule="evenodd" clip-rule="evenodd" d="M232.862 67.184c-.007.327-.007.654 0 .982.348-.014.723.054 1.057-.089.328-.143.335-.661.014-.818-.334-.143-.716-.055-1.071-.075zm-.785-.703c.635.014 1.269-.04 1.904.034.532.069 1.009.54.982 1.098.021.478-.286.907-.716 1.078.266.41.546.818.819 1.22-.308.008-.615.008-.915.008-.252-.369-.484-.75-.737-1.119h-.559v1.112h-.785c.007-1.132.007-2.278.007-3.43zm.587-.668c1.01-.307 2.21.061 2.831.927.56.737.662 1.774.287 2.62-.389.906-1.337 1.54-2.327 1.534-.873.04-1.76-.41-2.217-1.153a2.629 2.629 0 01-.266-2.319 2.54 2.54 0 011.692-1.61zm.512-.73a3.225 3.225 0 012.613 1.037c.668.73.962 1.773.778 2.748a3.2 3.2 0 01-1.522 2.196 3.27 3.27 0 01-3.091.116 3.133 3.133 0 01-1.624-1.896c-.429-1.296.075-2.823 1.194-3.608a3.277 3.277 0 011.652-.593zM121.729 19.15c2.654 0 5.309-.007 7.963 0-1.474 2.36-2.968 4.72-4.449 7.072-2.613 0-5.219.007-7.833 0 1.42-2.373 2.893-4.713 4.319-7.072zm-82.34 13.47c-1.316 2.14-2.571 4.317-3.643 6.588-.71 1.541-1.371 3.116-1.671 4.794-.15.894-.205 1.903.32 2.687.499.723 1.454.887 2.28.86 1.569-.096 3.138-.587 4.4-1.535 1.085-.77 2.054-1.691 2.92-2.694 2.34-2.68 4.026-5.838 5.718-8.948-3.282-.416-6.182-2.632-7.771-5.49-.915 1.2-1.747 2.462-2.552 3.737zm62.533-10.633c-.805.245-1.528.71-2.23 1.16-1.092.709-2.027 1.63-2.928 2.57-1.474 1.59-2.79 3.315-4.053 5.075-1.514 2.148-2.954 4.35-4.264 6.629-.716 1.22-1.249 2.537-1.726 3.86-.464 1.378-.921 2.803-.853 4.27.02.51.205 1.07.675 1.343.512.26 1.12.26 1.658.102.915-.252 1.7-.811 2.416-1.418 1.617-1.419 2.927-3.145 4.066-4.965l9.661-16.45c.178-.294.212-.655.089-.976-.361-.948-1.535-1.548-2.511-1.2zm-52.96.007c.82-.157 1.76-.103 2.423.457.764.716 1.14 1.752 1.241 2.782.15 1.562-.184 3.137-.655 4.617-.293.84-.614 1.685-1.118 2.422-.185.327-.601.15-.901.15-1.808-.287-3.398-1.371-4.653-2.66a3.515 3.515 0 01-.99-3.063c.376-2.325 2.354-4.262 4.654-4.705zm-2.538-2.551c1.18-.443 2.443-.75 3.712-.648 1.754.13 3.282 1.357 4.087 2.878.867 1.705.812 3.703.457 5.531-.382 1.917-1.126 3.744-2.006 5.484 2.347-.055 4.783-.39 6.823-1.624 1.153-.675 1.986-1.745 2.94-2.66 2.157-2.168 4.374-4.303 6.83-6.13 1.42-1.051 2.92-2.013 4.565-2.681 1.297-.518 2.702-.853 4.1-.696 1.543.157 2.99.99 3.958 2.19.846 1.22.826 2.816.566 4.221-.348 1.705-1.132 3.342-2.333 4.61-.867.9-2.04 1.597-3.316 1.624-.512.034-1.05-.164-1.351-.594-.403-.566-.403-1.316-.287-1.977.171-.86.717-1.576 1.235-2.265.587-.73 1.276-1.425 2.157-1.787.716-.3 1.555-.218 2.23.157.13-.743.226-1.561-.129-2.257-.266-.546-.894-.825-1.48-.819-.84-.006-1.7.178-2.43.6-2.517 1.378-4.564 3.465-6.352 5.682-2.92 3.669-5.199 7.802-7.123 12.065-.423.995-.928 1.964-1.14 3.035-.19.954-.286 1.95-.081 2.912.198 1.002.791 1.95 1.699 2.455 1.303.736 2.94.6 4.264-.02 2.586-1.283 4.899-3.07 6.925-5.116 3.391-3.43 6.025-7.495 8.816-11.403 2.667-3.717 5.52-7.407 9.217-10.169 2.272-1.657 4.892-3.082 7.758-3.212a6.613 6.613 0 015.349 2.353c.437-.689.833-1.398 1.249-2.1 2.613-.007 5.226-.007 7.84 0-4.736 8.238-9.505 16.456-14.254 24.688-.361.553-.634 1.221-.511 1.89a.867.867 0 00.743.736c.915.123 1.774-.327 2.518-.805 1.453-.968 2.688-2.216 3.889-3.471 1.583-1.678 3.064-3.444 4.565-5.19.6 0 1.2-.007 1.808 0-2.034 3.226-4.422 6.22-7.035 8.982-2.654 2.742-5.554 5.326-8.965 7.086-1.112.552-2.286 1.016-3.514 1.241-.757.143-1.603.034-2.21-.464-.71-.58-1.03-1.5-1.167-2.38a8.647 8.647 0 01.41-3.887c-1.625 1.589-3.2 3.246-5.03 4.603-1.269.928-2.688 1.733-4.257 1.999a6.42 6.42 0 01-3.643-.437c-.799-.348-1.501-.934-1.91-1.712-.622-1.152-.629-2.51-.506-3.785.178-1.596.635-3.15 1.071-4.692-1.828 1.937-3.69 3.846-5.717 5.579-2.108 1.793-4.449 3.369-7.048 4.358a17.152 17.152 0 01-3.814.982c-1.952.245-3.999-.41-5.411-1.773-2.047-1.896-2.9-4.87-2.45-7.591.56-2.926 1.631-5.75 3.214-8.28a60.452 60.452 0 012.006-3.062c-.75.402-1.603.552-2.436.682a21.45 21.45 0 01-3.684.225c-1.876 3.11-3.739 6.234-5.854 9.194-2.081 2.878-4.408 5.64-7.294 7.747-2.163 1.569-4.715 2.715-7.416 2.83-.922.076-1.904.007-2.695-.518-1.365-.873-2.109-2.441-2.443-3.983-.355-1.664-.273-3.403.13-5.053.422-1.603 1.01-3.158 1.63-4.7 1.658-4.003 3.855-7.781 6.564-11.164 2.306-2.864 4.974-5.477 8.071-7.482 1.242-.798 2.532-1.507 3.896-2.032zM43.102 1.806c2.524-.539 5.192-.648 7.69.082a4.301 4.301 0 012.483 1.882c.852 1.426.989 3.172.716 4.781a8.795 8.795 0 01-2.204 4.556c-.607.703-1.255 1.398-2.101 1.821a3.286 3.286 0 01-2.784.075c-.682-.314-1.078-1.05-1.119-1.78-.136-1.575.696-3.055 1.767-4.147 1.146-1.145 2.743-1.725 4.326-1.91.327-.027.757-.129.819-.518.054-.477-.26-.893-.567-1.22-.948-.983-2.388-1.433-3.732-1.249-1.57.219-3.097.717-4.51 1.44-1.91.975-3.589 2.325-5.24 3.676-9.231 7.413-16.655 16.961-22.093 27.45-1.767 3.465-3.48 6.998-4.42 10.79-.622 2.49-.895 5.081-.594 7.632a16.944 16.944 0 001.93 6.104 12.54 12.54 0 003.842 4.249c2.913 2.025 6.509 2.837 10.016 2.912 2.436.068 4.858-.32 7.26-.689 7.205-1.18 14.212-3.253 21.267-5.074 6.386-1.65 12.875-3.09 19.48-3.417a51.778 51.778 0 019.64.368c4.803.641 9.586 1.658 14.103 3.451 4.367 1.712 8.474 4.208 11.742 7.598-3.868-1.685-7.873-3.158-12.049-3.84-2.811-.45-5.724-.532-8.501.177a13.629 13.629 0 00-5.186 2.578c-.9.71-1.685 1.549-2.436 2.415-1.139-2.312-3.213-4.051-5.547-5.088-3.097-1.391-6.509-1.828-9.859-2.121-4.005-.314-8.044-.096-12.001.539-7.076 1.111-13.865 3.45-20.845 4.985-4.12.92-8.324 1.61-12.554 1.562-4.469-.034-9.047-.716-13.052-2.81-2.757-1.419-5.124-3.642-6.543-6.418C1.352 60.93.833 59.04.458 57.144c-.894-4.637-.41-9.473.996-13.96 1.222-3.976 3.118-7.72 5.329-11.24 2.21-3.505 4.756-6.8 7.478-9.923a87.086 87.086 0 018.208-8.28c3.22-2.823 6.639-5.429 10.323-7.625 3.214-1.896 6.646-3.512 10.31-4.31zm127.575 7.12c-1.658 1.146-3.179 2.476-4.598 3.895-1.413 1.466-2.777 3-3.855 4.74-1.01 1.616-1.727 3.396-2.341 5.197-.341.988-.436 2.073-.198 3.096.205.893.703 1.807 1.563 2.216.832.416 1.788.157 2.593-.197 2.169-.955 3.943-2.599 5.499-4.345 2.545-2.94 4.483-6.418 5.561-10.162.621-2.244.948-4.61.655-6.929-1.754.546-3.371 1.453-4.879 2.49zm-12.936-4.644c-3.76 1.732-7.301 3.915-10.658 6.329-3.397 2.462-6.625 5.17-9.572 8.157a79.573 79.573 0 00-7.246 8.416c-2.641 3.526-4.981 7.27-7.137 11.11-.989 1.787-2.02 3.56-2.845 5.428-1.699 3.888-2.77 8.069-2.975 12.304-.089 2.373.082 4.788.812 7.066.45 1.425 1.126 2.782 2.054 3.948 1.173 1.501 2.79 2.64 4.571 3.315 1.992.764 4.148 1.01 6.277.989 2.313-.034 4.606-.47 6.803-1.18 3.752-1.234 7.218-3.287 10.234-5.824 3.05-2.578 5.67-5.668 7.649-9.14 2.094-3.689 3.466-7.87 3.425-12.146-.055-1.214-.082-2.462-.573-3.594-.546-1.357-1.781-2.367-3.187-2.728-2.176-.58-4.482-.157-6.563.593-1.733.641-3.391 1.562-4.77 2.796-1.2 1.119-2.258 2.38-3.213 3.718a38.119 38.119 0 00-3.227 5.271c-.949 1.951-1.768 4.01-2.041 6.18-.102.947-.156 1.936.089 2.87 2.538-3.396 6.189-5.953 10.262-7.14.252-2.714.873-5.477 2.367-7.802.99-1.555 2.443-2.858 4.21-3.444 1.085-.307 2.286-.375 3.344.061.702.28 1.234.934 1.344 1.685.218 1.5.191 3.041-.021 4.542-.546 3.642-2.19 7.038-4.332 10.005-2.484 3.417-5.643 6.336-9.184 8.634-1.542 1.057-3.33 1.719-5.151 2.094-2.006.396-4.176.477-6.1-.334a5.168 5.168 0 01-2.934-3.178c-1.105-3.622-1.18-7.523-.389-11.213.778-3.744 2.34-7.277 4.183-10.605 1.992-3.594 4.332-6.977 6.652-10.353 2.176-3.212 4.394-6.41 6.871-9.398 2.64-3.212 5.526-6.227 8.699-8.914a58.971 58.971 0 0110.296-7.011c1.549-.818 3.179-1.575 4.94-1.773a5.678 5.678 0 013.227.56c-3.309 1.704-6.509 3.702-9.177 6.314-1.249 1.187-2.252 2.599-3.261 3.983-1.249 1.753-2.395 3.595-3.214 5.593-.655 1.623-1.092 3.383-.88 5.142.109 1.098.368 2.217.996 3.144.648.969 1.726 1.603 2.866 1.8.962.15 1.958-.033 2.845-.429 4.749-2.36 8.569-6.431 10.869-11.178 2.04-4.153 2.934-8.86 2.599-13.477 1.658-.361 3.384-.49 5.063-.204 2.122.457 4.094 1.391 6.045 2.326a140.81 140.81 0 015.527 2.85c3.718 2.026 7.396 4.133 10.985 6.377 2.081-2.162 4.196-4.283 6.263-6.459-2.559-1.602-5.138-3.178-7.819-4.562-3.882-2.026-8.003-3.642-12.295-4.57-5.206-.648-10.528.294-15.352 2.312-.675-1.152-1.917-1.834-3.172-2.196-.819-.259-1.686-.238-2.532-.266-4.353.048-8.597 1.405-12.547 3.206zm11.203 46.52a56.332 56.332 0 013.112-4.686c1.589 2.865 4.482 5.088 7.784 5.497-1.719 3.172-3.452 6.39-5.86 9.112-1.119 1.234-2.368 2.387-3.835 3.192a8.56 8.56 0 01-3.452.88c-.71 0-1.501-.116-2.006-.662-.567-.614-.642-1.52-.567-2.319.191-1.732.853-3.362 1.556-4.944.942-2.094 2.074-4.1 3.268-6.07zm9.818-11.499c.874-.218 1.897-.245 2.648.32.907.771 1.282 1.979 1.351 3.131.068 1.37-.191 2.735-.587 4.044-.314.948-.648 1.917-1.221 2.749-.096.177-.314.164-.478.157-1.051-.055-2.061-.464-2.954-1.003-.88-.539-1.699-1.2-2.368-1.984-.696-.832-.914-1.999-.675-3.042.47-2.1 2.21-3.84 4.284-4.372zm47.891-.32c.737-.253 1.535.095 2.074.607.43.43.559 1.138.232 1.664-3.159 5.408-6.339 10.803-9.504 16.204a25.221 25.221 0 01-2.914 3.929c-.9.948-1.862 1.882-3.056 2.434-.717.341-1.604.471-2.327.076-.635-.307-.955-1.01-.983-1.685-.054-1.16.328-2.278.737-3.342.771-1.903 1.747-3.724 2.825-5.47 2.013-3.28 4.162-6.486 6.632-9.446 1.105-1.302 2.265-2.578 3.657-3.58.819-.546 1.665-1.105 2.627-1.391zm3.48-38.139c.716-.04 1.48-.047 2.149.266.716.43.996 1.283 1.132 2.053.273 1.774-.082 3.608-.839 5.225a7.592 7.592 0 01-1.064 1.643c-.15.218-.444.178-.669.246-.566.136-1.16.17-1.74.136 1.133-1.255 2.068-2.762 2.347-4.447.144-.832.021-1.766-.545-2.428-.294-.354-.799-.382-1.215-.313-.662.13-1.262.443-1.835.777-1.549.928-2.811 2.224-4.128 3.438-5.998 5.687-11.265 12.126-15.795 19.028-3.992 6.07-7.424 12.494-10.419 19.103 1.685-1.221 3.452-2.333 5.131-3.567 3.275-2.414 6.161-5.3 9.163-8.034.457-.41.914-.812 1.303-1.29 2.716-3.061 5.411-6.144 7.983-9.322.703-.887 1.419-1.767 2.006-2.735.628-.007 1.255-.055 1.883-.082-4.025 6.65-9.245 12.515-15.017 17.705-4.346 3.908-9.013 7.448-13.864 10.708-.178.13-.417.218-.478.443-.88 2.291-1.829 4.563-2.504 6.93-.635 2.216-1.037 4.535-.853 6.84.048.463.321.914.744 1.125.805.402 1.781.245 2.579-.11 1.521-.729 2.784-1.895 3.909-3.136 1.304-1.44 2.443-3.022 3.596-4.584 2.388-3.184 4.612-6.485 7.062-9.623 2.19-2.782 4.53-5.51 7.389-7.638 1.876-1.378 3.951-2.558 6.243-3.062 1.665-.369 3.487-.246 5.001.593.737.402 1.379.955 1.945 1.569.403-.703.805-1.405 1.214-2.108 2.614.007 5.234 0 7.847 0-4.824 8.362-9.648 16.716-14.478 25.078-.26.47-.403 1.043-.273 1.575a.88.88 0 00.832.682c1.051.075 2.02-.45 2.872-1.002 1.686-1.146 3.119-2.613 4.47-4.127 1.241-1.39 2.401-2.857 3.52-4.35h1.829c-2.061 3.26-4.469 6.294-7.13 9.084-2.402 2.475-5.002 4.794-8.004 6.52-1.132.634-2.313 1.186-3.568 1.52-.798.219-1.678.382-2.47.041-.907-.368-1.412-1.309-1.624-2.216-.327-1.453-.17-2.994.307-4.4-1.453 1.447-2.879 2.927-4.482 4.202-1.222.969-2.566 1.835-4.087 2.25-.935.26-1.931.342-2.887.158-1.098-.191-2.197-.641-2.927-1.508-.791-.907-1.03-2.155-1.016-3.328.027-1.95.573-3.84 1.119-5.702-.143.26-.273.532-.471.758-1.474 1.636-2.818 3.396-4.312 5.02-1.324 1.445-2.77 2.836-4.51 3.778-1.399.75-3.07 1.077-4.619.647-1.795-.497-3.48-1.67-4.278-3.396-.805-1.732-.764-3.717-.471-5.565.573-3.465 1.999-6.704 3.132-10.005-1.426.45-2.968.409-4.435.266-2.238 3.635-4.408 7.338-7.048 10.707-2.074 2.633-4.428 5.122-7.321 6.868-2.075 1.248-4.476 2.019-6.919 1.957a3.547 3.547 0 01-2.367-.913c-1.256-1.119-1.849-2.79-2.061-4.42-.266-1.978.102-3.983.757-5.852a46.783 46.783 0 015.657-11.457c2.115-3.097 4.598-5.961 7.505-8.348 1.59-1.303 3.302-2.455 5.151-3.349 1.167-.566 2.402-1.03 3.691-1.2.922-.089 1.884-.075 2.75.3 1.542.668 2.722 2.08 3.139 3.703.457 1.774.232 3.649-.232 5.395-.423 1.569-1.051 3.076-1.788 4.522 1.14.061 2.313.082 3.405-.3.266-.123.6-.219.75-.498 3.691-7.666 7.69-15.21 12.439-22.282 4.516-6.717 9.736-13.033 15.945-18.264 2.879-2.441 6.031-4.576 9.443-6.206 1.726-.778 3.514-1.494 5.404-1.692zm18.981-.28c-3.241 4.55-8.044 7.85-13.264 9.747-4.844 1.773-10.064 2.42-15.201 2.223-2.047 2.449-4.108 4.89-6.155 7.339 6.202 0 12.486-.962 18.17-3.52a34.833 34.833 0 009.211-6.029c3.091-2.796 5.67-6.097 7.949-9.575.109-.211.272-.498.109-.716-.369-.177-.669.259-.819.532z" fill="#fff"/></g><defs><clipPath id="clip0_48_190"><path fill="#fff" d="M0 0h250v72H0z"/></clipPath></defs></svg>