<svg width="180" height="84" fill="none" xmlns="http://www.w3.org/2000/svg"><path d="M63.823 67.096h-.748v2.723h-.804v-6.052h.804v2.666h.621l2.116-2.666h.988L64.486 66.7l2.483 3.118h-.973l-2.173-2.723zm13.389-3.329v6.052h-.805v-5.404h-2.172l-.113 2.399c-.042.804-.127 1.41-.254 1.82-.127.409-.31.705-.536.888-.24.184-.564.283-.96.297h-.267v-.65l.169-.013c.254-.014.451-.099.592-.254.141-.155.24-.381.31-.706.071-.324.128-.818.156-1.495l.127-2.934h3.752zm10.157 0h.804v6.052h-.804v-4.67l-2.977 4.67h-.804v-6.052h.804v4.67l2.977-4.67zm11.822 6.052h-.804V67.01h-3.061v2.808h-.804v-6.052h.804v2.61h3.061v-2.61h.804v6.052zm10.144-6.052h.804v6.052h-.804v-4.67l-2.977 4.67h-.804v-6.052h.804v4.67l2.977-4.67zm8.718 3.329h-.733v2.723h-.804v-6.052h.804v2.666h.621l2.116-2.666h.987l-2.313 2.934 2.482 3.118h-.973l-2.187-2.723zm12.161 1.143h-2.539l-.565 1.58h-.818l2.314-6.052h.705l2.314 6.052h-.819l-.592-1.58zm-2.3-.663h2.06l-1.03-2.836-1.03 2.836zM66.828 77.761v6.052h-.804V78.41h-2.172l-.113 2.398c-.043.805-.127 1.411-.254 1.82-.127.41-.31.706-.536.89-.24.183-.565.281-.96.295h-.268v-.648l.17-.015c.253-.014.45-.098.592-.254.141-.155.24-.38.31-.705.07-.324.127-.818.156-1.495l.127-2.935h3.752zm10.031 3.259h-2.624v2.145h3.047v.648h-3.851v-6.052h3.809v.65h-3.005v1.946h2.624v.663zm10.961-3.258v6.052h-.804v-2.511a5.16 5.16 0 01-.79.169c-.24.028-.507.042-.818.042-.691 0-1.199-.155-1.538-.451-.338-.296-.508-.762-.522-1.383v-1.947h.805v1.919c0 .423.098.72.296.917.183.183.508.282.96.282.521 0 1.057-.07 1.607-.225v-2.893h.804v.029zm10.03 3.258h-2.623v2.145h3.047v.648h-3.851v-6.052h3.809v.65h-3.005v1.946h2.624v.663zm11.231 2.793h-.804v-2.807h-3.062v2.807h-.804v-6.052h.804v2.61h3.062v-2.61h.804v6.052zm10.397-6.052h.804v6.052h-.804v-4.67l-2.977 4.67h-.804v-6.052h.804v4.67l2.977-4.67zm10.581 6.052v-2.356h-1.397l-1.255 2.356h-.847l1.411-2.581c-.776-.31-1.171-.86-1.171-1.65 0-.58.183-1.03.564-1.341.381-.325.903-.48 1.58-.48h1.933v6.052h-.818zm-2.469-4.232c0 .367.113.663.339.889.225.226.55.338.959.338h1.171V78.41h-1.129c-.437 0-.762.099-.987.31-.24.212-.353.494-.353.861zm18.848-1.171h-2.92v1.82h1.509c.635.014 1.129.17 1.481.494.353.31.536.748.536 1.284 0 .55-.183.987-.536 1.312-.352.324-.846.494-1.467.508h-2.328v-6.053h3.725v.635zm-2.935 2.47v2.285h1.468c.395 0 .705-.1.931-.31.225-.212.324-.495.324-.847 0-.339-.113-.607-.324-.804-.212-.198-.508-.297-.903-.31l-1.496-.015zm14.165.098c0 .593-.099 1.114-.297 1.552a2.313 2.313 0 01-.846 1.016c-.367.24-.79.352-1.284.352-.479 0-.903-.113-1.27-.352a2.41 2.41 0 01-.86-1.002 3.594 3.594 0 01-.31-1.51v-.437c0-.578.098-1.1.31-1.538a2.31 2.31 0 01.86-1.03c.367-.24.791-.352 1.27-.352.48 0 .917.113 1.284.352.367.24.649.579.861 1.016.197.452.296.96.296 1.552l-.014.381zm-.79-.381c0-.72-.141-1.27-.438-1.65-.282-.382-.691-.579-1.213-.579-.508 0-.903.198-1.185.578-.296.381-.437.917-.451 1.595v.451c0 .691.141 1.242.437 1.636.296.396.691.593 1.213.593.522 0 .917-.183 1.199-.564.282-.381.424-.917.438-1.623v-.437zm11.342-2.836v6.052h-.804V78.41h-2.172l-.113 2.398c-.043.805-.127 1.411-.254 1.82-.127.41-.311.706-.536.89-.24.183-.565.281-.96.295h-.268v-.648l.17-.015c.254-.014.451-.098.592-.254.141-.155.24-.38.31-.705.071-.324.127-.818.156-1.495l.127-2.935h3.752zm10.172 0h.804v6.052h-.804v-4.67l-2.977 4.67h-.804v-6.052h.804v4.67l2.977-4.67zM47.444 0h-.804v33.9h.804V0zm0 49.983h-.804v33.901h.804v-33.9zm-.409-6.954a1.41 1.41 0 100-2.822 1.41 1.41 0 000 2.822zM2.878 33.915l5.516 13.12 5.516-13.12h2.892v16.082h-2.229v-6.264l.212-6.757L9.24 49.997H7.534l-5.53-12.979.225 6.73v6.263H0V33.93h2.878v-.014zM32.73 49.983h-2.229V33.9h2.229v16.083zm41.123-5.093c-.211 1.707-.86 3.02-1.975 3.937-1.114.916-2.581 1.382-4.43 1.382-1.989 0-3.597-.677-4.796-2.046-1.2-1.354-1.806-3.188-1.806-5.46v-1.551c0-1.495.282-2.808.847-3.936.564-1.129 1.354-2.003 2.384-2.61 1.03-.607 2.215-.917 3.57-.917 1.79 0 3.23.48 4.316 1.425 1.086.96 1.707 2.271 1.89 3.964H71.61c-.197-1.284-.606-2.215-1.255-2.793-.65-.579-1.552-.86-2.709-.86-1.425 0-2.54.507-3.343 1.509-.805 1.001-1.214 2.426-1.214 4.274v1.552c0 1.75.381 3.132 1.143 4.162.762 1.03 1.834 1.552 3.217 1.552 1.241 0 2.186-.268 2.85-.804.662-.536 1.1-1.468 1.311-2.794h2.243v.015zm14.899 3.372h7.999v1.735H86.508V33.915h2.244v14.347zm22.544 1.721h-2.229V33.9h2.229v16.083zm26.649 0h-2.243l-8.493-12.386v12.386h-2.243V33.9h2.243l8.521 12.443V33.9h2.215v16.083zm15.956 0h-2.229V33.9h2.229v16.083zM180 44.89c-.211 1.707-.86 3.02-1.975 3.937-1.114.916-2.582 1.382-4.43 1.382-1.989 0-3.597-.677-4.796-2.046-1.199-1.354-1.806-3.188-1.806-5.46v-1.551c0-1.495.282-2.808.846-3.936.565-1.129 1.355-2.003 2.385-2.61 1.029-.607 2.214-.917 3.569-.917 1.791 0 3.23.48 4.317 1.425 1.086.96 1.707 2.271 1.89 3.964h-2.243c-.197-1.284-.607-2.215-1.256-2.793-.648-.579-1.551-.86-2.708-.86-1.425 0-2.54.507-3.344 1.509-.804 1.001-1.213 2.426-1.213 4.274v1.552c0 1.75.381 3.132 1.143 4.162.762 1.03 1.834 1.552 3.216 1.552 1.242 0 2.187-.268 2.85-.804.663-.536 1.1-1.468 1.312-2.794H180v.015z" fill="#fff"/></svg>