<svg width="180" height="84" fill="none" xmlns="http://www.w3.org/2000/svg"><path d="M63.823 67.147h-.748v2.723h-.804v-6.052h.804v2.666h.621l2.116-2.666h.988l-2.314 2.934 2.483 3.118h-.973l-2.173-2.723zm13.389-3.329v6.052h-.805v-5.404h-2.172l-.113 2.399c-.042.804-.127 1.41-.254 1.82-.127.409-.31.705-.536.888-.24.184-.564.283-.96.297h-.267v-.65l.169-.013c.254-.014.451-.1.592-.254.141-.155.24-.381.31-.706.071-.324.128-.818.156-1.495l.127-2.934h3.752zm10.157 0h.804v6.052h-.804V65.2l-2.977 4.67h-.804v-6.052h.804v4.67l2.977-4.67zm11.822 6.052h-.804v-2.808h-3.061v2.808h-.804v-6.052h.804v2.61h3.061v-2.61h.804v6.052zm10.144-6.052h.804v6.052h-.804V65.2l-2.977 4.67h-.804v-6.052h.804v4.67l2.977-4.67zm8.718 3.329h-.733v2.723h-.804v-6.052h.804v2.666h.621l2.116-2.666h.987l-2.313 2.934 2.482 3.118h-.973l-2.187-2.723zm12.161 1.143h-2.539l-.565 1.58h-.818l2.314-6.052h.705l2.314 6.052h-.819l-.592-1.58zm-2.3-.663h2.06l-1.03-2.836-1.03 2.836zM66.828 77.812v6.053h-.804V78.46h-2.172l-.113 2.399c-.043.804-.127 1.41-.254 1.82-.127.409-.31.705-.536.888-.24.184-.565.282-.96.297h-.268v-.65l.17-.014c.253-.014.45-.098.592-.253.141-.156.24-.381.31-.706.07-.324.127-.818.156-1.495l.127-2.935h3.752zm10.031 3.259h-2.624v2.145h3.047v.649h-3.851v-6.053h3.809v.65h-3.005v1.946h2.624v.663zm10.961-3.259v6.053h-.804v-2.512c-.296.085-.55.142-.79.17-.24.028-.507.042-.818.042-.691 0-1.199-.155-1.538-.451-.338-.297-.508-.762-.522-1.383v-1.947h.805v1.919c0 .423.098.72.296.917.183.183.508.282.96.282a5.86 5.86 0 001.607-.226v-2.892h.804v.028zm10.03 3.259h-2.623v2.145h3.047v.649h-3.851v-6.053h3.809v.65h-3.005v1.946h2.624v.663zm11.231 2.794h-.804v-2.808h-3.062v2.808h-.804v-6.053h.804v2.61h3.062v-2.61h.804v6.053zm10.397-6.053h.804v6.053h-.804v-4.67l-2.977 4.67h-.804v-6.053h.804v4.67l2.977-4.67zm10.581 6.053v-2.356h-1.397l-1.255 2.356h-.847l1.411-2.582c-.776-.31-1.171-.86-1.171-1.65 0-.58.183-1.03.564-1.341.381-.324.903-.48 1.58-.48h1.933v6.053h-.818zm-2.469-4.233c0 .367.113.663.339.89.225.225.55.338.959.338h1.171v-2.4h-1.129c-.437 0-.762.1-.987.31-.24.212-.353.495-.353.861zm18.848-1.171h-2.92v1.82h1.509c.635.014 1.129.17 1.481.494.353.31.536.748.536 1.284 0 .55-.183.987-.536 1.312-.352.324-.846.494-1.467.508h-2.328v-6.053h3.725v.635zm-2.935 2.47v2.285h1.468c.395 0 .705-.1.931-.31.225-.212.324-.495.324-.847 0-.339-.113-.607-.324-.804-.212-.198-.508-.297-.903-.31l-1.496-.015zm14.165.098c0 .592-.099 1.114-.297 1.552a2.313 2.313 0 01-.846 1.016c-.367.24-.79.352-1.284.352-.479 0-.903-.113-1.27-.352a2.41 2.41 0 01-.86-1.002 3.594 3.594 0 01-.31-1.51v-.437c0-.578.098-1.1.31-1.538.197-.451.494-.79.86-1.03.367-.24.791-.352 1.27-.352.48 0 .917.113 1.284.352.367.24.649.579.861 1.016.197.452.296.96.296 1.552l-.014.38zm-.79-.381c0-.72-.141-1.27-.438-1.65-.282-.382-.691-.579-1.213-.579-.508 0-.903.198-1.185.578-.296.381-.437.917-.451 1.595v.451c0 .691.141 1.241.437 1.636.296.395.691.593 1.213.593.522 0 .917-.183 1.199-.564.282-.381.424-.917.438-1.623v-.437zm11.342-2.836v6.053h-.804V78.46h-2.172l-.113 2.399c-.043.804-.127 1.41-.254 1.82-.127.409-.311.705-.536.888-.24.184-.565.282-.96.297h-.268v-.65l.17-.014c.254-.014.451-.098.592-.253.141-.156.24-.381.31-.706.071-.324.127-.818.156-1.495l.127-2.935h3.752zm10.172 0h.804v6.053h-.804v-4.67l-2.977 4.67h-.804v-6.053h.804v4.67l2.977-4.67z" fill="#919291"/><path d="M47.444.05h-.804v33.902h.804V.05zm0 49.984h-.804v33.901h.804v-33.9zm-.409-6.954a1.41 1.41 0 100-2.822 1.41 1.41 0 000 2.821z" fill="#000"/><path d="M2.878 33.966l5.516 13.12 5.516-13.12h2.892v16.082h-2.229v-6.263l.212-6.758L9.24 50.048H7.534L2.004 37.07l.225 6.73v6.264H0V33.98h2.878v-.014zM32.73 50.034h-2.229V33.952h2.229v16.082zm41.123-5.093c-.211 1.707-.86 3.02-1.975 3.936-1.114.917-2.581 1.383-4.43 1.383-1.989 0-3.597-.677-4.796-2.046-1.2-1.354-1.806-3.188-1.806-5.46v-1.551c0-1.495.282-2.808.847-3.936.564-1.129 1.354-2.003 2.384-2.61 1.03-.607 2.215-.917 3.57-.917 1.79 0 3.23.48 4.316 1.425 1.086.96 1.707 2.271 1.89 3.964H71.61c-.197-1.284-.606-2.215-1.255-2.793-.65-.579-1.552-.86-2.709-.86-1.425 0-2.54.507-3.343 1.509-.805 1.001-1.214 2.426-1.214 4.274v1.552c0 1.75.381 3.132 1.143 4.162.762 1.03 1.834 1.552 3.217 1.552 1.241 0 2.186-.268 2.85-.804.662-.536 1.1-1.467 1.311-2.794h2.243v.014zm14.899 3.372h7.999v1.735H86.508V33.966h2.244v14.347zm22.544 1.721h-2.229V33.952h2.229v16.082zm26.649 0h-2.243l-8.493-12.386v12.386h-2.243V33.952h2.243l8.521 12.443V33.95h2.215v16.083zm15.956 0h-2.229V33.952h2.229v16.082zM180 44.941c-.211 1.707-.86 3.02-1.975 3.936-1.114.917-2.582 1.383-4.43 1.383-1.989 0-3.597-.677-4.796-2.046-1.199-1.354-1.806-3.188-1.806-5.46v-1.551c0-1.495.282-2.808.846-3.936.565-1.129 1.355-2.003 2.385-2.61 1.029-.607 2.214-.917 3.569-.917 1.791 0 3.23.48 4.317 1.425 1.086.96 1.707 2.271 1.89 3.964h-2.243c-.197-1.284-.607-2.215-1.256-2.793-.648-.579-1.551-.86-2.708-.86-1.425 0-2.54.507-3.344 1.509-.804 1.001-1.213 2.426-1.213 4.274v1.552c0 1.75.381 3.132 1.143 4.162.762 1.03 1.834 1.552 3.216 1.552 1.242 0 2.187-.268 2.85-.804.663-.536 1.1-1.467 1.312-2.794H180v.014z" fill="#8EAEBA"/></svg>