<svg width="20" height="20" fill="none" xmlns="http://www.w3.org/2000/svg"><path fill-rule="evenodd" clip-rule="evenodd" d="M4.167 3.125c-.576 0-1.042.466-1.042 1.042 0 7.018 5.69 12.708 12.708 12.708.576 0 1.042-.466 1.042-1.042v-1.371c0-.426-.26-.81-.655-.967l-1.695-.678a1.042 1.042 0 00-1.319.5l-.147.296a.625.625 0 01-.682.333l.123-.613-.123.613h-.004l-.008-.002-.024-.006a6.358 6.358 0 01-.37-.097 8.73 8.73 0 01-.967-.35 8.622 8.622 0 01-2.696-1.8c-.905-.904-1.466-1.916-1.8-2.695a8.738 8.738 0 01-.427-1.256 3.947 3.947 0 01-.02-.081l-.005-.024-.001-.008v-.003h-.001l.613-.124-.613.123a.625.625 0 01.333-.682l.295-.148a1.04 1.04 0 00.501-1.318L6.505 3.78a1.042 1.042 0 00-.967-.655H4.167zm3.236 4.698a2.292 2.292 0 00.941-2.812l-.678-1.695a2.292 2.292 0 00-2.128-1.441H4.167a2.292 2.292 0 00-2.292 2.292c0 7.709 6.25 13.958 13.958 13.958a2.292 2.292 0 002.292-2.292v-1.371c0-.937-.57-1.78-1.44-2.128l-1.696-.678a2.292 2.292 0 00-2.812.941 7.665 7.665 0 01-.68-.255c-.68-.291-1.544-.773-2.305-1.534a7.382 7.382 0 01-1.534-2.304 7.674 7.674 0 01-.255-.681z" fill="#F9FAFB"/></svg>