<svg width="50" height="50" viewBox="0 0 50 50" fill="none" xmlns="http://www.w3.org/2000/svg">
<path d="M27.0833 4.16663V12.5C27.0833 17.1023 30.8143 20.8333 35.4167 20.8333L43.75 20.8333M6.25 12.5L6.25 37.5C6.25 42.1023 9.98096 45.8333 14.5833 45.8333H35.4167C40.019 45.8333 43.75 42.1023 43.75 37.5V24.2851C43.75 22.0749 42.872 19.9553 41.3092 18.3925L29.5241 6.6074C27.9613 5.0446 25.8417 4.16663 23.6316 4.16663L14.5833 4.16663C9.98096 4.16663 6.25 7.89759 6.25 12.5Z" stroke="#91ABB8" stroke-width="2" stroke-linejoin="round"/>
<path d="M13.4094 37.5V28.5522H16.3086C17.4072 28.5522 18.1234 28.597 18.457 28.6865C18.9697 28.8208 19.399 29.1138 19.7449 29.5654C20.0907 30.013 20.2637 30.5929 20.2637 31.3049C20.2637 31.8542 20.164 32.3161 19.9646 32.6904C19.7652 33.0648 19.5109 33.3598 19.2017 33.5754C18.8965 33.787 18.5852 33.9274 18.2678 33.9966C17.8365 34.082 17.2119 34.1248 16.394 34.1248H15.2161V37.5H13.4094ZM15.2161 30.0659V32.605H16.2048C16.9169 32.605 17.393 32.5582 17.6331 32.4646C17.8731 32.371 18.0603 32.2245 18.1946 32.0251C18.3329 31.8258 18.4021 31.5938 18.4021 31.3293C18.4021 31.0038 18.3065 30.7353 18.1152 30.5237C17.924 30.3121 17.6819 30.1799 17.3889 30.127C17.1733 30.0863 16.7399 30.0659 16.0889 30.0659H15.2161Z" fill="#91ABB8"/>
<path d="M21.7407 28.5522H25.0427C25.7874 28.5522 26.355 28.6092 26.7456 28.7231C27.2705 28.8778 27.7201 29.1524 28.0945 29.5471C28.4688 29.9418 28.7537 30.426 28.949 30.9998C29.1443 31.5694 29.2419 32.2734 29.2419 33.1116C29.2419 33.8481 29.1504 34.4828 28.9673 35.0159C28.7435 35.6669 28.4241 36.1938 28.009 36.5967C27.6957 36.9019 27.2725 37.1399 26.7395 37.3108C26.3407 37.4369 25.8077 37.5 25.1404 37.5H21.7407V28.5522ZM23.5474 30.0659V35.9924H24.8962C25.4008 35.9924 25.765 35.9639 25.9888 35.907C26.2817 35.8337 26.5238 35.7096 26.7151 35.5347C26.9104 35.3597 27.0691 35.0728 27.1912 34.6741C27.3132 34.2712 27.3743 33.724 27.3743 33.0322C27.3743 32.3405 27.3132 31.8095 27.1912 31.4392C27.0691 31.0689 26.8982 30.78 26.6785 30.5725C26.4587 30.365 26.18 30.2246 25.8423 30.1514C25.59 30.0944 25.0956 30.0659 24.3591 30.0659H23.5474Z" fill="#91ABB8"/>
<path d="M30.7922 37.5V28.5522H36.9263V30.0659H32.5989V32.1838H36.3342V33.6975H32.5989V37.5H30.7922Z" fill="#91ABB8"/>
</svg>
