<svg width="60" height="60" viewBox="0 0 60 60" fill="none" xmlns="http://www.w3.org/2000/svg">
<circle cx="30" cy="30" r="29" stroke="#8EAEBA" stroke-width="2"/>
<path d="M20.6224 29.8446C20.1902 29.5008 19.5611 29.5726 19.2173 30.0048C18.8736 30.4371 18.9453 31.0662 19.3776 31.4099L20.6224 29.8446ZM25.8427 35.2738L26.4652 34.4911L25.8427 35.2738ZM30.4336 34.8683L31.1843 35.5291L30.4336 34.8683ZM40.7506 24.6607C41.1155 24.2461 41.0753 23.6143 40.6607 23.2494C40.2461 22.8845 39.6143 22.9247 39.2494 23.3393L40.7506 24.6607ZM35.2168 29.4342L34.4662 28.7735V28.7735L35.2168 29.4342ZM19.3776 31.4099L25.2203 36.0565L26.4652 34.4911L20.6224 29.8446L19.3776 31.4099ZM25.2203 36.0565C27.0296 37.4954 29.6569 37.2643 31.1843 35.5291L29.683 34.2076C28.861 35.1415 27.4417 35.2678 26.4652 34.4911L25.2203 36.0565ZM31.1843 35.5291L35.9675 30.0949L34.4662 28.7735L29.683 34.2076L31.1843 35.5291ZM35.9675 30.0949L40.7506 24.6607L39.2494 23.3393L34.4662 28.7735L35.9675 30.0949Z" fill="#8EAEBA"/>
</svg>
