<svg width="45" height="45" viewBox="0 0 45 45" fill="none" xmlns="http://www.w3.org/2000/svg">
<path d="M15 19.875C14.5858 19.875 14.25 20.2108 14.25 20.625C14.25 21.0392 14.5858 21.375 15 21.375V19.875ZM22.5 21.375C22.9142 21.375 23.25 21.0392 23.25 20.625C23.25 20.2108 22.9142 19.875 22.5 19.875V21.375ZM15 21.375H22.5V19.875H15V21.375Z" fill="#8EAEBA"/>
<path d="M15 29.25C14.5858 29.25 14.25 29.5858 14.25 30C14.25 30.4142 14.5858 30.75 15 30.75V29.25ZM30 30.75C30.4142 30.75 30.75 30.4142 30.75 30C30.75 29.5858 30.4142 29.25 30 29.25V30.75ZM15 30.75H30V29.25H15V30.75Z" fill="#8EAEBA"/>
<path d="M39.375 16.875V37.25C39.375 39.4591 37.5841 41.25 35.375 41.25H9.625C7.41586 41.25 5.625 39.4591 5.625 37.25V7.75C5.625 5.54086 7.41586 3.75 9.625 3.75H26.25M39.375 16.875L26.25 3.75M39.375 16.875H30.25C28.0409 16.875 26.25 15.0841 26.25 12.875V3.75" stroke="#8EAEBA" stroke-width="1.5" stroke-linejoin="round"/>
</svg>
