<svg width="250" height="79" viewBox="0 0 250 79" fill="none" xmlns="http://www.w3.org/2000/svg">
<g clip-path="url(#clip0_48_204)">
<path fill-rule="evenodd" clip-rule="evenodd" d="M57.1925 0.00515812C57.3496 -0.0264935 57.4895 0.107417 57.4723 0.265675C57.4797 1.89695 58.0761 3.52092 59.1439 4.76508C60.4375 6.3087 62.4282 7.24364 64.4532 7.25095C64.7502 7.17303 64.8239 7.68676 64.5195 7.68433C63.14 7.68189 61.7679 8.0958 60.6216 8.85787C58.7438 10.0923 57.5263 12.2543 57.4797 14.4919C57.4698 14.6282 57.5017 14.8473 57.3201 14.8814C57.1728 14.9399 57.0182 14.7938 57.0329 14.6477C57.0378 13.0481 56.4561 11.4582 55.4325 10.2238C54.1512 8.65579 52.1531 7.66972 50.1109 7.66972C50.0029 7.67216 49.8753 7.65998 49.8213 7.55285C49.7231 7.41164 49.8581 7.19251 50.0324 7.22903C51.591 7.21929 53.1399 6.68365 54.3549 5.71462C56.0142 4.42421 57.0305 2.36442 57.0305 0.27298C57.0182 0.156112 57.0697 0.0319403 57.1925 0.00515812ZM20.8421 5.1522C22.5112 5.15463 24.1804 5.1522 25.847 5.1522C30.6949 17.6716 35.5354 30.1911 40.3784 42.7081C38.7902 42.7105 37.2021 42.7081 35.6139 42.7081C34.448 39.706 33.287 36.7016 32.1259 33.6995C26.2741 33.6971 20.4199 33.6995 14.5681 33.6995C13.4071 36.704 12.2436 39.706 11.0801 42.7105C9.49194 42.7105 7.90381 42.7129 6.31567 42.7081C11.1562 30.1886 15.9991 17.6692 20.8421 5.1522ZM16.4851 28.7448C21.0605 28.7473 25.6335 28.7424 30.2064 28.7473C27.9261 22.8309 25.6359 16.9169 23.3482 11.0029C21.0556 16.912 18.7728 22.8284 16.4851 28.7448ZM43.1619 5.17411C44.7819 5.17168 46.402 5.17411 48.022 5.17411C48.022 17.6862 48.022 30.1984 48.022 42.7105C46.402 42.7056 44.7795 42.7178 43.157 42.7056C43.1668 30.1935 43.1619 17.6838 43.1619 5.17411ZM54.8213 15.9113C56.4413 15.9089 58.0614 15.9113 59.6814 15.9113C59.6814 24.8444 59.6839 33.7774 59.6814 42.7081C58.0614 42.7105 56.4413 42.7105 54.8213 42.7081C54.8213 33.7774 54.8213 24.8444 54.8213 15.9113Z" fill="#CECECE"/>
<path fill-rule="evenodd" clip-rule="evenodd" d="M66.5593 5.17393C74.041 5.1715 81.5226 5.17393 89.0068 5.17393C89.0068 6.81495 89.0068 8.45353 89.0068 10.0921C83.1844 10.0921 77.3621 10.0921 71.5397 10.0921C71.5397 13.8879 71.5397 17.6861 71.5397 21.4843C76.719 21.4843 81.8958 21.4843 87.0725 21.4843C87.0725 23.0401 87.0725 24.5959 87.0725 26.1541C81.8958 26.1541 76.719 26.1541 71.5422 26.1541C71.5422 30.0326 71.5422 33.9136 71.5422 37.7946C77.8235 37.797 84.1049 37.7946 90.3863 37.7946C90.3863 39.4332 90.3863 41.0717 90.3863 42.7127C82.4456 42.7127 74.5049 42.7152 66.5642 42.7127C66.5593 30.1957 66.5593 17.6836 66.5593 5.17393ZM242.474 12.3369C243.346 12.3369 244.217 12.3369 245.091 12.3369C245.088 12.5025 245.088 12.6705 245.088 12.8361C244.752 12.8361 244.416 12.8361 244.084 12.8361C244.082 13.8148 244.082 14.7936 244.082 15.7748C243.886 15.7748 243.692 15.7748 243.5 15.7748C243.498 14.796 243.5 13.8173 243.5 12.8361C243.157 12.8336 242.815 12.8361 242.474 12.8361C242.472 12.6705 242.472 12.5049 242.474 12.3369ZM245.611 12.3369C245.876 12.3369 246.146 12.3369 246.416 12.3369C246.743 13.2354 247.047 14.1411 247.378 15.0395C247.71 14.1411 248.029 13.2378 248.36 12.3369C248.628 12.3369 248.9 12.3369 249.173 12.3369C249.175 13.4837 249.17 14.628 249.175 15.7748C248.984 15.7772 248.797 15.7772 248.613 15.7772C248.613 14.8277 248.601 13.8757 248.645 12.9261C248.314 13.8806 247.958 14.8277 247.614 15.7772C247.437 15.7797 247.263 15.7772 247.086 15.7699C246.772 14.8398 246.443 13.9146 246.117 12.9894C246.139 13.9171 246.134 14.8472 246.134 15.7772C245.957 15.7772 245.783 15.7772 245.611 15.7772C245.611 14.6305 245.611 13.4837 245.611 12.3369ZM166.467 14.9786C167.022 14.9056 167.581 14.8983 168.141 14.8739C168.141 16.4857 168.139 18.0975 168.141 19.7093C165.765 19.7166 163.401 20.6321 161.673 22.2536C160.043 23.751 158.968 25.8327 158.703 28.0215C158.595 28.808 158.639 29.6017 158.632 30.393C158.632 34.4979 158.632 38.6029 158.632 42.7079C157.012 42.7103 155.392 42.7079 153.772 42.7079C153.769 33.6969 153.772 24.6884 153.772 15.6774C155.392 15.6774 157.012 15.6774 158.632 15.6774C158.632 16.6002 158.632 17.5205 158.632 18.4433C160.812 16.5442 163.58 15.3073 166.467 14.9786ZM132.809 15.2927C135.743 14.6572 138.877 14.9616 141.629 16.1546C144.221 17.2697 146.464 19.1639 147.989 21.5232C149.685 24.1113 150.473 27.2595 150.232 30.3345C150.033 33.0517 149.022 35.7056 147.355 37.87C145.718 40.0151 143.46 41.6877 140.917 42.6251C139.26 43.2362 137.488 43.5503 135.718 43.5138C132.174 43.2873 128.772 41.6536 126.329 39.1093C126.327 45.0087 126.329 50.9105 126.329 56.8099C124.709 56.8099 123.089 56.8099 121.469 56.8099C121.467 48.337 121.469 39.8641 121.469 31.3912C121.476 29.8281 121.405 28.2504 121.7 26.7068C122.205 23.8557 123.627 21.1775 125.696 19.1396C127.63 17.221 130.129 15.8624 132.809 15.2927ZM134.952 19.573C133.465 19.7191 132.014 20.2206 130.762 21.0265C128.654 22.3681 127.122 24.5715 126.626 27.0087C126.413 27.9704 126.415 28.9589 126.435 29.9377C126.472 31.0577 126.707 32.1728 127.142 33.21C128.109 35.5644 130.085 37.4829 132.478 38.3935C135.168 39.4429 138.34 39.1678 140.799 37.6582C143.062 36.3021 144.704 33.9696 145.183 31.3888C145.375 30.4295 145.362 29.4459 145.338 28.4744C145.242 26.3123 144.358 24.1941 142.883 22.5969C140.917 20.4251 137.881 19.2638 134.952 19.573ZM173.887 18.5358C177.196 15.5849 181.97 14.3091 186.315 15.3171C188.64 15.8503 190.802 17.0628 192.466 18.7598C194.543 20.8317 195.841 23.6487 196.08 26.5583C196.175 27.5297 196.097 28.5012 196.109 29.4726C196.109 30.169 196.116 30.8677 196.087 31.5641C188.735 31.5665 181.381 31.5616 174.03 31.5665C174.589 33.7456 175.92 35.7153 177.741 37.0544C179.832 38.6005 182.562 39.3139 185.142 38.8586C187.351 38.4787 189.391 37.2906 190.849 35.6106C192.056 36.5577 193.254 37.517 194.455 38.4739C192.164 41.1716 188.831 42.9733 185.296 43.392C182.719 43.7134 180.056 43.2995 177.687 42.2404C175.785 41.398 174.071 40.1368 172.699 38.5834C171.084 36.7622 169.945 34.5296 169.427 32.1582C168.833 29.4848 169.037 26.641 170.024 24.0821C170.836 21.9639 172.172 20.0405 173.887 18.5358ZM177.861 21.3236C175.895 22.6481 174.472 24.7322 173.956 27.0355C179.729 27.0355 185.5 27.0355 191.273 27.0355C191.138 25.5308 190.574 24.0651 189.651 22.8648C188.409 21.2213 186.504 20.0989 184.459 19.7824C182.169 19.4391 179.766 20.0283 177.861 21.3236ZM206.683 15.2026C208.333 14.9032 210.041 14.8715 211.683 15.2221C214.472 15.8016 216.998 17.4815 218.623 19.7994C217.413 20.6077 216.205 21.4258 214.99 22.2269C214.192 21.1142 213.083 20.2206 211.809 19.702C210.098 18.9911 208.129 18.974 206.384 19.5657C205.446 19.8895 204.563 20.4592 204.023 21.2992C203.596 21.942 203.438 22.7625 203.63 23.5124C203.836 24.2891 204.518 24.8174 205.184 25.2094C206.563 25.9739 208.114 26.3586 209.649 26.6824C210.999 26.9235 212.344 27.2181 213.647 27.649C214.855 28.0264 216.016 28.5913 216.998 29.3899C218.235 30.4051 219.079 31.8806 219.293 33.4632C219.504 35.0287 219.425 36.6722 218.831 38.1525C218.294 39.4258 217.386 40.541 216.259 41.3469C215.12 42.1625 213.802 42.7054 212.437 43.0268C211.035 43.3507 209.595 43.5235 208.159 43.4894C205.306 43.4042 202.491 42.4376 200.201 40.7528C199.342 40.1271 198.561 39.3991 197.862 38.6053C199.079 37.6436 200.316 36.7087 201.541 35.7567C203.242 38.1062 206.197 39.4818 209.104 39.2895C210.365 39.1994 211.652 38.9194 212.719 38.2207C213.399 37.7775 213.991 37.1518 214.271 36.3824C214.555 35.5449 214.555 34.5929 214.212 33.77C213.686 32.6938 212.594 32.0267 211.499 31.6176C210.012 31.099 208.448 30.8653 206.926 30.4782C205.451 30.0984 203.951 29.721 202.601 28.9979C200.93 28.1627 199.533 26.6459 199.165 24.7906C198.826 23.0693 198.932 21.1921 199.788 19.6241C200.37 18.5626 201.219 17.6471 202.233 16.9751C203.561 16.0767 205.1 15.4997 206.683 15.2026ZM227.248 16.14C226.09 16.6805 224.992 17.4012 224.17 18.3848C223.286 19.4026 222.707 20.6759 222.567 22.015C222.44 23.286 222.518 24.6105 223.004 25.8059C223.547 27.0647 224.546 28.1067 225.739 28.7812C227.054 29.5652 228.544 29.9864 230.019 30.3662C231.608 30.7923 233.245 31.0357 234.813 31.5397C235.92 31.922 237.027 32.5428 237.639 33.5727C238.024 34.2837 238.071 35.1358 237.923 35.9198C237.756 36.8109 237.153 37.5657 236.428 38.0892C235.344 38.8659 234.003 39.1824 232.688 39.2822C229.769 39.5013 226.782 38.133 225.081 35.764C224.958 35.837 224.84 35.9198 224.735 36.0099C223.623 36.8791 222.489 37.7215 221.387 38.6053C223.608 41.1618 226.774 42.8954 230.15 43.3531C231.563 43.5673 233.002 43.4992 234.411 43.3141C236.046 43.0877 237.67 42.6397 239.094 41.7924C240.162 41.1789 241.087 40.3194 241.755 39.2846C242.482 38.206 242.83 36.9156 242.906 35.6301C242.982 34.1546 242.842 32.6061 242.104 31.2963C241.47 30.1081 240.429 29.1732 239.251 28.528C237.95 27.8024 236.497 27.408 235.061 27.0598C234.067 26.8236 233.056 26.6849 232.067 26.4316C230.807 26.1127 229.536 25.7304 228.431 25.0341C227.896 24.6762 227.371 24.216 227.182 23.583C226.936 22.7381 227.15 21.7935 227.69 21.1044C228.259 20.3253 229.128 19.8189 230.037 19.5219C231.87 18.9375 233.937 19.013 235.68 19.8505C236.811 20.3789 237.796 21.214 238.522 22.2244C239.732 21.4112 240.957 20.6126 242.167 19.7921C241.495 18.8353 240.668 17.988 239.732 17.2819C237.636 15.6823 234.963 14.8666 232.322 14.9762C230.574 15.0322 228.831 15.4096 227.248 16.14ZM92.5169 15.7383C94.4388 15.7383 96.3583 15.7383 98.2803 15.7383C100.838 19.0252 103.391 22.3145 105.946 25.6038C108.501 22.3194 111.059 19.0349 113.607 15.7407C115.529 15.7334 117.448 15.7358 119.37 15.7383C115.887 20.2401 112.385 24.7273 108.897 29.2267C112.387 33.7213 115.882 38.2109 119.37 42.7079C117.453 42.7152 115.534 42.7054 113.617 42.7127C111.052 39.4307 108.509 36.1292 105.944 32.8472C103.398 36.1365 100.836 39.4161 98.2877 42.7054C96.3657 42.7127 94.4437 42.7079 92.5218 42.7079C96.0122 38.2134 99.5052 33.7188 102.998 29.2243C99.5052 24.7298 96.0122 20.2328 92.5169 15.7383Z" fill="white"/>
<path fill-rule="evenodd" clip-rule="evenodd" d="M248.736 56.5619C249.156 56.5302 249.578 56.5254 250 56.5181C249.688 59.486 249.367 62.4515 249.053 65.4195C248.63 65.4195 248.211 65.4317 247.793 65.4609C248.093 62.4929 248.427 59.5298 248.736 56.5619ZM224.524 57.6259C224.909 57.4968 225.392 57.7306 225.471 58.142C225.584 58.6582 225.162 59.1792 224.651 59.2572C224.251 59.3424 223.792 59.0234 223.802 58.6046C223.75 58.1542 224.099 57.7427 224.524 57.6259ZM211.973 58.0885C212.381 57.884 212.957 58.1445 213.014 58.6095C213.122 59.1963 212.54 59.766 211.953 59.6881C211.607 59.6516 211.31 59.3326 211.33 58.982C211.323 58.5852 211.605 58.2297 211.973 58.0885ZM203.237 58.1396C203.657 58.108 204.079 58.0982 204.501 58.0958C204.118 61.7722 203.711 65.4487 203.328 69.1252C205.223 69.0716 207.12 69.0034 209.015 68.9304C208.983 69.3151 208.934 69.6998 208.905 70.0844C206.583 70.1843 204.258 70.2378 201.939 70.3401C202.373 66.2741 202.81 62.2056 203.237 58.1396ZM151.18 59.9413C151.99 59.8951 152.802 59.8853 153.615 59.8488C154.542 59.8293 155.488 59.7246 156.403 59.9364C157.063 60.085 157.726 60.4161 158.092 61.0004C158.524 61.6481 158.509 62.4807 158.347 63.2112C158.092 64.3385 157.13 65.2539 155.993 65.4901C156.555 65.5534 157.144 65.6605 157.601 66.0184C158.19 66.4494 158.477 67.1847 158.48 67.8956C158.534 69.2615 157.714 70.5763 156.533 71.2483C155.723 71.7157 154.788 71.947 153.855 71.9933C152.535 72.0469 151.212 72.0809 149.891 72.1369C150.308 68.0733 150.767 64.0073 151.18 59.9413ZM152.336 61.0394C152.184 62.4345 152.039 63.8296 151.889 65.2247C152.594 65.1931 153.298 65.1736 154.005 65.1468C154.486 65.1419 154.975 65.103 155.431 64.9398C156.234 64.672 156.896 63.9684 157.034 63.1284C157.11 62.6293 157.054 62.0741 156.727 61.6675C156.32 61.1636 155.645 60.9615 155.014 60.959C154.12 60.9688 153.229 61.0321 152.336 61.0394ZM151.779 66.2863C151.624 67.8372 151.437 69.3832 151.273 70.9317C151.749 70.9244 152.225 70.8976 152.702 70.8879C153.342 70.8563 153.99 70.8757 154.623 70.7394C155.38 70.5884 156.136 70.2476 156.617 69.6316C156.973 69.1885 157.12 68.609 157.105 68.049C157.11 67.5328 156.916 66.9899 156.484 66.6782C155.888 66.24 155.11 66.1791 154.393 66.1889C153.519 66.2229 152.648 66.2351 151.779 66.2863ZM237.607 62.2981C238.603 61.1514 240.201 60.5427 241.713 60.7789C242.617 60.8909 243.417 61.4435 243.927 62.1788C243.967 61.7284 244.021 61.278 244.067 60.8276C244.455 60.8203 244.843 60.8056 245.233 60.7886C244.997 62.9799 244.769 65.1711 244.538 67.36C244.408 68.5822 244.349 69.8726 243.716 70.9658C243.056 72.1199 241.804 72.8771 240.496 73.0621C239.619 73.1839 238.709 73.196 237.855 72.9477C237.079 72.7237 236.374 72.2684 235.856 71.6524C236.166 71.3237 236.509 71.0316 236.824 70.7077C237.327 71.4649 238.181 71.9543 239.084 72.059C239.855 72.1345 240.665 72.0663 241.372 71.7279C242.113 71.3919 242.69 70.7394 242.953 69.9773C243.267 69.1471 243.265 68.2511 243.365 67.3819C242.95 67.9273 242.418 68.402 241.772 68.6577C240.528 69.1787 239.006 69.1568 237.857 68.4093C237.091 67.9297 236.581 67.1116 236.416 66.2376C236.156 64.8303 236.654 63.3524 237.607 62.2981ZM240.341 61.8696C238.917 62.2397 237.783 63.5399 237.646 64.9983C237.565 65.7725 237.791 66.593 238.331 67.1701C238.76 67.6181 239.357 67.9102 239.98 67.9492C241.301 68.0344 242.617 67.2894 243.265 66.1548C243.616 65.5704 243.726 64.8741 243.699 64.2021C243.662 63.479 243.355 62.7437 242.759 62.303C242.081 61.782 241.158 61.6773 240.341 61.8696ZM177.501 60.8689C177.876 60.8641 178.252 60.8373 178.63 60.8446C178.556 61.5994 178.482 62.3541 178.404 63.1113C179.179 63.07 179.955 63.048 180.733 63.031C180.684 63.3767 180.652 63.7249 180.61 64.0706C179.835 64.1145 179.059 64.1291 178.284 64.1559C178.129 65.8115 177.942 67.4671 177.788 69.1227C177.761 69.5147 177.802 70.0504 178.237 70.2111C178.828 70.4131 179.464 70.2013 179.999 69.9359C179.994 70.2938 179.97 70.6517 179.95 71.0121C179.314 71.2848 178.605 71.4016 177.915 71.331C177.483 71.2872 177.056 71.0681 176.828 70.6907C176.58 70.3182 176.528 69.8605 176.57 69.4246C176.744 67.6838 176.941 65.9454 177.11 64.2045C176.541 64.2143 175.971 64.2313 175.404 64.2678C175.446 63.9148 175.485 63.5618 175.525 63.2087C176.092 63.1795 176.663 63.16 177.235 63.1479C177.297 62.5075 177.37 61.8696 177.429 61.2293C177.456 61.1124 177.419 60.9663 177.501 60.8689ZM171.742 61.0759C172.127 61.054 172.513 61.0443 172.898 61.0321C172.829 61.7917 172.748 62.5465 172.672 63.3061C173.448 63.272 174.224 63.2501 174.999 63.2233C174.96 63.5764 174.916 63.927 174.879 64.28C174.101 64.3165 173.32 64.3019 172.545 64.3799C172.4 66.0379 172.203 67.6911 172.054 69.3467C172.029 69.7217 172.076 70.2159 172.469 70.3961C173.072 70.625 173.735 70.4034 174.283 70.1307C174.246 70.4911 174.246 70.8538 174.219 71.2166C173.566 71.4942 172.844 71.6062 172.137 71.5258C171.705 71.4771 171.295 71.2361 171.079 70.8587C170.856 70.5008 170.799 70.0674 170.839 69.6559C171.015 67.9029 171.209 66.1523 171.384 64.3969C170.817 64.4237 170.252 64.431 169.687 64.4626C169.717 64.1072 169.751 63.7517 169.808 63.4011C170.372 63.3865 170.937 63.3646 171.504 63.3451C171.592 62.5879 171.656 61.8307 171.742 61.0759ZM228.637 62.6487C229.396 61.5702 230.761 60.9323 232.086 61.0686C232.697 61.1076 233.343 61.3096 233.746 61.7966C234.259 62.4247 234.332 63.2866 234.254 64.0633C234.072 65.7896 233.888 67.5134 233.699 69.2396C233.311 69.2396 232.923 69.2566 232.54 69.2786C232.661 68.1269 232.781 66.9753 232.901 65.8237C232.955 65.1565 233.083 64.4943 233.053 63.8223C233.029 63.2672 232.855 62.6317 232.329 62.3468C231.735 62.0328 231.014 62.0668 230.395 62.2811C229.668 62.5514 229.106 63.143 228.75 63.815C228.517 64.2971 228.412 64.8278 228.36 65.3562C228.215 66.7123 228.068 68.0685 227.926 69.4271C227.535 69.4465 227.148 69.4563 226.76 69.4709C226.978 67.3941 227.197 65.3172 227.415 63.2404C227.484 62.6293 227.503 62.0157 227.53 61.4022C227.928 61.3875 228.328 61.3729 228.728 61.3583C228.723 61.7917 228.684 62.2202 228.637 62.6487ZM117.547 61.3194C117.944 61.2098 118.415 61.4874 118.455 61.9086C118.526 62.4199 118.101 62.8995 117.603 62.9677C117.225 63.0359 116.808 62.7486 116.776 62.3639C116.7 61.8818 117.083 61.4241 117.547 61.3194ZM223.736 61.5361C224.121 61.519 224.506 61.5069 224.894 61.4947C224.614 64.1851 224.327 66.8755 224.035 69.5658C223.647 69.5829 223.262 69.5902 222.876 69.6097C223.161 66.9193 223.451 64.2289 223.736 61.5361ZM220.714 61.6286C221.151 61.6359 221.588 61.6042 222.022 61.5921C220.648 64.3214 219.256 67.0459 217.879 69.7752C217.444 69.802 217.01 69.8166 216.576 69.8191C215.765 67.1701 214.955 64.5186 214.15 61.8672C214.607 61.8575 215.063 61.8282 215.522 61.8234C216.146 64.056 216.762 66.2911 217.388 68.5238C218.5 66.2278 219.587 63.9172 220.714 61.6286ZM76.0415 61.7138C76.4293 61.6968 76.8196 61.6919 77.2099 61.6675C76.9791 63.7517 76.7779 65.8383 76.5373 67.9224C77.4234 66.6588 79.1269 66.0257 80.6292 66.4421C81.0685 66.5589 81.4883 66.8024 81.746 67.1822C82.1756 67.786 82.2296 68.5676 82.1707 69.2834C81.989 71.0194 81.7951 72.7554 81.6184 74.4913C81.2305 74.5181 80.8427 74.5157 80.4573 74.5449C80.612 72.8114 80.8476 71.0851 80.9703 69.3492C80.9703 68.8257 80.9016 68.2511 80.5383 67.8445C80.1161 67.4014 79.4436 67.3454 78.8667 67.4135C78.0886 67.5085 77.3915 67.9857 76.9521 68.6187C76.5275 69.1641 76.3557 69.8531 76.282 70.5251C76.1298 71.9154 75.985 73.3056 75.8328 74.6959C75.4475 74.7178 75.0596 74.7299 74.6718 74.7348C75.1259 70.3961 75.5898 66.0549 76.0415 61.7138ZM211.278 61.9597C211.664 61.9548 212.049 61.95 212.437 61.9183C212.152 64.6136 211.863 67.3088 211.575 70.0041C211.185 70.0041 210.8 70.0382 210.412 70.0309C210.709 67.3405 210.984 64.6477 211.278 61.9597ZM194.329 62.6414C194.999 62.2835 195.797 62.23 196.538 62.3688C196.423 62.7534 196.298 63.1333 196.18 63.5155C195.336 63.3232 194.41 63.5764 193.787 64.1753C193.173 64.7329 192.783 65.529 192.746 66.3544C192.591 67.7885 192.434 69.225 192.282 70.659C191.897 70.6834 191.511 70.6931 191.124 70.7004C191.384 68.01 191.72 65.327 191.909 62.6293C192.294 62.6244 192.68 62.6098 193.068 62.5903C193.014 63.0943 192.962 63.6007 192.908 64.1047C193.22 63.4912 193.708 62.958 194.329 62.6414ZM67.0011 63.7346C67.9216 62.7997 69.2766 62.4053 70.5701 62.4223C71.2034 62.4418 71.849 62.5465 72.4209 62.8314C72.8701 63.0602 73.2457 63.4108 73.5599 63.8028C73.1622 64.1047 72.7597 64.3993 72.3596 64.6988C72.0527 64.168 71.525 63.7639 70.9113 63.6519C70.035 63.4912 69.0802 63.6421 68.334 64.1412C67.7449 64.5308 67.3227 65.1784 67.276 65.8845C67.1926 66.4177 67.3865 66.9875 67.8087 67.3356C68.442 67.8615 69.2717 68.0149 70.0326 68.2706C70.7174 68.497 71.4366 68.6991 72.0184 69.1422C72.5657 69.5512 72.9118 70.2086 72.9462 70.8855C72.9953 71.7109 72.794 72.5606 72.3129 73.2423C71.1175 74.9758 68.7071 75.6941 66.7188 75.0245C65.9383 74.7957 65.2657 74.2649 64.8435 73.5759C65.2559 73.2886 65.6683 73.0013 66.0807 72.7115C66.3482 73.2788 66.8539 73.7147 67.4454 73.9289C68.7046 74.372 70.2461 73.9873 71.0758 72.9282C71.5078 72.3901 71.6796 71.6402 71.4808 70.978C71.2697 70.3596 70.6806 69.9749 70.0939 69.7533C69.2667 69.4563 68.4003 69.2664 67.5878 68.9231C67.0134 68.6796 66.4636 68.2998 66.1715 67.7398C65.8278 67.1189 65.8475 66.3788 65.9628 65.7019C66.0831 64.9569 66.4636 64.2654 67.0011 63.7346ZM184.653 62.8679C185.773 62.5027 187.098 62.5173 188.095 63.199C188.738 63.6202 189.155 64.319 189.327 65.0543C189.486 65.7141 189.442 66.4031 189.337 67.0654C187.086 67.1457 184.837 67.2188 182.589 67.304C182.577 67.9248 182.746 68.5554 183.112 69.0619C183.595 69.7485 184.459 70.121 185.294 70.065C186.376 70.0455 187.361 69.4149 188.001 68.5773C188.274 68.8159 188.549 69.0472 188.821 69.2859C188.249 69.953 187.535 70.5203 186.698 70.8173C185.638 71.202 184.418 71.2629 183.374 70.8003C182.368 70.3717 181.651 69.41 181.455 68.3533C181.288 67.3989 181.418 66.3934 181.808 65.5047C182.351 64.2946 183.387 63.3013 184.653 62.8679ZM184.616 64.0025C183.689 64.4529 182.888 65.3002 182.724 66.3398C184.545 66.3033 186.364 66.2108 188.181 66.1645C188.217 65.7506 188.193 65.3221 188.043 64.9301C187.857 64.4407 187.461 64.0292 186.963 63.8515C186.205 63.5813 185.338 63.6494 184.616 64.0025ZM162.616 64.0731C163.652 63.406 164.977 63.182 166.168 63.5155C167.044 63.7712 167.79 64.4358 168.112 65.2856C168.431 66.0696 168.428 66.9436 168.281 67.7641C168.087 67.8445 167.846 67.7909 167.635 67.8177C165.603 67.8907 163.568 67.9516 161.536 68.0344C161.511 68.7843 161.776 69.5585 162.314 70.0966C162.854 70.6347 163.649 70.8709 164.403 70.7857C165.419 70.7102 166.339 70.1064 166.941 69.3102C167.218 69.5439 167.498 69.7777 167.765 70.0236C167.024 70.8952 166.01 71.5623 164.867 71.7644C163.973 71.9324 163.006 71.8837 162.186 71.4674C161.499 71.129 160.939 70.5446 160.642 69.841C160.328 69.1617 160.284 68.3947 160.372 67.6619C160.524 66.2108 161.376 64.8546 162.616 64.0731ZM164.042 64.543C162.896 64.9058 161.867 65.8602 161.668 67.0678C163.487 67.0313 165.308 66.9388 167.127 66.8925C167.189 66.1986 167.044 65.439 166.509 64.9471C165.853 64.3604 164.862 64.3141 164.042 64.543ZM130.468 66.1402C131.202 65.2369 132.291 64.6136 133.46 64.4772C134.24 64.3798 135.075 64.4553 135.77 64.8473C136.226 65.0932 136.599 65.4682 136.896 65.8894C136.953 65.4365 136.99 64.9837 137.048 64.5332C137.434 64.5308 137.822 64.5162 138.207 64.4943C137.92 67.1895 137.64 69.8848 137.35 72.5801C137.218 73.4127 137.007 74.2673 136.504 74.9637C135.814 75.9522 134.677 76.5925 133.484 76.7654C132.566 76.8969 131.604 76.9042 130.713 76.6193C129.979 76.388 129.321 75.9424 128.826 75.3605C129.137 75.0343 129.476 74.7372 129.795 74.4159C130.311 75.2023 131.214 75.6941 132.147 75.7769C132.885 75.8329 133.654 75.7623 134.331 75.4409C134.977 75.1438 135.514 74.6155 135.804 73.9679C136.234 73.0694 136.224 72.0566 136.337 71.09C135.929 71.6208 135.414 72.0907 134.785 72.3463C133.521 72.8941 131.958 72.8698 130.792 72.0931C130.085 71.6378 129.601 70.8903 129.417 70.082C129.108 68.6966 129.555 67.2139 130.468 66.1402ZM133.362 65.5656C131.695 65.9624 130.426 67.6594 130.627 69.3662C130.713 70.2646 131.292 71.1095 132.139 71.4576C133.325 71.9568 134.734 71.5039 135.63 70.6469C136.535 69.8045 136.882 68.4629 136.572 67.2796C136.42 66.7172 136.069 66.201 135.568 65.8943C134.92 65.4755 134.1 65.4097 133.362 65.5656ZM3.78255 64.9739C4.85276 64.6111 6.04325 64.5551 7.12573 64.8936C7.76884 65.0884 8.3064 65.5266 8.71387 66.0476C8.31622 66.3471 7.91857 66.649 7.51847 66.9436C7.25583 66.5224 6.88027 66.1523 6.39917 65.9916C5.60387 65.7141 4.71039 65.8115 3.94455 66.1329C3.21553 66.4494 2.60433 67.0995 2.46442 67.8907C2.38342 68.3266 2.38833 68.8111 2.63624 69.1982C2.91116 69.6535 3.40699 69.9091 3.8881 70.0991C4.75212 70.4058 5.65051 70.6177 6.49244 70.9877C7.04718 71.2336 7.56511 71.6232 7.83757 72.1759C8.1984 72.843 8.15422 73.6416 7.9873 74.3574C7.66329 75.6259 6.62008 76.6169 5.42714 77.1111C4.21947 77.637 2.79825 77.6468 1.57585 77.1622C0.920467 76.9042 0.368179 76.4172 0.00244141 75.8207C0.414817 75.5334 0.824737 75.2461 1.23711 74.9612C1.56603 75.66 2.26314 76.1543 3.02162 76.2906C4.2612 76.5438 5.6726 76.0569 6.3648 74.9783C6.79927 74.3014 6.88518 73.3129 6.31816 72.6848C5.77078 72.0761 4.93131 71.891 4.17774 71.6573C3.32844 71.3919 2.41287 71.163 1.74767 70.5373C1.19784 70.0333 0.984287 69.2518 1.05056 68.5286C1.08002 67.9638 1.2052 67.3989 1.47276 66.8974C1.95877 65.9941 2.80807 65.3002 3.78255 64.9739ZM121.611 66.3593C122.38 65.2612 123.779 64.6209 125.121 64.7816C125.752 64.8303 126.422 65.0689 126.796 65.6045C127.252 66.2424 127.301 67.0702 127.223 67.825C127.041 69.5318 126.857 71.2361 126.678 72.9428C126.287 72.9501 125.9 72.9623 125.512 72.9794C125.652 71.7401 125.774 70.4984 125.905 69.2591C125.968 68.5213 126.125 67.7739 125.963 67.0386C125.878 66.632 125.657 66.2229 125.266 66.033C124.672 65.7409 123.963 65.7798 123.352 65.9941C122.792 66.2035 122.328 66.6125 121.989 67.0946C121.584 67.6302 121.42 68.2998 121.346 68.9523C121.199 70.3474 121.044 71.7401 120.9 73.1352C120.512 73.1522 120.124 73.162 119.739 73.1814C119.937 71.2069 120.151 69.2299 120.357 67.2553C120.441 66.5419 120.487 65.8261 120.499 65.1103C120.9 65.0908 121.3 65.0811 121.702 65.064C121.697 65.4998 121.66 65.9308 121.611 66.3593ZM116.707 65.2466C117.092 65.2247 117.48 65.2125 117.868 65.2028C117.583 67.8932 117.306 70.586 117.007 73.274C116.621 73.291 116.236 73.2983 115.85 73.3178C116.138 70.6274 116.425 67.937 116.707 65.2466ZM106.921 66.9266C107.765 65.8383 109.164 65.215 110.544 65.2612C111.557 65.2588 112.596 65.6508 113.273 66.4153C114.108 67.3502 114.284 68.7088 114.022 69.897C113.715 71.3359 112.726 72.6263 111.378 73.2569C110.266 73.7804 108.923 73.9362 107.765 73.476C107.181 73.2447 106.673 72.8333 106.351 72.2952C106.137 74.3964 105.907 76.4976 105.698 78.5987C105.31 78.6182 104.92 78.6401 104.532 78.6328C104.986 74.2917 105.455 69.953 105.902 65.6118C106.29 65.6021 106.675 65.5948 107.063 65.5729C107.026 66.0233 106.972 66.4737 106.921 66.9266ZM109.414 66.4104C108.909 66.5322 108.437 66.7708 108.025 67.08C107.092 67.7861 106.538 68.9474 106.562 70.1088C106.592 70.9244 106.989 71.7425 107.681 72.2051C108.68 72.8917 110.082 72.8308 111.101 72.2173C111.911 71.7474 112.48 70.9293 112.721 70.0358C112.905 69.3638 112.947 68.6285 112.709 67.9638C112.524 67.4184 112.149 66.9315 111.638 66.6515C110.971 66.2619 110.151 66.2424 109.414 66.4104ZM40.7883 67.8713C40.8669 67.1116 40.9282 66.3496 41.0264 65.5923C41.4118 65.5997 41.7947 65.5607 42.1825 65.5704C42.1015 66.3252 42.0254 67.0824 41.9592 67.8396C42.7324 67.8007 43.5056 67.7641 44.2788 67.7617C44.237 68.1074 44.2076 68.458 44.1536 68.8013C43.3804 68.8257 42.6096 68.8646 41.8389 68.8768C41.6769 70.474 41.5173 72.0688 41.3529 73.666C41.3136 74.0093 41.3013 74.3866 41.4903 74.6934C41.6401 74.9345 41.9395 75.0026 42.2046 75.0172C42.6784 75.0318 43.1398 74.8712 43.5547 74.6593C43.5424 75.0148 43.5178 75.3703 43.5154 75.7257C42.8256 76.0447 42.0303 76.1543 41.2817 76.0277C40.6877 75.9254 40.2409 75.3946 40.1452 74.82C40.0544 74.3014 40.1796 73.7804 40.2164 73.2618C40.3661 71.818 40.5183 70.3742 40.668 68.9304C40.0986 68.9425 39.5266 68.962 38.9596 68.9888C38.9891 68.6869 39.0357 68.3874 39.0627 68.0855C39.0357 68.0222 39.0063 67.9614 38.9744 67.9029C38.9326 68.273 38.7755 68.6187 38.6724 68.9742C37.9827 68.8159 37.2267 68.9547 36.64 69.3492C35.9061 69.8385 35.3955 70.6517 35.2728 71.5209C35.1083 73.0524 34.9414 74.5838 34.7794 76.1153C34.3916 76.1372 34.0038 76.1518 33.6159 76.1543C33.8884 73.4663 34.2173 70.7808 34.4039 68.0855C34.7917 68.0807 35.1771 68.066 35.5649 68.0441C35.5183 68.5579 35.4667 69.0692 35.398 69.5805C35.7244 68.9133 36.262 68.3436 36.9468 68.0368C37.5826 67.7252 38.3165 67.7081 39.0063 67.8055C39.0406 67.8518 39.075 67.898 39.1094 67.9443C39.6616 67.8859 40.2262 67.9029 40.7883 67.8713ZM96.3681 67.2918C97.2076 66.2303 98.5699 65.5948 99.9298 65.624C100.882 65.6143 101.862 65.9283 102.549 66.5979C103.101 67.1165 103.433 67.8372 103.543 68.5773C103.739 69.9238 103.31 71.3359 102.436 72.378C101.579 73.4127 100.264 74.0433 98.9209 74.1042C97.7354 74.187 96.432 73.7195 95.8109 72.6653C95.5753 74.7665 95.3789 76.8701 95.1408 78.9688C94.7555 78.9761 94.3701 79.0029 93.9847 79.0005C94.4462 74.6593 94.9003 70.3157 95.3617 65.9746C95.7496 65.9697 96.1374 65.9576 96.5252 65.9356C96.4663 66.3861 96.4369 66.8414 96.3681 67.2918ZM99.1247 66.7245C98.5773 66.8122 98.0569 67.0362 97.6077 67.3527C96.5866 68.0514 95.9803 69.2834 96.0171 70.5081C96.049 71.3603 96.5031 72.1954 97.242 72.6434C98.3171 73.3007 99.7702 73.1571 100.777 72.4364C101.812 71.7133 102.352 70.4326 102.325 69.1958C102.294 68.3582 101.896 67.4988 101.155 67.0556C100.558 66.6734 99.812 66.6174 99.1247 66.7245ZM88.5109 66.0355C89.3283 65.9308 90.1923 65.9941 90.9483 66.3471C91.6455 66.6588 92.2248 67.2236 92.5488 67.9127C93.1084 69.1154 92.9808 70.5543 92.4113 71.7303C91.7976 73.0256 90.5703 74.0141 89.1638 74.3379C88.0274 74.6058 86.7534 74.5327 85.7568 73.8802C84.9125 73.3446 84.3823 72.3999 84.2792 71.4211C84.1613 70.2671 84.4412 69.0643 85.1162 68.1099C85.882 66.985 87.1461 66.201 88.5109 66.0355ZM88.3514 67.1116C87.8727 67.2042 87.4162 67.4062 87.0234 67.6911C86.0882 68.3753 85.5678 69.5196 85.5187 70.6566C85.4893 71.3091 85.6537 71.9884 86.0637 72.5119C86.53 73.123 87.3131 73.4395 88.074 73.4298C88.8079 73.442 89.5394 73.2107 90.131 72.7797C91.1374 72.059 91.67 70.8003 91.6405 69.5853C91.6234 68.7429 91.2233 67.8761 90.4795 67.4306C89.856 67.0313 89.0681 66.9802 88.3514 67.1116ZM247.928 67.0167C248.287 66.8828 248.751 66.9582 248.969 67.2942C249.261 67.7154 249.075 68.3047 248.694 68.6066C248.321 68.9206 247.641 68.9523 247.359 68.5092C246.998 67.9784 247.354 67.2188 247.928 67.0167ZM57.8675 67.3721C58.5425 67.0118 59.3452 66.9558 60.0889 67.0946C59.9687 67.4768 59.8484 67.8591 59.7257 68.2413C59.1734 68.1245 58.5818 68.178 58.0663 68.4093C57.1557 68.8379 56.4954 69.7387 56.3334 70.7199C56.1567 72.2757 56.002 73.834 55.8228 75.3898C55.4375 75.4092 55.0496 75.4238 54.6642 75.4263C54.9416 72.7383 55.2632 70.0528 55.4571 67.3575C55.8425 67.3502 56.2303 67.3454 56.6132 67.3113C56.5739 67.8128 56.5028 68.3095 56.4659 68.8111C56.7777 68.2073 57.2539 67.6838 57.8675 67.3721ZM48.7094 67.4574C49.6765 67.2577 50.7516 67.3356 51.5886 67.8932C52.4035 68.4045 52.865 69.3419 52.9583 70.2744C53.0221 70.7808 52.9558 71.2896 52.8822 71.7936C50.6289 71.874 48.3755 71.9446 46.1246 72.0322C46.132 72.7578 46.3505 73.5101 46.8659 74.0409C47.374 74.5863 48.1448 74.8492 48.8836 74.7932C49.944 74.7567 50.9185 74.1383 51.5395 73.308C51.8169 73.5393 52.0894 73.7779 52.3643 74.0141C51.9396 74.5059 51.4487 74.9466 50.8743 75.2631C49.9661 75.755 48.8934 75.957 47.8699 75.8061C47.0255 75.6868 46.2204 75.2558 45.6902 74.5887C45.025 73.7731 44.8212 72.6653 44.9734 71.6427C45.1845 69.6608 46.7334 67.8688 48.7094 67.4574ZM46.267 71.0656C48.0883 71.0243 49.9097 70.9463 51.731 70.883C51.758 70.4911 51.7457 70.0893 51.6082 69.7168C51.4217 69.1446 50.9332 68.682 50.349 68.5238C48.5989 68.0149 46.591 69.3005 46.267 71.0656ZM25.2285 69.3808C26.1735 68.4702 27.5236 68.1074 28.8147 68.0855C29.529 68.0636 30.3022 68.2243 30.8226 68.7429C31.3552 69.2493 31.5271 70.026 31.4534 70.7345C31.3233 72.0128 31.1883 73.291 31.0558 74.5717C30.9993 75.1292 30.9993 75.6892 31.0018 76.2492C30.6287 76.2711 30.2556 76.276 29.8825 76.293C29.8456 75.8548 29.8751 75.4141 29.9242 74.9783C29.5486 75.5018 29.0798 75.9814 28.4833 76.2516C27.7445 76.5852 26.9001 76.6729 26.0999 76.5487C25.4813 76.4513 24.88 76.1129 24.578 75.5553C24.2246 74.9661 24.3105 74.2357 24.5093 73.61C24.7891 72.7821 25.5501 72.2197 26.338 71.9032C27.5727 71.4041 28.9301 71.4138 30.2384 71.3237C30.2997 70.7686 30.3169 70.1356 29.9487 69.673C29.6247 69.2688 29.0773 69.1398 28.5791 69.1422C27.5751 69.1252 26.5933 69.5318 25.8446 70.1843C25.6335 69.9189 25.4298 69.6486 25.2285 69.3808ZM27.0179 72.7091C26.5663 72.8893 26.0901 73.1181 25.8176 73.5345C25.5501 73.9703 25.5059 74.579 25.825 75.0002C26.0533 75.2972 26.4288 75.4482 26.7921 75.5042C27.7298 75.66 28.7656 75.3435 29.3694 74.596C29.9046 73.9533 30.0813 73.106 30.1328 72.2928C29.0872 72.3244 28.0145 72.3585 27.0179 72.7091ZM16.8975 70.1258C17.467 69.1568 18.5225 68.4483 19.6664 68.3996C20.2923 68.3777 20.9575 68.4313 21.5049 68.7648C21.9123 69.001 22.1799 69.4198 22.3272 69.8556C22.5014 70.4156 22.4965 71.0121 22.4303 71.5891C22.2462 73.252 22.0792 74.9174 21.8902 76.5803C21.5024 76.573 21.117 76.6047 20.7292 76.6047C20.874 75.3216 20.9992 74.036 21.1391 72.7529C21.2054 72.0639 21.3208 71.3676 21.2299 70.6737C21.1686 70.2135 20.8912 69.7533 20.4371 69.5878C19.8995 69.3905 19.2933 69.4149 18.7508 69.5732C17.9236 69.8507 17.3615 70.6055 17.1013 71.4065C16.8951 71.9787 16.8755 72.5898 16.8092 73.1863C16.6914 74.372 16.5637 75.5553 16.4484 76.741C16.063 76.7873 15.6727 76.78 15.2849 76.7897C15.4174 75.4677 15.5598 74.1505 15.6972 72.8284C15.7537 72.1564 15.8887 71.4771 15.7684 70.8051C15.6997 70.4034 15.4763 70.0041 15.0934 69.8215C14.5559 69.5683 13.9201 69.5975 13.3654 69.785C12.7124 70.026 12.2313 70.569 11.9 71.1582C11.6299 71.6403 11.5195 72.1905 11.4508 72.7334C11.2961 74.1383 11.1488 75.5431 10.9868 76.9456C10.6015 76.9577 10.2136 76.9772 9.82826 76.9845C9.95836 75.7477 10.0885 74.5108 10.221 73.274C10.3634 71.8229 10.5671 70.3742 10.6064 68.9133C11.0286 68.906 11.4483 68.889 11.868 68.8719C11.8214 69.281 11.7748 69.6925 11.738 70.1039C12.3737 69.1982 13.4513 68.5993 14.5681 68.5773C15.172 68.5725 15.8175 68.6966 16.2692 69.1203C16.5735 69.3832 16.7724 69.746 16.8975 70.1258ZM141.074 70.8027C141.55 70.7564 142.029 70.771 142.508 70.7394C141.899 72.1126 141.29 73.4833 140.669 74.8517C140.276 74.8736 139.884 74.8858 139.491 74.8882C140.016 73.5247 140.551 72.1661 141.074 70.8027Z" fill="white"/>
</g>
<defs>
<clipPath id="clip0_48_204">
<rect width="250" height="79" fill="white"/>
</clipPath>
</defs>
</svg>
