<svg width="251" height="85" viewBox="0 0 251 85" fill="none" xmlns="http://www.w3.org/2000/svg">
<g clip-path="url(#clip0_48_211)">
<path fill-rule="evenodd" clip-rule="evenodd" d="M122.116 50.4023H104.47C102.437 50.4023 101.337 51.8042 101.337 53.5067V73.7805C101.337 75.7795 102.775 76.9272 104.554 76.9272C106.287 76.9272 107.687 75.7795 107.687 73.7805V56.5688H118.983V73.7805C118.983 75.7795 120.379 76.9272 122.158 76.9272C123.891 76.9272 125.333 75.7372 125.333 73.7382V53.5067C125.291 51.8084 124.149 50.4023 122.116 50.4023Z" fill="white"/>
<path fill-rule="evenodd" clip-rule="evenodd" d="M152.834 50.4027H152.581C150.717 50.4027 149.49 51.3386 148.179 53.2064L137.852 67.8685V53.5452C137.852 51.5462 136.583 50.3984 134.85 50.3984C133.075 50.3984 131.76 51.5462 131.76 53.5452V73.0947C131.76 75.2208 133.113 76.665 135.272 76.665H135.567C137.557 76.665 138.826 75.6443 140.054 73.8613L150.38 59.1991V73.5225C150.38 75.5215 151.649 76.6692 153.428 76.6692C155.161 76.6692 156.477 75.5215 156.477 73.5225V53.9729C156.473 51.7664 155.161 50.4027 152.834 50.4027Z" fill="white"/>
<path fill-rule="evenodd" clip-rule="evenodd" d="M188.085 70.5069H186.478V53.2952C186.478 51.2962 185.04 50.1484 183.261 50.1484C181.528 50.1484 180.128 51.2962 180.128 53.2952V70.5069H169.169V53.2952C169.169 51.2962 167.815 50.1484 165.994 50.1484C164.219 50.1484 162.819 51.2962 162.819 53.2952V73.569C162.819 75.2673 163.962 76.6733 165.952 76.6733H184.952V79.477C184.952 81.476 186.305 82.6238 188.042 82.6238C189.818 82.6238 191.175 81.476 191.175 79.477V73.6537C191.171 71.57 189.944 70.5069 188.085 70.5069Z" fill="white"/>
<path fill-rule="evenodd" clip-rule="evenodd" d="M219.776 70.5069H218.17V53.2952C218.17 51.2962 216.732 50.1484 214.953 50.1484C213.22 50.1484 211.82 51.2962 211.82 53.2952V70.5069H200.819V53.2952C200.819 51.2962 199.465 50.1484 197.643 50.1484C195.868 50.1484 194.468 51.2962 194.468 53.2952V73.569C194.468 75.2673 195.611 76.6733 197.601 76.6733H216.601V79.477C216.601 81.476 217.955 82.6238 219.692 82.6238C221.467 82.6238 222.825 81.476 222.825 79.477V73.6537C222.863 71.57 221.636 70.5069 219.776 70.5069Z" fill="white"/>
<path fill-rule="evenodd" clip-rule="evenodd" d="M250.663 72.2052L242.031 53.3798C241.057 51.2961 239.704 50.4067 237.756 50.4067H237.418C235.386 50.4067 234.033 51.3004 233.058 53.3798L224.427 72.2052C223.58 74.0771 224.174 75.7331 225.865 76.3684C227.387 76.9613 228.914 76.6225 229.757 74.8395L231.705 70.7186C233.438 71.3116 235.597 71.6123 237.629 71.6123C239.788 71.6123 241.69 71.3158 243.301 70.7186L245.164 74.7971C245.97 76.5801 247.618 76.9232 249.098 76.3684C250.789 75.7331 251.468 73.9924 250.663 72.2052ZM237.676 65.9583C236.364 65.9583 234.969 65.7889 233.91 65.4924L237.591 57.2465L241.272 65.4924C240.256 65.7889 238.987 65.9583 237.676 65.9583Z" fill="white"/>
<path fill-rule="evenodd" clip-rule="evenodd" d="M129.689 28.4306H128.083V11.4306C128.083 9.73225 126.94 8.32617 124.95 8.32617H110.478C108.788 8.32617 107.645 9.4739 107.645 11.4729V15.5937C107.645 18.5668 107.603 20.8623 107.097 23.3272C106.591 25.7497 105.954 27.2362 105.022 28.4687H104.301C102.269 28.4687 101.299 29.7435 101.299 31.5731V37.3964C101.299 39.3954 102.652 40.5432 104.39 40.5432C106.165 40.5432 107.523 39.3954 107.523 37.3964V34.5927H126.565V37.3964C126.565 39.3954 127.918 40.5432 129.655 40.5432C131.431 40.5432 132.788 39.3954 132.788 37.3964V31.5349C132.78 29.7053 131.806 28.4306 129.689 28.4306ZM121.779 28.4306H111.495C112.131 27.0711 112.637 25.8386 113.059 23.9667C113.481 22.01 113.649 20.0576 113.696 17.508L113.738 14.446H121.779V28.4306Z" fill="white"/>
<path fill-rule="evenodd" clip-rule="evenodd" d="M147.673 8.11865C140.1 8.11865 134.302 13.8573 134.302 21.4637C134.302 29.1971 140.142 34.8087 147.673 34.8087C155.246 34.8087 161.044 28.943 161.044 21.379C161.044 13.7684 155.204 8.11865 147.673 8.11865ZM147.673 28.8583C143.528 28.8583 140.521 25.7116 140.521 21.4213C140.521 17.2158 143.524 14.0691 147.673 14.0691C151.86 14.0691 154.824 17.2158 154.824 21.4213C154.782 25.7116 151.948 28.8583 147.673 28.8583Z" fill="white"/>
<path fill-rule="evenodd" clip-rule="evenodd" d="M190.113 28.4306H188.506V11.4306C188.506 9.73225 187.363 8.32617 185.373 8.32617H170.902C169.211 8.32617 168.068 9.4739 168.068 11.4729V15.5937C168.068 18.5668 168.026 20.8623 167.52 23.3272C167.014 25.7497 166.378 27.2362 165.446 28.4687H164.725C162.692 28.4687 161.722 29.7435 161.722 31.5731V37.3964C161.722 39.3954 163.076 40.5432 164.813 40.5432C166.588 40.5432 167.946 39.3954 167.946 37.3964V34.5927H186.988V37.3964C186.988 39.3954 188.342 40.5432 190.079 40.5432C191.854 40.5432 193.212 39.3954 193.212 37.3964V31.5307C193.203 29.7053 192.229 28.4306 190.113 28.4306ZM182.16 28.4306H171.876C172.513 27.0711 173.019 25.8386 173.44 23.9667C173.862 22.01 174.031 20.0576 174.077 17.508L174.119 14.446H182.16V28.4306Z" fill="white"/>
<path fill-rule="evenodd" clip-rule="evenodd" d="M207.843 8.11865C200.27 8.11865 194.473 13.8573 194.473 21.4637C194.473 29.1971 200.313 34.8087 207.843 34.8087C215.416 34.8087 221.214 28.943 221.214 21.379C221.214 13.7684 215.416 8.11865 207.843 8.11865ZM207.843 28.8583C203.698 28.8583 200.692 25.7116 200.692 21.4213C200.692 17.2158 203.694 14.0691 207.843 14.0691C212.03 14.0691 214.995 17.2158 214.995 21.4213C214.995 25.7116 212.157 28.8583 207.843 28.8583Z" fill="white"/>
<path fill-rule="evenodd" clip-rule="evenodd" d="M37.869 0C62.4938 0 81.4516 17.0424 81.4516 42.2882C81.4516 67.7035 62.536 85 37.869 85H10.1957C4.61293 85 0 81.3027 0 74.844V10.5837C0 4.12083 4.61293 0 10.1957 0H37.869Z" fill="#CFCFCF"/>
<path fill-rule="evenodd" clip-rule="evenodd" d="M19.2107 44.5415C19.2107 36.7234 16.7145 29.5829 17.5199 25.119L17.3512 24.8649C14.5134 27.838 12.6497 27.0291 12.4811 26.0931C12.0594 24.1788 15.3989 21.8452 17.3048 20.9939C17.347 20.8669 17.3891 20.7398 17.4313 20.6128C15.6561 20.8669 13.5816 20.6551 13.4973 19.3803C13.4129 17.8514 16.4151 16.5343 20.3956 16.8308C20.4799 16.7884 20.5642 16.7037 20.6064 16.6614C20.3534 16.5766 20.1004 16.4496 19.7589 16.2802C18.7427 15.772 18.4897 14.8783 18.827 14.2388C19.2065 13.557 20.307 13.2605 21.2389 13.3029C22.6767 13.3452 23.8616 13.684 24.7513 14.0271C24.8356 13.9847 24.9621 13.9424 25.0464 13.9C24.7091 13.6459 24.4097 13.3494 24.2832 13.0911C24.0303 12.6676 23.9881 12.0704 24.4519 11.7316C25.0001 11.3081 26.4 11.1387 27.6692 12.2822C27.9222 12.5363 28.133 12.748 28.348 12.964C28.4745 12.9217 28.6432 12.9217 28.7697 12.8793C28.5589 12.5405 28.3902 12.1975 28.348 11.901C28.2637 11.4775 28.4324 11.0074 28.8962 10.838C29.4443 10.6686 30.1232 10.9227 30.5027 11.4775C30.8822 12.0704 31.1394 12.7523 31.2659 13.2605C28.4745 13.5993 21.0702 15.3019 21.0702 24.3101C21.0702 33.1065 28.348 42.3308 28.348 55.9299C28.348 60.8597 27.2475 65.8318 22.8032 71.6128C19.3752 76.0766 13.8767 80.3669 5.32975 83.8948C6.80977 84.619 8.46266 85.0002 10.2378 85.0002H13.3286C20.3956 81.0911 23.908 77.4785 26.3199 74.0776C31.0593 76.2037 35.63 77.0931 39.7328 77.0931C47.4322 77.0931 53.9932 73.5228 57.4213 67.1912C60.9337 65.0652 63.2612 60.6903 63.4299 57.5859C65.631 54.8245 66.0105 51.339 65.3358 48.9588C65.1671 48.4082 64.6991 48.3659 63.9401 48.8741C56.9996 53.0373 50.2742 55.0363 43.8819 55.0363C39.99 55.0363 36.0138 54.3968 31.7803 53.1643C31.4852 48.6158 30.5533 44.749 30.216 42.4536C29.71 39.3915 30.4268 37.1427 33.7705 37.1427C36.2246 37.1427 40.7532 37.7822 44.3921 39.4381C47.9888 41.0941 50.1477 44.3255 51.6277 44.3255C52.218 44.3255 52.8547 43.9444 52.8547 42.6696C52.8547 40.0353 51.9229 35.8255 50.7802 34.339C54.1661 34.1272 56.831 34.1696 58.311 34.339C61.4439 34.8896 61.6126 36.465 62.2029 37.4857C62.8396 38.5064 63.8516 38.9723 65.1208 38.9723C67.4483 38.9723 68.8862 37.7822 68.8862 33.403C68.8862 23.84 62.8775 19.2067 56.5738 19.2067C51.4127 19.2067 49.3803 20.3544 44.4722 20.3544C41.002 20.3544 38.0841 13.2139 34.1036 12.2779C32.3706 8.36888 28.4324 7.94112 26.0205 9.89777C23.8194 8.53828 20.3913 9.25826 20.2649 11.7697C17.7265 11.0032 14.4671 12.3626 15.8627 15.6788C9.64752 15.8101 8.46266 21.2946 12.6497 21.9299C7.23564 24.9919 9.73185 30.3029 14.2562 29.1551C14.5936 32.9371 16.0778 39.0146 16.0778 43.182C16.0778 49.0054 13.4551 50.3649 9.85835 50.3649C7.02481 50.3649 2.83354 49.3442 0 48.4929V52.5714C2.8757 53.2956 7.15131 54.185 10.4107 54.185C16.0778 54.274 19.2107 50.9155 19.2107 44.5415ZM31.7339 57.7595C35.6258 58.8649 41.002 59.4155 45.442 59.119C53.268 58.5684 59.1501 55.6334 62.4938 53.5074C60.5036 58.5642 53.015 61.7109 45.7793 62.6003C45.7372 62.9815 45.695 63.3245 45.6107 63.6633C51.0248 63.3669 56.1901 61.5796 58.5176 59.966C57.1641 64.9381 50.5188 66.9371 44.5102 67.2336C44.3415 67.6148 44.1728 68.0002 43.962 68.339C47.4744 68.3813 50.8181 67.7461 52.8463 67.1065C51.0248 70.5497 44.8053 73.3111 38.5015 73.3111C35.3686 73.3111 31.5189 72.7182 28.133 71.1003C30.6334 66.5983 31.5653 62.0074 31.7339 57.7595ZM47.4322 29.748C48.2798 27.1985 49.0387 25.2418 50.3923 23.7976C51.8723 22.2687 53.483 21.7563 57.0334 21.7563C61.9415 21.7563 66.0442 26.7284 66.0442 33.7418C66.0442 34.7625 64.6485 34.7625 64.2226 33.8265C62.5318 30.8534 60.2886 30.4257 56.734 30.1716C54.1113 30.0022 50.9362 30.2563 48.0183 30.3833C47.5166 30.3876 47.3479 30.0064 47.4322 29.748Z" fill="black"/>
<path fill-rule="evenodd" clip-rule="evenodd" d="M0 65.0267C2.96003 64.4338 5.88212 63.879 5.88212 63.879L6.26161 62.2654C4.90809 62.1807 2.24322 62.2231 0 62.3078V65.0267Z" fill="black"/>
<path fill-rule="evenodd" clip-rule="evenodd" d="M32.0291 17.0002C33.0875 16.6614 34.5675 17.682 35.3729 19.2956C36.1782 20.9092 35.9632 22.5271 34.9512 22.8659C33.935 23.2471 32.455 22.184 31.6496 20.5704C31.5231 20.3587 31.4388 20.1469 31.3966 19.9309L31.5653 19.8886C31.9026 20.185 32.2863 20.3121 32.5815 20.1003C32.961 19.8462 32.9188 19.2067 32.5815 18.6561C32.3707 18.1902 31.8605 17.7201 31.4388 17.7625L31.3123 17.6778C31.481 17.339 31.6918 17.0849 32.0291 17.0002ZM39.3069 33.1913C34.6518 32.1706 29.5751 30.8111 26.868 26.8173C26.8259 26.7326 26.7415 26.6903 26.6572 26.7326C26.5729 26.775 26.5307 26.8173 26.4885 26.9444C26.4885 27.1561 26.4885 27.4102 26.5729 27.6262L26.1934 27.7533C25.4724 26.7326 25.3459 25.5002 26.0247 24.6065C27.0409 23.3318 29.1155 23.4588 30.3425 24.2677L30.216 24.6489C29.5371 24.5218 28.9046 24.5218 28.4408 24.8183C28.0192 25.0724 27.977 25.4578 28.23 25.9237C30.4732 30.1292 37.03 31.0228 44.818 30.4299C45.6234 30.3876 45.792 30.0064 45.9185 29.621C46.5974 26.902 47.8244 24.4795 49.6417 22.6499C48.2039 22.8617 46.8925 22.904 45.7498 22.9464C41.7315 23.2005 39.4461 22.6922 38.725 22.0951L38.8515 21.7563C39.2732 21.8833 39.7412 21.9257 39.8256 21.7986C39.9521 21.6292 39.8677 21.5022 39.6569 21.3328C38.8937 20.6085 35.4698 17.0849 35.4698 17.0849C35.0904 14.1118 30.7726 13.9805 29.0396 16.9155L28.4493 16.7461C28.6179 16.1065 28.8709 15.556 29.1281 15.1748C25.5314 15.9837 23.4568 19.2533 23.0773 22.4C21.4708 35.9145 41.9086 32.8143 47.7443 38.2099C47.8708 38.2946 48.1238 38.6758 48.3346 38.4217C48.4906 37.8245 45.9101 34.682 39.3069 33.1913Z" fill="white"/>
<path fill-rule="evenodd" clip-rule="evenodd" d="M62.5403 53.4648C59.2387 55.5909 53.3144 58.5216 45.4884 59.0765C41.0442 59.3729 35.6301 58.8223 31.7382 57.717C31.696 59.0341 31.5274 60.3512 31.3165 61.7107C33.5176 62.2613 37.4095 63.0279 43.0386 63.1973C42.7856 64.7262 41.2634 69.8677 37.3251 73.2262C44.4765 73.5226 50.9911 70.719 52.897 67.064C50.9067 67.7035 47.525 68.3388 44.0126 68.2964C44.1813 67.9576 44.3921 67.5722 44.5608 67.1911C50.5694 66.8946 57.2569 64.8956 58.5682 59.9235C56.2407 61.5371 51.0796 63.3243 45.6613 63.6208C45.7456 63.282 45.7878 62.8966 45.83 62.5578C53.0614 61.6684 60.55 58.5216 62.5403 53.4648Z" fill="white"/>
</g>
<defs>
<clipPath id="clip0_48_211">
<rect width="251" height="85" fill="white"/>
</clipPath>
</defs>
</svg>
