<svg width="20" height="21" viewBox="0 0 20 21" fill="none" xmlns="http://www.w3.org/2000/svg">
<path d="M15.9468 15.3863C15.6539 15.0934 15.1791 15.0934 14.8862 15.3863C14.5933 15.6792 14.5933 16.1541 14.8862 16.447L15.9468 15.3863ZM17.8028 19.3636C18.0957 19.6565 18.5706 19.6565 18.8635 19.3636C19.1564 19.0707 19.1564 18.5959 18.8635 18.303L17.8028 19.3636ZM18.2498 10.0833C18.2498 5.29682 14.3696 1.41663 9.58317 1.41663V2.91663C13.5412 2.91663 16.7498 6.12525 16.7498 10.0833H18.2498ZM9.58317 1.41663C4.7967 1.41663 0.916504 5.29682 0.916504 10.0833H2.4165C2.4165 6.12525 5.62513 2.91663 9.58317 2.91663V1.41663ZM0.916504 10.0833C0.916504 14.8698 4.7967 18.75 9.58317 18.75V17.25C5.62513 17.25 2.4165 14.0413 2.4165 10.0833H0.916504ZM9.58317 18.75C14.3696 18.75 18.2498 14.8698 18.2498 10.0833H16.7498C16.7498 14.0413 13.5412 17.25 9.58317 17.25V18.75ZM14.8862 16.447L17.8028 19.3636L18.8635 18.303L15.9468 15.3863L14.8862 16.447Z" fill="#919291"/>
</svg>
