<svg width="60" height="60" viewBox="0 0 60 60" fill="none" xmlns="http://www.w3.org/2000/svg">
<path d="M17.2675 4.50013C16.9915 3.71906 16.1345 3.30967 15.3534 3.58574C14.5723 3.86181 14.1629 4.71879 14.439 5.49987L17.2675 4.50013ZM14.439 54.5001C14.1629 55.2812 14.5723 56.1382 15.3534 56.4143C16.1345 56.6903 16.9915 56.2809 17.2675 55.4999L14.439 54.5001ZM43.4998 30C43.4998 37.4558 37.4556 43.5 29.9998 43.5V46.5C39.1125 46.5 46.4998 39.1127 46.4998 30H43.4998ZM29.9998 16.5C37.4556 16.5 43.4998 22.5442 43.4998 30H46.4998C46.4998 20.8873 39.1125 13.5 29.9998 13.5V16.5ZM29.9998 13.5C24.1241 13.5 19.1215 9.74552 17.2675 4.50013L14.439 5.49987C16.7034 11.9064 22.8132 16.5 29.9998 16.5V13.5ZM17.2675 55.4999C19.1215 50.2545 24.1241 46.5 29.9998 46.5V43.5C22.8132 43.5 16.7034 48.0936 14.439 54.5001L17.2675 55.4999Z" fill="#8EAEBA"/>
<path d="M43.5857 4.50013C43.8618 3.71906 44.7188 3.30967 45.4999 3.58574C46.2809 3.86181 46.6903 4.71879 46.4143 5.49987L43.5857 4.50013ZM46.4143 54.5001C46.6903 55.2812 46.2809 56.1382 45.4999 56.4143C44.7188 56.6903 43.8618 56.2809 43.5857 55.4999L46.4143 54.5001ZM17.3535 30C17.3535 37.4558 23.3977 43.5 30.8535 43.5V46.5C21.7408 46.5 14.3535 39.1127 14.3535 30H17.3535ZM30.8535 16.5C23.3977 16.5 17.3535 22.5442 17.3535 30H14.3535C14.3535 20.8873 21.7408 13.5 30.8535 13.5V16.5ZM30.8535 13.5C36.7291 13.5 41.7318 9.74552 43.5857 4.50013L46.4143 5.49987C44.1499 11.9064 38.04 16.5 30.8535 16.5V13.5ZM43.5857 55.4999C41.7318 50.2545 36.7291 46.5 30.8535 46.5V43.5C38.04 43.5 44.1499 48.0936 46.4143 54.5001L43.5857 55.4999Z" fill="#8EAEBA"/>
<path d="M17.5 25H42.5" stroke="#8EAEBA" stroke-width="3" stroke-linecap="round"/>
<path d="M17.5 35H42.5" stroke="#8EAEBA" stroke-width="3" stroke-linecap="round"/>
</svg>
