<svg width="251" height="47" viewBox="0 0 251 47" fill="none" xmlns="http://www.w3.org/2000/svg">
<g clip-path="url(#clip0_48_193)">
<path fill-rule="evenodd" clip-rule="evenodd" d="M135.445 40.0226C135.445 42.0077 135.445 43.997 135.445 45.9863C136.766 45.9103 138.334 46.1088 139.358 45.0867C140.7 43.9083 140.513 41.4079 138.937 40.5168C137.892 39.8706 136.613 40.0691 135.445 40.0226ZM195.238 42.5737H251V43.2072H195.238V42.5737ZM2.68481 42.5737H62.6947V43.2072H2.68481V42.5737ZM175.076 39.085L179.805 45.1796V39.085H180.735V46.7972H179.805V46.7803L179.792 46.7972L175.076 40.6815V46.7972H174.146V39.085H175.076ZM154.392 39.085H160.11V39.9762H155.331V42.4976H159.562V43.3888H155.331V45.9652H160.11V46.8015H154.392V39.085ZM115.377 39.085H116.009H116.315H121.095V39.9762H116.315V42.4976H120.547V43.3888H116.315V45.9652H121.095V46.8015H116.315H115.555H115.372V39.085H115.377ZM76.752 42.2358C76.1827 41.2981 76.5906 40.1029 77.419 39.4989C78.0052 39.0723 78.9228 38.9836 79.628 39.085C80.4139 39.199 81.1701 39.5454 81.888 39.8875L81.3868 40.728C80.6816 40.4027 79.8489 39.9128 79.0375 39.9212C78.5532 39.9255 77.916 40.1155 77.6568 40.5717C77.3892 41.0447 77.4147 41.6994 77.9627 41.9528C79.0163 42.5441 80.2992 42.599 81.34 43.2325C82.504 44.0435 82.2109 46.0243 80.9747 46.6283C79.3774 47.4561 77.5209 46.7803 76.1487 45.8258L76.718 45.0022C77.3552 45.4246 78.0264 45.8807 78.7784 46.0412C79.2584 46.1426 79.9806 46.1341 80.4097 45.8765C81.0172 45.5133 81.3783 44.7277 80.826 44.1322C79.5728 43.2832 77.7291 43.5071 76.752 42.2358ZM92.6827 39.1821H93.783L95.8986 45.3317L97.9674 39.2117L98.7194 39.2201L100.763 45.1163L102.925 39.1483H103.94L101.2 46.9282L100.334 46.8859L98.3285 40.9391L96.2087 46.8902L95.512 46.907L92.6827 39.1821ZM134.493 39.0765C136.282 39.1357 138.308 38.7936 139.838 39.9508C141.766 41.3573 141.762 44.5841 139.838 45.9905C138.304 47.152 136.273 46.7381 134.489 46.7972C134.489 44.2251 134.485 41.6487 134.493 39.0765Z" fill="white"/>
<path fill-rule="evenodd" clip-rule="evenodd" d="M191.521 3.40005L195.374 3.3916L204.249 16.6199L213.11 3.40005H217.01V29.6918L212.864 29.6876L212.856 10.5675L204.21 23.4198L195.565 10.6181L195.561 29.6918H191.517L191.521 3.40005Z" fill="white"/>
<path fill-rule="evenodd" clip-rule="evenodd" d="M128.011 3.3999H132.047V25.8862L146.282 25.8947V29.6875L128.011 29.6917V3.3999Z" fill="white"/>
<path fill-rule="evenodd" clip-rule="evenodd" d="M96.2556 3.3999H115.585L115.581 7.20535H100.296V15.0105L113.996 15.0147V18.8117L100.291 18.8244L100.3 29.6832L96.2556 29.6917V3.3999Z" fill="white"/>
<path fill-rule="evenodd" clip-rule="evenodd" d="M77.1387 3.3999H81.1745L81.183 29.6832L77.1387 29.6917V3.3999Z" fill="white"/>
<path fill-rule="evenodd" clip-rule="evenodd" d="M166.015 3.17188L169.486 3.20144L181.529 29.6917H177.022L174.061 22.9298L161.27 22.934L158.283 29.6917L153.929 29.6875L166.015 3.17188ZM162.842 19.3355L172.498 19.3397L167.693 8.35843L162.842 19.3355Z" fill="white"/>
<path fill-rule="evenodd" clip-rule="evenodd" d="M231.348 3.3999H250.89V7.20535L235.392 7.20112L235.388 14.5924L249.186 14.5882L249.19 18.3936L235.379 18.4021L235.388 25.9961L250.979 25.9834L251 29.6917H231.348V3.3999Z" fill="white"/>
<path fill-rule="evenodd" clip-rule="evenodd" d="M46.3437 7.20567C46.3352 10.196 46.3394 13.1863 46.3394 16.1765C48.6887 16.1639 51.0337 16.1934 53.3787 16.1808C55.0695 16.1934 56.8749 15.8091 58.1367 14.618C59.7467 13.106 59.8402 10.3015 58.2938 8.71348C57.0958 7.56889 55.3711 7.20989 53.7568 7.20144C51.2843 7.18032 48.8119 7.21411 46.3437 7.20567ZM42.1974 3.40022C46.195 3.40444 50.1925 3.396 54.1901 3.396C56.79 3.40444 59.5428 4.14779 61.3993 6.04418C63.9779 8.51498 64.2328 12.8315 62.3339 15.7669C61.1656 17.6083 59.1307 18.6136 57.1213 19.2767C59.7467 22.7484 62.3594 26.2329 65.006 29.692C63.2727 29.692 61.5352 29.692 59.8019 29.6962C57.6269 26.7566 55.456 23.817 53.3107 20.8563C52.9836 20.4804 52.6947 19.8806 52.083 19.9947C50.1713 19.9186 48.2554 20.0073 46.3394 19.9778C46.3394 23.213 46.3352 26.4483 46.3437 29.6836C44.963 29.692 43.5781 29.692 42.1974 29.692C42.1974 20.9281 42.1932 12.1641 42.1974 3.40022Z" fill="white"/>
<path fill-rule="evenodd" clip-rule="evenodd" d="M4.61641 4.1011C6.91468 1.89216 9.9139 0.418134 13.0873 0C10.4024 1.3262 7.75157 2.99452 6.17974 5.62159C3.43116 9.92964 2.97661 15.7708 5.44905 20.3027C7.4627 23.9984 11.6981 26.3551 15.9293 26.0426C21.7918 25.7976 26.7622 20.3408 26.3671 14.5122C26.21 9.16939 20.9422 4.62482 15.581 5.48643C11.987 5.84543 9.22994 8.46405 7.27153 11.2854C8.6182 7.25189 12.0465 3.71675 16.3584 2.96495C22.1997 1.84993 28.538 5.80742 30.0546 11.5388C31.7029 17.5405 28.9118 24.3067 23.6993 27.6687C19.9269 30.1944 14.999 30.811 10.6743 29.4933C5.98008 28.053 2.11423 24.2138 0.682587 19.5425C-1.02094 14.1912 0.512659 7.97834 4.61641 4.1011Z" fill="white"/>
</g>
<defs>
<clipPath id="clip0_48_193">
<rect width="251" height="47" fill="white"/>
</clipPath>
</defs>
</svg>
