<svg width="60" height="60" viewBox="0 0 60 60" fill="none" xmlns="http://www.w3.org/2000/svg">
<path d="M8.5 55C8.5 55.8284 9.17157 56.5 10 56.5C10.8284 56.5 11.5 55.8284 11.5 55H8.5ZM48.5 55C48.5 55.8284 49.1716 56.5 50 56.5C50.8284 56.5 51.5 55.8284 51.5 55H48.5ZM21 55C21 55.8284 21.6716 56.5 22.5 56.5C23.3284 56.5 24 55.8284 24 55H21ZM36 55C36 55.8284 36.6716 56.5 37.5 56.5C38.3284 56.5 39 55.8284 39 55H36ZM11.5 55V15H8.5V55H11.5ZM20 6.5H40V3.5H20V6.5ZM48.5 15V55H51.5V15H48.5ZM40 6.5C44.6944 6.5 48.5 10.3056 48.5 15H51.5C51.5 8.64873 46.3513 3.5 40 3.5V6.5ZM11.5 15C11.5 10.3056 15.3056 6.5 20 6.5V3.5C13.6487 3.5 8.5 8.64872 8.5 15H11.5ZM24 55V42.5H21V55H24ZM36 42.5V55H39V42.5H36ZM30 36.5C33.3137 36.5 36 39.1863 36 42.5H39C39 37.5294 34.9706 33.5 30 33.5V36.5ZM24 42.5C24 39.1863 26.6863 36.5 30 36.5V33.5C25.0294 33.5 21 37.5294 21 42.5H24Z" fill="#91ABB8"/>
<path d="M30 12.5V27.5" stroke="#91ABB8" stroke-width="3" stroke-linecap="round"/>
<path d="M37.5 20H22.5" stroke="#91ABB8" stroke-width="3" stroke-linecap="round"/>
<path d="M5 55H55" stroke="#91ABB8" stroke-width="3" stroke-linecap="round"/>
</svg>
