<svg width="60" height="60" viewBox="0 0 60 60" fill="none" xmlns="http://www.w3.org/2000/svg">
<path d="M41.1371 19.9238C41.43 19.6309 41.43 19.156 41.1371 18.8631C40.8442 18.5702 40.3693 18.5702 40.0764 18.8631L41.1371 19.9238ZM18.8632 40.0763C18.5703 40.3692 18.5703 40.8441 18.8632 41.137C19.1561 41.4299 19.631 41.4299 19.9239 41.137L18.8632 40.0763ZM40.0764 41.1368C40.3693 41.4297 40.8442 41.4297 41.1371 41.1368C41.43 40.844 41.43 40.3691 41.1371 40.0762L40.0764 41.1368ZM19.9239 18.863C19.631 18.5701 19.1561 18.5701 18.8632 18.863C18.5703 19.1559 18.5703 19.6307 18.8632 19.9236L19.9239 18.863ZM40.0764 18.8631L18.8632 40.0763L19.9239 41.137L41.1371 19.9238L40.0764 18.8631ZM41.1371 40.0762L19.9239 18.863L18.8632 19.9236L40.0764 41.1368L41.1371 40.0762Z" fill="#919291"/>
</svg>
