<svg width="30" height="30" viewBox="0 0 30 30" fill="none" xmlns="http://www.w3.org/2000/svg">
<path d="M18.75 20L18.6029 20.7354C18.9346 20.8018 19.2696 20.6379 19.4208 20.3354L18.75 20ZM10 11.25L9.66459 10.5792C9.36208 10.7304 9.19824 11.0654 9.26456 11.3971L10 11.25ZM10.4425 11.0287L10.7779 11.6996L10.7779 11.6996L10.4425 11.0287ZM11.6457 7.8642L12.342 7.58565L11.6457 7.8642ZM10.6286 5.32152L9.93225 5.60007L10.6286 5.32152ZM24.6785 19.3714L24.957 18.675L24.6785 19.3714ZM22.1358 18.3543L22.4143 17.658H22.4143L22.1358 18.3543ZM18.9713 19.5575L19.6421 19.8929V19.8929L18.9713 19.5575ZM25.5 21.6926V23.75H27V21.6926H25.5ZM6.25 4.5H8.30742V3H6.25V4.5ZM18.75 20C18.8971 19.2646 18.8973 19.2646 18.8975 19.2646C18.8975 19.2647 18.8977 19.2647 18.8978 19.2647C18.898 19.2648 18.8982 19.2648 18.8983 19.2648C18.8985 19.2649 18.8985 19.2649 18.8984 19.2648C18.8981 19.2648 18.897 19.2645 18.8952 19.2642C18.8917 19.2634 18.8852 19.262 18.876 19.26C18.8575 19.2559 18.8279 19.2492 18.7881 19.2395C18.7085 19.2201 18.5881 19.189 18.4343 19.1438C18.1263 19.0532 17.686 18.9066 17.1704 18.6856C16.1358 18.2422 14.8189 17.5083 13.6553 16.3447L12.5947 17.4053C13.9311 18.7417 15.4267 19.5703 16.5796 20.0644C17.1577 20.3121 17.655 20.4781 18.011 20.5828C18.1892 20.6352 18.3326 20.6724 18.4336 20.697C18.4841 20.7093 18.5241 20.7184 18.5526 20.7247C18.5669 20.7279 18.5783 20.7303 18.5867 20.7321C18.5909 20.733 18.5944 20.7337 18.5971 20.7343C18.5984 20.7345 18.5996 20.7348 18.6006 20.735C18.6011 20.7351 18.6015 20.7352 18.6019 20.7352C18.6021 20.7353 18.6023 20.7353 18.6024 20.7353C18.6027 20.7354 18.6029 20.7354 18.75 20ZM13.6553 16.3447C12.4917 15.1811 11.7578 13.8642 11.3144 12.8296C11.0934 12.314 10.9468 11.8737 10.8562 11.5657C10.811 11.4119 10.7799 11.2915 10.7605 11.2119C10.7508 11.1721 10.7441 11.1425 10.74 11.124C10.738 11.1148 10.7366 11.1083 10.7358 11.1048C10.7355 11.103 10.7352 11.1019 10.7352 11.1016C10.7351 11.1015 10.7351 11.1015 10.7352 11.1017C10.7352 11.1018 10.7352 11.102 10.7353 11.1022C10.7353 11.1023 10.7353 11.1025 10.7354 11.1025C10.7354 11.1027 10.7354 11.1029 10 11.25C9.26456 11.3971 9.26461 11.3973 9.26466 11.3976C9.26468 11.3977 9.26473 11.3979 9.26477 11.3981C9.26485 11.3985 9.26494 11.3989 9.26504 11.3994C9.26523 11.4004 9.26547 11.4016 9.26575 11.4029C9.2663 11.4056 9.26702 11.4091 9.26791 11.4133C9.26968 11.4217 9.27212 11.4331 9.27527 11.4474C9.28156 11.4759 9.2907 11.5159 9.30299 11.5664C9.32756 11.6674 9.36478 11.8108 9.41719 11.989C9.52192 12.345 9.68785 12.8423 9.93564 13.4204C10.4297 14.5733 11.2583 16.0689 12.5947 17.4053L13.6553 16.3447ZM10.3354 11.9208L10.7779 11.6996L10.1071 10.3579L9.66459 10.5792L10.3354 11.9208ZM12.342 7.58565L11.325 5.04298L9.93225 5.60007L10.9493 8.14274L12.342 7.58565ZM24.957 18.675L22.4143 17.658L21.8573 19.0507L24.3999 20.0677L24.957 18.675ZM18.3004 19.2221L18.0792 19.6646L19.4208 20.3354L19.6421 19.8929L18.3004 19.2221ZM22.4143 17.658C20.845 17.0302 19.0564 17.7102 18.3004 19.2221L19.6421 19.8929C20.0491 19.0788 21.0122 18.7127 21.8573 19.0507L22.4143 17.658ZM10.7779 11.6996C12.2898 10.9436 12.9698 9.15505 12.342 7.58565L10.9493 8.14274C11.2873 8.9878 10.9212 9.95089 10.1071 10.3579L10.7779 11.6996ZM8.30742 4.5C9.023 4.5 9.66649 4.93566 9.93225 5.60007L11.325 5.04298C10.8314 3.80909 9.63636 3 8.30742 3V4.5ZM27 21.6926C27 20.3636 26.1909 19.1686 24.957 18.675L24.3999 20.0677C25.0643 20.3335 25.5 20.977 25.5 21.6926H27ZM23.75 25.5C13.1185 25.5 4.5 16.8815 4.5 6.25H3C3 17.7099 12.2901 27 23.75 27V25.5ZM23.75 27C25.5449 27 27 25.5449 27 23.75H25.5C25.5 24.7165 24.7165 25.5 23.75 25.5V27ZM4.5 6.25C4.5 5.2835 5.2835 4.5 6.25 4.5V3C4.45507 3 3 4.45507 3 6.25H4.5Z" fill="#8EAEBA"/>
</svg>
