<svg width="60" height="60" viewBox="0 0 60 60" fill="none" xmlns="http://www.w3.org/2000/svg">
<path d="M30 13.8106L28.902 14.8325C29.1858 15.1374 29.5835 15.3106 30 15.3106C30.4165 15.3106 30.8142 15.1374 31.098 14.8325L30 13.8106ZM31.9126 11.7557L30.8146 10.7337L30.8146 10.7337L31.9126 11.7557ZM28.0874 11.7557L29.1854 10.7337L29.1854 10.7337L28.0874 11.7557ZM8.96117 32.3041L7.86319 33.3261L7.86319 33.3261L8.96117 32.3041ZM26.1748 50.7977L27.2727 49.7757L27.2727 49.7757L26.1748 50.7977ZM33.8252 50.7977L32.7273 49.7757L33.8252 50.7977ZM51.0388 32.3041L49.9409 31.2822L49.9409 31.2822L51.0388 32.3041ZM51.0388 11.7557L52.1368 10.7337L52.1368 10.7337L51.0388 11.7557ZM8.96117 11.7557L7.86319 10.7337L8.96117 11.7557ZM7.5 28.5C6.67157 28.5 6 29.1716 6 30C6 30.8284 6.67157 31.5 7.5 31.5V28.5ZM20 30V31.5C20.5015 31.5 20.9699 31.2493 21.2481 30.8321L20 30ZM25 22.5L26.2481 21.6679C25.9699 21.2507 25.5015 21 25 21C24.4985 21 24.0301 21.2507 23.7519 21.6679L25 22.5ZM35 37.5L33.7519 38.3321C34.0301 38.7493 34.4985 39 35 39C35.5015 39 35.9699 38.7493 36.2481 38.3321L35 37.5ZM40 30V28.5C39.4985 28.5 39.0301 28.7507 38.7519 29.1679L40 30ZM52.5 31.5C53.3284 31.5 54 30.8284 54 30C54 29.1716 53.3284 28.5 52.5 28.5V31.5ZM31.098 14.8325L33.0106 12.7777L30.8146 10.7337L28.902 12.7886L31.098 14.8325ZM26.9894 12.7777L28.902 14.8325L31.098 12.7886L29.1854 10.7337L26.9894 12.7777ZM7.86319 33.3261L25.0768 51.8197L27.2727 49.7757L10.0591 31.2822L7.86319 33.3261ZM34.9232 51.8197L52.1368 33.3261L49.9409 31.2822L32.7273 49.7757L34.9232 51.8197ZM49.9409 12.7777C54.6864 17.8761 54.6864 26.1838 49.9409 31.2822L52.1368 33.3261C57.9544 27.0759 57.9544 16.9839 52.1368 10.7337L49.9409 12.7777ZM52.1368 10.7337C46.262 4.42209 36.6894 4.42209 30.8146 10.7337L33.0106 12.7777C37.6989 7.74077 45.2525 7.74077 49.9409 12.7777L52.1368 10.7337ZM10.0591 12.7777C14.7475 7.74077 22.3011 7.74077 26.9894 12.7777L29.1854 10.7337C23.3106 4.42209 13.738 4.42209 7.86319 10.7337L10.0591 12.7777ZM25.0768 51.8197C27.7826 54.7268 32.2174 54.7268 34.9232 51.8197L32.7273 49.7757C31.2079 51.4081 28.7921 51.4081 27.2727 49.7757L25.0768 51.8197ZM7.86319 10.7337C2.0456 16.9839 2.0456 27.0759 7.86319 33.3261L10.0591 31.2822C5.31362 26.1838 5.31362 17.8761 10.0591 12.7777L7.86319 10.7337ZM7.5 31.5H20V28.5H7.5V31.5ZM21.2481 30.8321L26.2481 23.3321L23.7519 21.6679L18.7519 29.1679L21.2481 30.8321ZM23.7519 23.3321L33.7519 38.3321L36.2481 36.6679L26.2481 21.6679L23.7519 23.3321ZM36.2481 38.3321L41.2481 30.8321L38.7519 29.1679L33.7519 36.6679L36.2481 38.3321ZM40 31.5H52.5V28.5H40V31.5Z" fill="#8EAEBA"/>
</svg>
