<svg width="34" height="34" viewBox="0 0 34 34" fill="none" xmlns="http://www.w3.org/2000/svg">
<path d="M33.6202 1.6205C33.9131 1.3276 33.9131 0.852729 33.6202 0.559835C33.3273 0.266941 32.8524 0.26694 32.5595 0.559832L33.6202 1.6205ZM0.559515 32.5596C0.266621 32.8525 0.26662 33.3274 0.559512 33.6203C0.852404 33.9132 1.32728 33.9132 1.62017 33.6203L0.559515 32.5596ZM32.5595 33.6201C32.8524 33.913 33.3273 33.913 33.6202 33.6201C33.9131 33.3272 33.9131 32.8523 33.6202 32.5594L32.5595 33.6201ZM1.62017 0.559634C1.32728 0.266742 0.852404 0.266743 0.559512 0.559637C0.26662 0.852531 0.266621 1.32741 0.559515 1.6203L1.62017 0.559634ZM32.5595 0.559832L0.559515 32.5596L1.62017 33.6203L33.6202 1.6205L32.5595 0.559832ZM33.6202 32.5594L1.62017 0.559634L0.559515 1.6203L32.5595 33.6201L33.6202 32.5594Z" fill="#919291"/>
</svg>
