<svg width="60" height="60" viewBox="0 0 60 60" fill="none" xmlns="http://www.w3.org/2000/svg">
<path d="M46.352 9.30668L45.2248 10.2962L45.2248 10.2962L46.352 9.30668ZM53.6573 17.6287L54.7846 16.6392V16.6392L53.6573 17.6287ZM53.8976 24.4869L55.0921 25.3942H55.0921L53.8976 24.4869ZM34.2134 50.3991L33.019 49.4918L34.2134 50.3991ZM25.7866 50.3991L26.981 49.4918V49.4918L25.7866 50.3991ZM6.10238 24.4869L4.90794 25.3942H4.90794L6.10238 24.4869ZM6.34273 17.6287L7.47002 18.6183H7.47002L6.34273 17.6287ZM13.648 9.30668L12.5207 8.31713L12.5207 8.31713L13.648 9.30668ZM53.9211 22.4571C54.7495 22.4571 55.4211 21.7856 55.4211 20.9571C55.4211 20.1287 54.7495 19.4571 53.9211 19.4571V22.4571ZM30 51.9085L28.5814 52.3958C28.7895 53.0017 29.3594 53.4085 30 53.4085C30.6406 53.4085 31.2105 53.0017 31.4186 52.3958L30 51.9085ZM6.07891 19.4571C5.25048 19.4571 4.57891 20.1287 4.57891 20.9571C4.57891 21.7856 5.25048 22.4571 6.07891 22.4571V19.4571ZM45.2248 10.2962L52.53 18.6183L54.7846 16.6392L47.4793 8.31713L45.2248 10.2962ZM52.7032 23.5795L33.019 49.4918L35.4079 51.3065L55.0921 25.3942L52.7032 23.5795ZM26.981 49.4918L7.29683 23.5795L4.90794 25.3942L24.5921 51.3065L26.981 49.4918ZM7.47002 18.6183L14.7753 10.2962L12.5207 8.31713L5.21544 16.6392L7.47002 18.6183ZM35.3158 9H42.379V6H35.3158V9ZM40.6316 22.4571H53.9211V19.4571H40.6316V22.4571ZM33.9207 8.05109L39.2365 21.5082L42.0267 20.406L36.7109 6.94891L33.9207 8.05109ZM31.4186 52.3958L42.0502 21.4444L39.213 20.4698L28.5814 51.4213L31.4186 52.3958ZM17.621 9H25.2748V6H17.621V9ZM25.2748 9H35.3158V6H25.2748V9ZM6.07891 22.4571H19.3684V19.4571H6.07891V22.4571ZM19.3684 22.4571H40.6316V19.4571H19.3684V22.4571ZM23.9013 6.89715L17.9949 20.3543L20.7419 21.56L26.6484 8.10285L23.9013 6.89715ZM31.4186 51.4213L20.787 20.4698L17.9498 21.4444L28.5814 52.3958L31.4186 51.4213ZM7.29683 23.5795C6.17179 22.0985 6.24576 20.013 7.47002 18.6183L5.21544 16.6392C3.04904 19.1071 2.92124 22.779 4.90794 25.3942L7.29683 23.5795ZM33.019 49.4918C31.4914 51.5027 28.5086 51.5027 26.981 49.4918L24.5921 51.3065C27.3203 54.8978 32.6797 54.8978 35.4079 51.3065L33.019 49.4918ZM52.53 18.6183C53.7542 20.013 53.8282 22.0985 52.7032 23.5795L55.0921 25.3942C57.0788 22.779 56.951 19.1071 54.7846 16.6392L52.53 18.6183ZM47.4793 8.31713C46.1881 6.84614 44.3326 6 42.379 6V9C43.4622 9 44.4985 9.46886 45.2248 10.2962L47.4793 8.31713ZM14.7753 10.2962C15.5015 9.46886 16.5378 9 17.621 9V6C15.6674 6 13.8119 6.84614 12.5207 8.31713L14.7753 10.2962Z" fill="#8EAEBA"/>
</svg>
