<svg width="250" height="72" viewBox="0 0 250 72" fill="none" xmlns="http://www.w3.org/2000/svg">
<g clip-path="url(#clip0_48_190)">
<path fill-rule="evenodd" clip-rule="evenodd" d="M232.862 67.1838C232.855 67.5111 232.855 67.8385 232.862 68.1658C233.21 68.1522 233.585 68.2204 233.919 68.0772C234.247 67.934 234.254 67.4156 233.933 67.2588C233.599 67.1156 233.217 67.2042 232.862 67.1838ZM232.077 66.4813C232.712 66.4949 233.346 66.4404 233.981 66.5154C234.513 66.5836 234.99 67.0542 234.963 67.6134C234.984 68.0908 234.677 68.5205 234.247 68.691C234.513 69.1002 234.793 69.5094 235.066 69.9118C234.758 69.9186 234.451 69.9186 234.151 69.9186C233.899 69.5503 233.667 69.1684 233.414 68.8001C233.223 68.8001 233.039 68.8001 232.855 68.8001C232.855 69.1684 232.855 69.5435 232.855 69.9118C232.589 69.9118 232.33 69.9118 232.07 69.9118C232.077 68.7797 232.077 67.6339 232.077 66.4813ZM232.664 65.8129C233.674 65.506 234.874 65.8743 235.495 66.7404C236.055 67.477 236.157 68.5137 235.782 69.3594C235.393 70.2664 234.445 70.9007 233.455 70.8939C232.582 70.9348 231.695 70.4847 231.238 69.7413C230.794 69.0661 230.692 68.1795 230.972 67.4225C231.231 66.6518 231.886 66.0312 232.664 65.8129ZM233.176 65.0832C234.144 65.0081 235.141 65.3969 235.789 66.1198C236.457 66.8496 236.751 67.8931 236.567 68.8683C236.416 69.7754 235.837 70.6006 235.045 71.0644C234.117 71.6168 232.916 71.6646 231.954 71.1803C231.176 70.8121 230.583 70.1028 230.33 69.2843C229.901 67.9885 230.405 66.4608 231.524 65.6765C232.009 65.3355 232.582 65.1241 233.176 65.0832ZM121.729 19.1497C124.383 19.1497 127.038 19.1428 129.692 19.1497C128.218 21.5094 126.724 23.8692 125.243 26.2221C122.63 26.2221 120.024 26.2289 117.41 26.2221C118.83 23.8487 120.303 21.5094 121.729 19.1497ZM39.3899 32.6194C38.0731 34.7609 36.8176 36.9365 35.7464 39.2076C35.0368 40.749 34.375 42.3244 34.0748 44.0022C33.9247 44.8956 33.8701 45.905 34.3955 46.6893C34.8936 47.4122 35.8488 47.5759 36.6743 47.5486C38.2436 47.4531 39.8129 46.9621 41.0752 46.0141C42.16 45.2434 43.1289 44.3227 43.9954 43.3202C46.3357 40.6398 48.0209 37.4821 49.713 34.3722C46.4312 33.9561 43.5314 31.7396 41.9417 28.882C41.0274 30.0823 40.195 31.344 39.3899 32.6194ZM101.922 21.9868C101.117 22.2323 100.394 22.6961 99.6912 23.1462C98.5995 23.8555 97.6648 24.7762 96.7642 25.7174C95.2904 27.3065 93.9736 29.032 92.7113 30.7916C91.1966 32.9399 89.757 35.1428 88.447 37.4207C87.7306 38.6416 87.1984 39.9578 86.7208 41.2809C86.2568 42.6586 85.7997 44.084 85.8679 45.5503C85.8884 46.0618 86.0726 46.6211 86.5434 46.8939C87.0551 47.1531 87.6623 47.1531 88.2013 46.9962C89.1156 46.7439 89.9003 46.1846 90.6167 45.5776C92.2337 44.159 93.5437 42.4335 94.6832 40.6126C97.9036 35.1292 101.124 29.6458 104.344 24.1624C104.522 23.8692 104.556 23.5077 104.433 23.1872C104.072 22.2392 102.898 21.639 101.922 21.9868ZM48.9625 21.9936C49.7813 21.8368 50.7228 21.8913 51.3846 22.4506C52.1488 23.1667 52.5241 24.2034 52.6264 25.2332C52.7765 26.795 52.4422 28.3705 51.9714 29.8504C51.678 30.6893 51.3574 31.535 50.8525 32.2716C50.6682 32.5989 50.252 32.4216 49.9518 32.4216C48.1437 32.1352 46.554 31.0508 45.2986 29.7618C44.4935 28.9774 44.125 27.8044 44.3092 26.6995C44.6845 24.3739 46.6632 22.4369 48.9625 21.9936ZM46.4244 19.4429C47.6047 18.9996 48.867 18.6927 50.1361 18.795C51.8896 18.9246 53.4179 20.1522 54.223 21.6731C55.0895 23.3781 55.0349 25.3764 54.6801 27.2042C54.2981 29.1207 53.5543 30.9485 52.6742 32.6876C55.0213 32.633 57.4571 32.2988 59.4971 31.0644C60.6502 30.3892 61.4826 29.3185 62.4378 28.4046C64.5939 26.2358 66.8114 24.1011 69.2676 22.2733C70.6868 21.223 72.1879 20.2613 73.8322 19.593C75.1285 19.0746 76.5341 18.7404 77.9328 18.8973C79.4748 19.0542 80.9212 19.8862 81.8901 21.0866C82.7361 22.3074 82.7157 23.9033 82.4564 25.3082C82.1084 27.0133 81.3238 28.6501 80.123 29.9186C79.2564 30.8189 78.0829 31.5145 76.807 31.5418C76.2953 31.5759 75.7563 31.3781 75.456 30.9485C75.0535 30.3824 75.0535 29.6322 75.1695 28.9706C75.3401 28.1113 75.8859 27.3952 76.4044 26.7063C76.9912 25.9766 77.6803 25.2809 78.5605 24.9195C79.2769 24.6194 80.1161 24.7012 80.7916 25.0763C80.9212 24.3329 81.0168 23.5145 80.662 22.8189C80.3959 22.2733 79.7682 21.9936 79.1814 22.0005C78.3422 21.9936 77.4825 22.1778 76.7524 22.6006C74.2347 23.9783 72.1879 26.0653 70.4002 28.2818C67.48 31.951 65.2011 36.084 63.2771 40.3466C62.854 41.3423 62.3491 42.3108 62.1376 43.3815C61.9466 44.3364 61.8511 45.3321 62.0558 46.2937C62.2536 47.2963 62.8472 48.2443 63.7547 48.749C65.0579 49.4855 66.6954 49.3491 68.019 48.7285C70.6049 47.4463 72.9179 45.6595 74.9443 43.6134C78.3353 40.1829 80.969 36.1181 83.7596 32.2102C86.4274 28.4932 89.2794 24.8035 92.9774 22.0414C95.2495 20.3841 97.8695 18.9587 100.735 18.8291C102.755 18.7268 104.788 19.6202 106.084 21.182C106.521 20.4932 106.917 19.7839 107.333 19.0815C109.946 19.0746 112.559 19.0746 115.173 19.0815C110.437 27.3202 105.668 35.5384 100.919 43.7703C100.558 44.3227 100.285 44.9911 100.408 45.6595C100.455 46.0346 100.769 46.3483 101.151 46.396C102.066 46.5188 102.925 46.0687 103.669 45.5913C105.122 44.6228 106.357 43.3747 107.558 42.1198C109.141 40.4421 110.622 38.6757 112.123 36.9297C112.723 36.9297 113.323 36.9229 113.931 36.9297C111.897 40.1556 109.509 43.1497 106.896 45.9118C104.242 48.6535 101.342 51.2383 97.9309 52.9979C96.8187 53.5503 95.6452 54.0141 94.4171 54.2392C93.6597 54.3824 92.8137 54.2733 92.2064 53.7754C91.4968 53.1957 91.1761 52.275 91.0397 51.3952C90.8828 50.0925 91.0124 48.749 91.4491 47.5077C89.8252 49.0968 88.2491 50.7541 86.4205 52.1113C85.1515 53.0388 83.7323 53.8436 82.163 54.1096C80.9417 54.321 79.659 54.171 78.5196 53.6731C77.7213 53.3253 77.0185 52.7387 76.6091 51.9613C75.9882 50.8086 75.9814 49.4514 76.1042 48.1761C76.2816 46.5802 76.7388 45.0252 77.1754 43.4838C75.3469 45.4207 73.4842 47.3304 71.4578 49.0627C69.3495 50.8564 67.0092 52.4318 64.4097 53.4208C63.1815 53.8845 61.8988 54.2323 60.5956 54.4028C58.6443 54.6484 56.5974 53.9936 55.185 52.6296C53.1381 50.7336 52.2853 47.7601 52.7356 45.0388C53.2951 42.113 54.3663 39.2895 55.9492 36.7592C56.5837 35.7157 57.2592 34.6995 57.9552 33.697C57.2046 34.0994 56.3518 34.2494 55.5194 34.379C54.2981 34.5563 53.0631 34.6381 51.835 34.604C49.9587 37.714 48.096 40.8376 45.9809 43.7976C43.8999 46.6757 41.5732 49.4378 38.6871 51.5452C36.5242 53.1138 33.9725 54.2596 31.2706 54.3756C30.3495 54.4506 29.367 54.3824 28.5755 53.8572C27.2109 52.9843 26.4672 51.4156 26.1329 49.8743C25.7781 48.2102 25.86 46.4711 26.2625 44.8206C26.6855 43.2179 27.2723 41.6629 27.8932 40.1215C29.5512 36.1181 31.7482 32.3398 34.4569 28.957C36.763 26.0925 39.4308 23.4804 42.5284 21.4753C43.7702 20.6774 45.0598 19.9681 46.4244 19.4429ZM43.1016 1.80609C45.6261 1.2673 48.2938 1.15818 50.7911 1.88793C51.8145 2.1812 52.722 2.85639 53.2746 3.77028C54.1275 5.19569 54.2639 6.94164 53.991 8.55119C53.7181 10.2426 52.9539 11.8453 51.7872 13.107C51.18 13.8095 50.5318 14.5052 49.6857 14.928C48.8329 15.3645 47.7753 15.3918 46.902 15.003C46.2197 14.6893 45.8239 13.9527 45.783 13.223C45.6465 11.6475 46.4789 10.1676 47.5501 9.07634C48.6964 7.93056 50.293 7.35085 51.8759 7.1667C52.2034 7.13942 52.6333 7.03712 52.6947 6.64838C52.7492 6.17097 52.4354 5.75494 52.1284 5.42757C51.18 4.44548 49.7403 3.99535 48.3962 4.17949C46.8269 4.39774 45.2986 4.8956 43.8862 5.61854C41.9758 6.59381 40.2973 7.9442 38.6462 9.29458C29.4147 16.708 21.9913 26.2562 16.5534 36.7456C14.7863 40.2102 13.0737 43.743 12.1322 47.535C11.5113 50.0243 11.2384 52.616 11.5386 55.1667C11.7842 57.2946 12.446 59.3815 13.4695 61.2707C14.3974 62.9621 15.7279 64.4216 17.3108 65.5196C20.2242 67.5452 23.8199 68.3568 27.3269 68.4318C29.7627 68.5 32.1848 68.1113 34.5865 67.743C41.7916 66.5631 48.7987 64.4898 55.8537 62.6688C62.24 61.0184 68.7286 59.5793 75.3332 59.252C78.5469 59.0746 81.7809 59.1974 84.9741 59.6202C89.7774 60.2613 94.5603 61.2775 99.0771 63.0712C103.444 64.7831 107.551 67.2792 110.819 70.6688C106.951 68.9843 102.946 67.5111 98.7701 66.8291C95.959 66.379 93.0456 66.2971 90.2687 67.0064C88.3856 67.4838 86.5979 68.3636 85.0832 69.5844C84.1826 70.2937 83.398 71.1326 82.6474 71.9988C81.508 69.6867 79.4338 67.9476 77.1004 66.9109C74.0028 65.5196 70.5913 65.0832 67.2412 64.7899C63.2361 64.4762 59.1969 64.6944 55.2396 65.3287C48.1642 66.4404 41.3754 68.7797 34.3955 70.3142C30.2744 71.2349 26.0715 71.9237 21.8412 71.876C17.3722 71.8419 12.794 71.1599 8.78891 69.0661C6.03244 67.6475 3.66487 65.4242 2.2457 62.6484C1.35189 60.9297 0.833344 59.0405 0.458081 57.1445C-0.435727 52.5069 0.0487032 47.6714 1.45423 43.1838C2.67554 39.2076 4.57232 35.4634 6.78296 31.9442C8.9936 28.4387 11.5386 25.1445 14.2609 22.0209C16.8059 19.0815 19.5555 16.3125 22.4689 13.7413C25.6894 10.9178 29.1077 8.31248 32.7921 6.11641C36.0057 4.22041 39.4376 2.60404 43.1016 1.80609ZM170.677 8.92629C169.019 10.0721 167.498 11.402 166.079 12.8206C164.666 14.2869 163.302 15.8214 162.224 17.5606C161.214 19.1769 160.497 20.957 159.883 22.7575C159.542 23.7464 159.447 24.8308 159.685 25.8538C159.89 26.7473 160.388 27.6612 161.248 28.0704C162.08 28.4864 163.036 28.2272 163.841 27.8726C166.01 26.9178 167.784 25.2741 169.34 23.5282C171.885 20.5887 173.823 17.1104 174.901 13.3662C175.522 11.1224 175.849 8.75579 175.556 6.43695C173.802 6.98256 172.185 7.88964 170.677 8.92629ZM157.741 4.28179C153.981 6.0141 150.44 8.19654 147.083 10.6109C143.686 13.0729 140.458 15.7805 137.511 18.7677C134.898 21.3935 132.489 24.217 130.265 27.1838C127.624 30.7098 125.284 34.454 123.128 38.2937C122.139 40.0806 121.108 41.8538 120.283 43.7225C118.584 47.61 117.513 51.7907 117.308 56.026C117.219 58.3994 117.39 60.8138 118.12 63.0917C118.57 64.5171 119.246 65.8743 120.174 67.0405C121.347 68.541 122.964 69.6799 124.745 70.3551C126.737 71.119 128.893 71.3645 131.022 71.344C133.335 71.3099 135.628 70.8734 137.825 70.1641C141.577 68.9297 145.043 66.8768 148.059 64.3398C151.109 61.7618 153.729 58.6722 155.708 55.2008C157.802 51.5111 159.174 47.3304 159.133 43.0542C159.078 41.8402 159.051 40.5921 158.56 39.46C158.014 38.1028 156.779 37.0934 155.373 36.7319C153.197 36.1522 150.891 36.5751 148.81 37.3253C147.077 37.9664 145.419 38.8871 144.04 40.1215C142.84 41.24 141.782 42.5017 140.827 43.8385C139.612 45.5094 138.527 47.269 137.6 49.1104C136.651 51.061 135.832 53.1207 135.559 55.2895C135.457 56.2375 135.403 57.2264 135.648 58.1607C138.186 54.7643 141.837 52.2068 145.91 51.0201C146.162 48.3057 146.783 45.5435 148.277 43.2178C149.267 41.6629 150.72 40.3602 152.487 39.7737C153.572 39.4668 154.773 39.3986 155.831 39.8351C156.533 40.1147 157.065 40.7694 157.175 41.5196C157.393 43.0201 157.366 44.5614 157.154 46.0618C156.608 49.7038 154.964 53.1002 152.822 56.067C150.338 59.4838 147.179 62.4029 143.638 64.7012C142.096 65.7583 140.308 66.4199 138.487 66.795C136.481 67.1906 134.311 67.2724 132.387 66.4608C131.009 65.8947 129.903 64.7081 129.453 63.2826C128.348 59.6612 128.273 55.7601 129.064 52.0704C129.842 48.3261 131.404 44.7933 133.247 41.4651C135.239 37.8709 137.579 34.4881 139.899 31.1121C142.075 27.8999 144.293 24.7012 146.77 21.714C149.41 18.5017 152.296 15.4872 155.469 12.8001C158.642 10.1062 162.101 7.75323 165.765 5.78904C167.314 4.97063 168.944 4.21359 170.705 4.01581C171.803 3.87259 172.942 4.08401 173.932 4.57506C170.623 6.28009 167.423 8.27838 164.755 10.8905C163.506 12.0772 162.503 13.489 161.494 14.8734C160.245 16.6262 159.099 18.4676 158.28 20.4659C157.625 22.0891 157.188 23.8487 157.4 25.6083C157.509 26.7063 157.768 27.8248 158.396 28.7524C159.044 29.7208 160.122 30.3551 161.262 30.5529C162.224 30.7029 163.22 30.5188 164.107 30.1232C168.856 27.7635 172.676 23.6919 174.976 18.945C177.016 14.7916 177.91 10.0857 177.575 5.46849C179.233 5.10703 180.959 4.97745 182.638 5.26389C184.76 5.72084 186.732 6.6552 188.683 7.58955C190.546 8.49663 192.388 9.45144 194.21 10.4404C197.928 12.4659 201.606 14.5734 205.195 16.8172C207.276 14.6552 209.391 12.5341 211.458 10.3585C208.899 8.75579 206.32 7.18034 203.639 5.79586C199.757 3.77028 195.636 2.15392 191.344 1.22638C186.138 0.578469 180.816 1.51965 175.992 3.5384C175.317 2.3858 174.075 1.70379 172.82 1.34232C172.001 1.08316 171.134 1.10362 170.288 1.07634C165.935 1.12408 161.691 2.48128 157.741 4.28179ZM168.944 50.8018C169.906 49.1923 170.937 47.6237 172.056 46.1164C173.645 48.9809 176.538 51.2042 179.84 51.6134C178.121 54.7848 176.388 58.0039 173.98 60.7251C172.861 61.9595 171.612 63.1121 170.145 63.9169C169.074 64.4489 167.887 64.749 166.693 64.7967C165.983 64.7967 165.192 64.6808 164.687 64.1352C164.12 63.5214 164.045 62.6143 164.12 61.8163C164.311 60.084 164.973 58.454 165.676 56.8717C166.618 54.778 167.75 52.7728 168.944 50.8018ZM178.762 39.3031C179.636 39.0849 180.659 39.0576 181.41 39.6236C182.317 40.3943 182.692 41.6015 182.761 42.7541C182.829 44.1249 182.57 45.489 182.174 46.7984C181.86 47.7464 181.526 48.7149 180.953 49.5469C180.857 49.7243 180.639 49.7106 180.475 49.7038C179.424 49.6492 178.414 49.24 177.521 48.7012C176.641 48.1624 175.822 47.5009 175.153 46.7166C174.457 45.8845 174.239 44.7183 174.478 43.6748C174.948 41.5742 176.688 39.8351 178.762 39.3031ZM226.653 38.9826C227.39 38.7302 228.188 39.078 228.727 39.5895C229.157 40.0192 229.286 40.7285 228.959 41.2537C225.8 46.662 222.62 52.0567 219.455 57.4583C218.609 58.8564 217.64 60.1795 216.541 61.3867C215.641 62.3346 214.679 63.269 213.485 63.8214C212.768 64.1624 211.881 64.292 211.158 63.8965C210.523 63.5896 210.203 62.8871 210.175 62.2119C210.121 61.0525 210.503 59.934 210.912 58.87C211.683 56.9672 212.659 55.1462 213.737 53.4003C215.75 50.1198 217.899 46.9144 220.369 43.9544C221.474 42.6518 222.634 41.3764 224.026 40.3739C224.845 39.8283 225.691 39.269 226.653 38.9826ZM230.133 0.844453C230.849 0.803533 231.613 0.796713 232.282 1.11044C232.998 1.54011 233.278 2.39262 233.414 3.16329C233.687 4.93652 233.332 6.77114 232.575 8.38751C232.289 8.97404 231.941 9.53329 231.511 10.0312C231.361 10.2494 231.067 10.2085 230.842 10.2767C230.276 10.4131 229.682 10.4472 229.102 10.4131C230.235 9.15818 231.17 7.65093 231.449 5.96636C231.593 5.13431 231.47 4.19995 230.904 3.5384C230.61 3.18375 230.105 3.15647 229.689 3.22467C229.027 3.35426 228.427 3.66798 227.854 4.00217C226.305 4.9297 225.043 6.22553 223.726 7.43951C217.728 13.1275 212.461 19.5657 207.931 26.4676C203.939 32.5375 200.507 38.9621 197.512 45.5708C199.197 44.35 200.964 43.2383 202.643 42.0039C205.918 39.5896 208.804 36.7046 211.806 33.9698C212.263 33.5606 212.72 33.1582 213.109 32.6808C215.825 29.6185 218.52 26.5358 221.092 23.3577C221.795 22.4711 222.511 21.5913 223.098 20.6228C223.726 20.616 224.353 20.5682 224.981 20.541C220.956 27.1906 215.736 33.0559 209.964 38.246C205.618 42.1539 200.951 45.6936 196.1 48.9536C195.922 49.0832 195.683 49.1718 195.622 49.3969C194.742 51.6884 193.793 53.9595 193.118 56.3261C192.483 58.5427 192.081 60.8615 192.265 63.1667C192.313 63.6305 192.586 64.0806 193.009 64.292C193.814 64.6944 194.79 64.5375 195.588 64.1829C197.109 63.4531 198.372 62.2869 199.497 61.0456C200.801 59.6066 201.94 58.0243 203.093 56.4625C205.481 53.2775 207.705 49.9766 210.155 46.8393C212.345 44.0567 214.685 41.3287 217.544 39.2008C219.42 37.8231 221.495 36.6433 223.787 36.1386C225.452 35.7703 227.274 35.893 228.788 36.7319C229.525 37.1343 230.167 37.6867 230.733 38.3005C231.136 37.5981 231.538 36.8956 231.947 36.1931C234.561 36.1999 237.181 36.1931 239.794 36.1931C234.97 44.5546 230.146 52.9092 225.316 61.2707C225.056 61.7413 224.913 62.3142 225.043 62.8462C225.124 63.2281 225.479 63.5214 225.875 63.5282C226.926 63.6032 227.895 63.078 228.747 62.5256C230.433 61.3798 231.866 59.9135 233.217 58.3994C234.458 57.0081 235.618 55.5418 236.737 54.0482C237.344 54.0482 237.952 54.0482 238.566 54.0482C236.505 57.3082 234.097 60.3432 231.436 63.1326C229.034 65.6083 226.434 67.9271 223.432 69.6526C222.3 70.2869 221.119 70.8393 219.864 71.1735C219.066 71.3918 218.186 71.5555 217.394 71.2144C216.487 70.8462 215.982 69.905 215.77 68.9979C215.443 67.5452 215.6 66.0039 216.077 64.5989C214.624 66.0448 213.198 67.5248 211.595 68.8001C210.373 69.7686 209.029 70.6347 207.508 71.0508C206.573 71.3099 205.577 71.3918 204.621 71.2076C203.523 71.0167 202.424 70.5665 201.694 69.7004C200.903 68.7933 200.664 67.5452 200.678 66.3722C200.705 64.4216 201.251 62.5324 201.797 60.6705C201.654 60.9297 201.524 61.2025 201.326 61.4276C199.852 63.0644 198.508 64.824 197.014 66.4472C195.69 67.893 194.244 69.2843 192.504 70.2255C191.105 70.9757 189.434 71.3031 187.885 70.8734C186.09 70.3756 184.405 69.2025 183.607 67.477C182.802 65.7447 182.843 63.7601 183.136 61.9118C183.709 58.4472 185.135 55.2076 186.268 51.9067C184.842 52.3568 183.3 52.3159 181.833 52.1727C179.595 55.8078 177.425 59.5111 174.785 62.8803C172.711 65.5128 170.357 68.0022 167.464 69.7481C165.389 70.9962 162.988 71.7669 160.545 71.7055C159.679 71.7123 158.826 71.3713 158.178 70.7916C156.922 69.6731 156.329 68.0022 156.117 66.3722C155.851 64.3943 156.219 62.3892 156.874 60.5205C158.225 56.4693 160.129 52.6023 162.531 49.0627C164.646 45.9664 167.129 43.1019 170.036 40.7149C171.626 39.4122 173.338 38.2596 175.187 37.3662C176.354 36.8001 177.589 36.3363 178.878 36.1658C179.8 36.0772 180.762 36.0908 181.628 36.4659C183.17 37.1343 184.35 38.5461 184.767 40.1693C185.224 41.9425 184.999 43.818 184.535 45.564C184.112 47.1326 183.484 48.6399 182.747 50.0857C183.887 50.1471 185.06 50.1676 186.152 49.7856C186.418 49.6629 186.752 49.5674 186.902 49.2878C190.593 41.6219 194.592 34.0789 199.341 27.0064C203.857 20.2886 209.077 13.9732 215.286 8.74215C218.165 6.30055 221.317 4.16585 224.729 2.53584C226.455 1.75835 228.243 1.04224 230.133 0.844453ZM249.114 0.564829C245.873 5.11385 241.07 8.41479 235.85 10.3108C231.006 12.084 225.786 12.7319 220.649 12.5341C218.602 14.9826 216.541 17.4242 214.494 19.8726C220.696 19.8726 226.98 18.9109 232.664 16.3534C236.034 14.853 239.146 12.8001 241.875 10.3244C244.966 7.52817 247.545 4.22723 249.824 0.748972C249.933 0.537548 250.096 0.251103 249.933 0.0328593C249.564 -0.144464 249.264 0.292024 249.114 0.564829Z" fill="white"/>
</g>
<defs>
<clipPath id="clip0_48_190">
<rect width="250" height="72" fill="white"/>
</clipPath>
</defs>
</svg>
