<svg width="30" height="30" viewBox="0 0 30 30" fill="none" xmlns="http://www.w3.org/2000/svg">
<circle cx="15" cy="13.75" r="3.75" stroke="#8EAEBA" stroke-width="1.5"/>
<path d="M25.5 13.6111C25.5 16.4287 23.8635 19.7336 21.6341 22.3728C20.5294 23.6805 19.3076 24.7897 18.1258 25.5659C16.9288 26.3522 15.8448 26.75 15 26.75V28.25C16.2646 28.25 17.6416 27.6787 18.9494 26.8197C20.2725 25.9506 21.5995 24.7381 22.78 23.3407C25.1209 20.5696 27 16.93 27 13.6111H25.5ZM15 26.75C14.1552 26.75 13.0712 26.3522 11.8742 25.5659C10.6924 24.7897 9.47064 23.6805 8.36591 22.3728C6.13649 19.7336 4.5 16.4287 4.5 13.6111H3C3 16.93 4.87914 20.5696 7.22003 23.3407C8.40045 24.7381 9.72754 25.9506 11.0506 26.8197C12.3584 27.6787 13.7354 28.25 15 28.25V26.75ZM4.5 13.6111C4.5 7.89758 9.1922 3.25 15 3.25V1.75C8.38139 1.75 3 7.05164 3 13.6111H4.5ZM15 3.25C20.8078 3.25 25.5 7.89758 25.5 13.6111H27C27 7.05164 21.6186 1.75 15 1.75V3.25Z" fill="#8EAEBA"/>
</svg>
