<svg width="210" height="56" viewBox="0 0 210 56" fill="none" xmlns="http://www.w3.org/2000/svg">
<g clip-path="url(#clip0_48_209)">
<path fill-rule="evenodd" clip-rule="evenodd" d="M56.7 23.0067C57.0267 24.64 57.1667 26.32 57.1667 28C57.1667 43.4933 44.38 56 28.6067 56C12.7867 56 0 43.4933 0 28C0 12.5067 12.7867 0 28.6067 0C35.0933 0 41.44 2.14667 46.5733 6.20667L40.9733 10.22C37.3333 7.74667 32.9933 6.44 28.6067 6.48667C16.4733 6.48667 6.62667 16.1467 6.62667 28C6.62667 39.8533 16.52 49.5133 28.6067 49.5133C40.74 49.5133 50.5867 39.8533 50.5867 28V27.44L56.7 23.0067ZM17.6867 20.5333V28.6067L28.56 35.28L54.6 16.4733C53.6667 14.4667 52.5 12.6 51.1933 10.8733L28.56 27.2067L17.6867 20.5333ZM166.507 16.8L174.253 11.2H148.26V44.8933H174.253V39.2467H155.68V30.6133H171.547V25.0133H155.68V16.8H166.507ZM119.607 24.2667H128.613C136.827 24.2667 141.353 27.8133 141.353 34.2533C141.353 40.9733 136.36 44.8 127.68 44.8H112.187V11.1533H141.773L134.027 16.8H119.607V24.2667ZM119.607 39.2467H127.353C131.927 39.2467 134.26 37.7533 134.26 34.58C134.26 31.5 132.067 29.9133 127.353 29.9133H119.607V39.2467ZM195.347 11.1533H181.207V44.8467H188.627V35.3267H195.347C204.4 35.3267 210 30.66 210 23.24C210 15.7733 204.4 11.1533 195.347 11.1533ZM195.207 29.68H188.627V16.8H195.207C199.967 16.8 202.58 19.0867 202.58 23.24C202.58 27.44 199.967 29.7267 195.207 29.68ZM93.0067 39.1533C95.2933 39.1533 97.4867 38.5933 99.4 37.5667L101.033 36.68L105.84 40.1333C102.667 43.4467 98 45.2667 92.68 45.2667C87.5467 45.2667 82.88 43.4933 79.52 40.2733C76.2067 37.1 74.34 32.6667 74.34 27.8133C74.34 23.0067 76.2067 18.62 79.5667 15.4933C82.88 12.4133 87.64 10.6867 92.7267 10.6867C97.4867 10.6867 101.64 12.0867 104.72 14.7933L105.047 15.0733L99.7267 18.9C97.7667 17.5 95.3867 16.8 93.0067 16.8467C86.3333 16.8467 81.4333 21.5133 81.4333 27.9533C81.48 34.44 86.3333 39.1533 93.0067 39.1533Z" fill="white"/>
</g>
<defs>
<clipPath id="clip0_48_209">
<rect width="210" height="56" fill="white"/>
</clipPath>
</defs>
</svg>
