<svg width="231" height="75" viewBox="0 0 231 75" fill="none" xmlns="http://www.w3.org/2000/svg">
<path d="M49.0629 8.60172C45.4374 8.48564 42.2026 10.8614 41.2353 14.3592C40.5814 16.4719 40.5814 18.7354 41.2353 20.8519C41.9589 23.8312 44.4429 26.0561 47.4881 26.443C50.5526 27.1047 53.6944 25.7272 55.2847 23.0264C57.2348 19.9658 57.4089 16.0965 55.7335 12.8773C54.5882 10.2113 51.9339 8.51272 49.0319 8.59011L49.0629 8.60172ZM48.912 34.9593C44.3578 35.1025 39.9198 33.4929 36.5148 30.4632C32.8467 27.1085 30.8772 22.2874 31.1481 17.327C31.0668 13.1946 32.4946 9.17437 35.1644 6.02477C37.6291 3.15763 40.9877 1.20751 44.6983 0.49169C49.2834 -0.583972 54.1046 0.120239 58.1905 2.45729C63.2206 5.23157 66.3625 10.5054 66.405 16.2513C66.9545 21.3858 65.1436 26.4894 61.4872 30.1343C58.117 33.3574 53.6016 35.1025 48.9391 34.9748L48.912 34.9593ZM165.919 20.6391C164.406 19.6369 162.673 19.0178 160.866 18.8244C159.013 18.4491 157.09 18.8476 155.546 19.9349C154.083 21.0453 153.483 22.9568 154.044 24.7018C154.586 26.2341 155.991 27.2942 157.612 27.3987C159.233 27.5574 160.866 27.3059 162.363 26.6636C164.878 25.8355 166.387 23.2663 165.884 20.6662L165.919 20.6391ZM166.07 14.3902C166.14 13.4383 166.14 12.4787 166.07 11.5269C165.792 10.0256 164.669 8.82227 163.191 8.43921C158.254 7.00757 152.965 7.41385 148.306 9.57678L147.064 2.72427C148.995 1.78403 151.05 1.12625 153.166 0.774148C157.55 -0.119657 162.077 -0.0500101 166.434 0.967613C171.065 2.13614 174.304 4.82142 175.206 9.73929C175.387 10.9891 175.465 12.2543 175.43 13.5157V25.9439C175.596 28.4937 175.821 28.7491 178.429 29.136V34.3983C175.867 35.265 173.077 35.1799 170.574 34.1584C169.224 33.4735 168.299 32.1657 168.102 30.6644C168.102 30.3665 168.024 30.0492 167.966 29.6003C164.801 34.0965 160.274 35.2689 155.298 34.9825C149.796 34.5027 145.447 30.7998 144.731 26.3772C143.443 19.1958 147.068 13.8291 154.311 12.7496C158.943 12.0144 160.204 12.3433 166.124 14.367L166.07 14.3902ZM123.539 20.79L118.443 21.1034V34.1777H108.894V1.09143H118.292V13.3261C120.358 13.5118 122.44 13.3571 124.456 12.8618C126.855 12.1499 128.712 10.25 129.374 7.83947C129.989 5.64945 130.287 3.34336 130.751 1.01791H139.446C139.639 7.83947 138.277 13.8523 131.753 17.5978C132.009 18.0776 132.218 18.4955 132.442 18.8863C135.127 23.3824 137.809 27.8824 140.479 32.305C140.788 32.9279 141.059 33.5664 141.287 34.2241H131.247L123.527 20.8055L123.539 20.79ZM92.0429 1.045H101.337V34.2358H91.9539V23.5952C90.2282 23.986 88.6418 24.4658 87.0206 24.6747C82.8688 25.4834 78.5701 24.4658 75.2231 21.885C72.681 19.7182 71.0017 16.7117 70.4871 13.4151C69.6784 9.35236 70.1737 5.23157 70.0383 1.04887H79.7386V2.54628C79.7386 5.23157 79.7386 7.92846 79.874 10.5983C79.9707 13.9684 82.7799 16.6189 86.15 16.5222C86.1655 16.5222 86.1848 16.5222 86.2003 16.5222C88.2897 16.5879 90.3443 15.9688 92.0468 14.7539V1.045H92.0429ZM19.1378 34.1042H9.81282V9.51874H0.0235162V1.07595H28.8226V9.42588H19.1378V34.1042ZM4.51963 69.454C3.14216 69.454 2.31413 68.4635 2.30253 66.6952C2.80553 65.9523 3.62582 65.4919 4.51963 65.4493C5.51791 65.3835 6.38463 66.138 6.4504 67.1363C6.45427 67.2098 6.45427 67.2795 6.4504 67.353C6.51618 68.4441 5.68815 69.3805 4.59701 69.4501C4.5738 69.4501 4.54671 69.454 4.51963 69.454ZM5.19675 63.4566C4.0321 63.4179 2.92161 63.9364 2.19806 64.8496C2.20966 64.1647 2.48825 63.5147 2.97578 63.0349C3.27372 62.7253 3.63743 62.4893 4.03984 62.3461C4.48867 62.1643 4.95686 62.0289 5.43278 61.9399L6.21438 61.7735L7.06949 61.6226L7.94008 61.4717V59.4016C6.75608 59.5796 5.58755 59.8466 4.44611 60.2103C3.58713 60.485 2.77845 60.8951 2.04715 61.4252C0.615517 62.5202 -0.146733 64.2769 0.0235162 66.0723C-0.046131 67.4691 0.367883 68.8427 1.19204 69.9686C1.99685 70.9708 3.23503 71.5318 4.51963 71.4699C5.63785 71.4931 6.71738 71.0636 7.51833 70.2859C8.33088 69.5004 8.77585 68.4132 8.74876 67.2872C8.84549 66.258 8.49726 65.2365 7.78918 64.482C7.08884 63.8203 6.14473 63.4721 5.18128 63.5224L5.19675 63.4566ZM15.017 68.7769C14.572 69.3457 13.8794 69.6591 13.1597 69.6165C12.3046 69.6165 11.6623 69.2722 11.6623 68.5525C11.6623 67.8328 12.3201 67.4884 13.2952 67.4884C13.8988 67.4729 14.4947 67.6393 15.0054 67.9682L15.017 68.7769ZM17.8958 69.4076C17.5204 69.4076 17.327 69.1986 17.327 68.7769V65.9871C17.3657 65.0701 16.9671 64.1879 16.2474 63.6191C15.4349 63.0155 14.4405 62.7137 13.4306 62.764C12.3936 62.7369 11.3644 62.9613 10.4319 63.4218V65.3913C11.1787 64.9424 12.0338 64.7025 12.9044 64.7025C14.4018 64.7025 15.0789 65.2133 15.0789 66.1999V66.4398C14.3128 66.0877 13.4732 65.933 12.6335 65.991C11.821 65.9717 11.02 66.2115 10.3545 66.6797C9.71221 67.1402 9.3485 67.8986 9.39493 68.6879C9.38719 70.2047 10.6099 71.4351 12.1266 71.4428C12.2156 71.4428 12.3046 71.439 12.3936 71.4312C13.4499 71.466 14.4714 71.0598 15.2105 70.3053C15.5355 71.0211 16.2861 71.4467 17.0677 71.3538C17.5088 71.3809 17.9461 71.261 18.3136 71.0095V69.2992C18.1782 69.3689 18.0312 69.4037 17.8803 69.4037H17.8958V69.4076ZM21.8386 71.2068V67.9837H25.2126V71.2068H27.5225V63.0078H25.2126V66.0374H21.8386V63.0078H19.5131V71.2068H21.8386ZM31.6549 71.2068V67.6703L34.8935 71.2068H37.8768L33.756 66.6952L37.3235 63.0078H34.4757L31.6588 65.991V63.0078H29.3334V71.2068H31.6549ZM45.5534 69.2567C46.0681 67.8753 46.3118 66.4128 46.2731 64.9386H48.8385V69.2567H45.5534ZM44.354 73.2769V71.1913H50.2624V73.2769H52.4949V69.2606H51.1446V62.9923H44.2495V64.5826C44.3385 66.1961 43.998 67.8057 43.2589 69.2451H42.2104V73.2614L44.354 73.2769ZM59.421 64.9424V71.1952H61.7464V62.9923H54.654V65.4067C54.685 66.3547 54.5921 67.2988 54.3831 68.2236C54.2052 68.9587 53.8569 69.2722 53.3191 69.2722C53.1605 69.2992 52.9979 69.2992 52.8393 69.2722V71.1604C53.114 71.2765 53.412 71.3268 53.7099 71.3113C55.0796 71.3268 56.252 70.3401 56.4687 68.9858C56.7163 68.0456 56.8401 67.0783 56.844 66.1071V64.954L59.421 64.9424ZM67.0048 66.8152C66.227 66.8152 65.7743 66.4553 65.7743 65.8091C65.7743 65.163 66.2386 64.8031 67.0048 64.8031H68.715V66.8113H67.0048V66.8152ZM65.4338 71.2068L67.3221 68.4944H68.715V71.2068H71.025V62.9923H66.6333C64.4743 62.9923 63.4102 64.1299 63.4102 65.6621C63.3251 66.7455 63.9945 67.7438 65.0276 68.0765L62.8221 71.1952L65.4338 71.2068ZM79.3749 71.2068V64.9386H82.6444V71.2068H84.9544V63.0078H77.0533V71.2068H79.3749ZM91.1298 64.807C91.7295 64.7877 92.3099 65.0275 92.7201 65.4648C93.5481 66.3973 93.5481 67.8018 92.7201 68.7343C92.3099 69.1716 91.7295 69.4115 91.1298 69.3921C90.2785 69.396 89.4931 68.9278 89.0907 68.1771V65.9871C89.4931 65.2326 90.2747 64.7606 91.1298 64.7567V64.807ZM91.7876 62.7369C90.7429 62.6712 89.733 63.1277 89.0907 63.9519V62.9923H86.7807V74.4763H89.1061V70.2047C89.7562 71.0211 90.7622 71.4738 91.803 71.4196C92.8593 71.4467 93.8731 70.994 94.5618 70.1892C95.2815 69.3573 95.6685 68.2894 95.6568 67.1905C95.6801 66.0877 95.2893 65.0198 94.5618 64.1918C93.9118 63.3134 92.8826 62.7911 91.7876 62.7834V62.7369ZM98.6672 66.2618C98.7368 65.3255 99.5261 64.6019 100.466 64.6135C101.383 64.5787 102.157 65.2984 102.188 66.2154C102.188 66.2309 102.188 66.2464 102.188 66.2618H98.6672ZM100.919 71.4157C102.022 71.4815 103.117 71.1875 104.038 70.5761V68.7188C103.241 69.187 102.335 69.4347 101.414 69.4385C99.9169 69.4385 98.9109 68.8543 98.671 67.7283H104.548V67.1131C104.56 66.0181 104.185 64.954 103.484 64.1144C102.78 63.2748 101.728 62.8104 100.637 62.8569C99.4758 62.8104 98.3499 63.2632 97.5489 64.1028C96.7751 64.9076 96.3494 65.9833 96.3649 67.1015C96.3224 68.2894 96.806 69.4347 97.6844 70.2356C98.5666 71.0288 99.7273 71.4506 100.919 71.4157ZM108.487 69.2567C109.002 67.8753 109.246 66.4128 109.207 64.9386H111.772V69.2567H108.487ZM107.288 73.2769V71.1913H113.208V73.2769H115.456V69.2606H114.106V62.9923H107.211V64.5826C107.3 66.1961 106.959 67.8057 106.22 69.2451H105.171V73.2614L107.288 73.2769ZM118.845 71.2068V64.9386H122.115V71.2068H124.44V63.0078H116.539V71.2068H118.845ZM130.616 64.807C131.216 64.7877 131.796 65.0275 132.206 65.4648C133.034 66.3973 133.034 67.8018 132.206 68.7343C131.796 69.1716 131.216 69.4115 130.616 69.3921C129.765 69.396 128.979 68.9278 128.577 68.1771V65.9871C128.979 65.2326 129.761 64.7606 130.616 64.7567V64.807ZM131.278 62.7369C130.233 62.6712 129.223 63.1277 128.581 63.9519V62.9923H126.255V74.4763H128.581V70.2047C129.231 71.0211 130.237 71.4738 131.278 71.4196C132.334 71.4467 133.348 70.994 134.036 70.1892C134.756 69.3573 135.143 68.2894 135.131 67.1905C135.155 66.0877 134.764 65.0198 134.036 64.1918C133.386 63.3173 132.369 62.795 131.278 62.7834V62.7369ZM138.563 71.2068L142.282 66.3663V71.2068H144.561V63.0078H142.386L138.683 67.8367V63.0078H136.389V71.2068H138.563ZM148.697 71.2068V67.9837H152.071V71.2068H154.381V63.0078H152.071V66.0374H148.697V63.0078H146.387V71.2068H148.697ZM158.366 71.2068L162.085 66.3663V71.2068H164.364V63.0078H162.205L158.486 67.8367V63.0078H156.207V71.2068H158.366ZM168.38 71.2068V66.138L170.388 68.6879H171.317L173.341 66.138V71.2068H175.531V63.0078H173.252L170.853 66.0645L168.469 63.0078H166.19V71.2068H168.38ZM182.279 68.7769C181.834 69.3457 181.137 69.6591 180.421 69.6165C179.566 69.6165 178.92 69.2722 178.92 68.5525C178.92 67.8328 179.551 67.4884 180.526 67.4884C181.129 67.4729 181.725 67.6393 182.236 67.9682L182.279 68.7769ZM185.157 69.4076C184.782 69.4076 184.589 69.1986 184.589 68.7769V65.9871C184.631 65.0701 184.229 64.1879 183.509 63.6191C182.696 63.0155 181.702 62.7137 180.688 62.764C179.651 62.7369 178.622 62.9613 177.69 63.4218V65.3913C178.436 64.9424 179.292 64.7025 180.162 64.7025C181.663 64.7025 182.337 65.2133 182.337 66.1999V66.4398C181.582 66.0916 180.754 65.9407 179.922 65.991C179.11 65.9717 178.309 66.2115 177.643 66.6797C177.001 67.1402 176.637 67.8986 176.684 68.6879C176.676 70.2047 177.899 71.4351 179.415 71.4428C179.504 71.4428 179.593 71.439 179.682 71.4312C180.739 71.466 181.76 71.0598 182.499 70.3053C182.824 71.0211 183.579 71.4467 184.356 71.3538C184.798 71.3809 185.235 71.261 185.602 71.0095V69.2992C185.467 69.3728 185.312 69.4115 185.157 69.4076ZM190.791 71.2068V64.9386H193.383V63.0039H185.92V64.9386H188.469V71.2068H190.791ZM196.069 66.2618C196.142 65.2945 196.974 64.5594 197.941 64.6135C198.859 64.5787 199.632 65.2984 199.663 66.2154C199.663 66.2309 199.663 66.2464 199.663 66.2618H196.069ZM198.317 71.4157C199.42 71.4815 200.515 71.1875 201.435 70.5761V68.7188C200.638 69.187 199.737 69.4347 198.812 69.4385C197.311 69.4385 196.309 68.8543 196.069 67.7283H201.946V67.1131C201.958 66.0181 201.582 64.954 200.882 64.1144C200.182 63.2748 199.125 62.8104 198.034 62.8569C196.874 62.8104 195.751 63.2632 194.947 64.1028C194.173 64.9076 193.747 65.9833 193.763 67.1015C193.72 68.2894 194.204 69.4347 195.082 70.2356C195.968 71.0288 197.125 71.4506 198.317 71.4157ZM209.081 64.9424V71.1952H211.407V62.9923H204.33V65.4067C204.361 66.3547 204.268 67.2988 204.059 68.2236C203.881 68.9587 203.533 69.2722 202.995 69.2722C202.836 69.2992 202.674 69.2992 202.515 69.2722V71.1604C202.79 71.2765 203.088 71.3268 203.386 71.3113C204.755 71.3268 205.928 70.3401 206.144 68.9858C206.392 68.0456 206.516 67.0783 206.52 66.1071V64.954L209.081 64.9424ZM214.99 66.2618C215.063 65.2945 215.895 64.5594 216.862 64.6135C217.779 64.5787 218.553 65.2984 218.584 66.2154C218.584 66.2309 218.584 66.2464 218.584 66.2618H214.99ZM217.238 71.4157C218.34 71.4815 219.435 71.1875 220.356 70.5761V68.7188C219.559 69.187 218.654 69.4347 217.733 69.4385C216.232 69.4385 215.229 68.8543 214.99 67.7283H220.867V67.1131C220.879 66.0181 220.503 64.954 219.803 64.1144C219.103 63.2748 218.046 62.8104 216.955 62.8569C215.794 62.8104 214.668 63.2632 213.867 64.1028C213.094 64.9076 212.668 65.9833 212.683 67.1015C212.641 68.2894 213.125 69.4347 214.003 70.2356C214.889 71.0288 216.046 71.4506 217.238 71.4157ZM226.261 62.0908C227.031 62.1217 227.781 61.8509 228.358 61.3401C228.927 60.81 229.236 60.0633 229.213 59.2855H227.46C227.46 59.9549 226.915 60.4966 226.241 60.4966C225.572 60.4966 225.034 59.9549 225.03 59.2855H223.293C223.262 60.81 224.473 62.0675 225.994 62.0985C226.094 62.0985 226.191 62.0985 226.292 62.0869L226.261 62.0908ZM224.388 71.1913L228.106 66.3624V71.1913H230.385V62.9923H228.211L224.493 67.8212V62.9923H222.214V71.1913H224.388Z" fill="white"/>
</svg>
