<svg width="60" height="60" viewBox="0 0 60 60" fill="none" xmlns="http://www.w3.org/2000/svg">
<g clip-path="url(#clip0_228_1090)">
<path d="M23.7225 0.00994141L25.545 0.00244141H34.455L36.28 0.00994141L38.565 0.0349414L39.6475 0.0524414L40.6925 0.0799414L41.7 0.114941L42.67 0.154941L43.605 0.207441L44.505 0.269941L45.3675 0.344941L46.2 0.427441C50.55 0.917441 53.5325 1.96744 55.7825 4.21744C58.0325 6.46744 59.0825 9.44744 59.5725 13.7999L59.6575 14.6324L59.73 15.4974L59.7925 16.3974L59.8425 17.3299L59.905 18.7999L59.935 19.8249L59.9675 21.4349L59.99 23.7224L60 26.1724L59.9975 34.4549L59.99 36.2799L59.965 38.5649L59.9475 39.6474L59.92 40.6924L59.885 41.6999L59.845 42.6699L59.7925 43.6049L59.73 44.5049L59.655 45.3674L59.5725 46.1999C59.0825 50.5499 58.0325 53.5324 55.7825 55.7824C53.5325 58.0324 50.5525 59.0824 46.2 59.5724L45.3675 59.6574L44.5025 59.7299L43.6025 59.7924L42.67 59.8424L41.2 59.9049L40.175 59.9349L38.565 59.9674L36.2775 59.9899L33.8275 59.9999L25.545 59.9974L23.72 59.9899L21.435 59.9649L20.3525 59.9474L19.3075 59.9199L18.3 59.8849L17.33 59.8449L16.395 59.7924L15.495 59.7299L14.6325 59.6549L13.8 59.5724C9.45 59.0824 6.4675 58.0324 4.2175 55.7824C1.9675 53.5324 0.9175 50.5524 0.4275 46.1999L0.3425 45.3674L0.27 44.5024L0.2075 43.6024L0.1575 42.6699L0.095 41.1999L0.065 40.1749L0.0325 38.5649L0.01 36.2774L0 33.8274L0.0025 25.5449L0.01 23.7199L0.035 21.4349L0.0525 20.3524L0.08 19.3074L0.115 18.2999L0.155 17.3299L0.2075 16.3949L0.27 15.4949L0.345 14.6324L0.4275 13.7999C0.9175 9.44994 1.9675 6.46744 4.2175 4.21744C6.4675 1.96744 9.4475 0.917441 13.8 0.427441L14.6325 0.342441L15.4975 0.269941L16.3975 0.207441L17.33 0.157441L18.8 0.0949414L19.825 0.0649414L21.435 0.0324414L23.7225 0.00994141ZM16.975 18.2499H10.125C10.45 33.8499 18.25 43.2249 31.925 43.2249H32.7V34.2999C37.725 34.7999 41.525 38.4749 43.05 43.2249H50.15C48.2 36.1249 43.075 32.1999 39.875 30.6999C43.075 28.8499 47.575 24.3499 48.65 18.2499H42.2C40.8 23.1999 36.65 27.6999 32.7 28.1249V18.2499H26.25V35.5499C22.25 34.5499 17.2 29.6999 16.975 18.2499Z" fill="#E1E1E1"/>
</g>
<defs>
<clipPath id="clip0_228_1090">
<rect width="60" height="60" fill="white"/>
</clipPath>
</defs>
</svg>
