<svg width="60" height="60" viewBox="0 0 60 60" fill="none" xmlns="http://www.w3.org/2000/svg">
<ellipse cx="30" cy="41.25" rx="15" ry="6.25" stroke="#8EAEBA" stroke-width="3" stroke-linejoin="round"/>
<circle cx="30" cy="20" r="7.5" stroke="#8EAEBA" stroke-width="3" stroke-linejoin="round"/>
<path fill-rule="evenodd" clip-rule="evenodd" d="M15.3891 33.5676C12.6159 33.7473 10.0897 34.2774 8.10408 35.0717C6.86846 35.5659 5.76787 36.192 4.95165 36.9639C4.13226 37.7388 3.5 38.7642 3.5 39.9999C3.5 41.2356 4.13226 42.2611 4.95165 43.036C5.76787 43.8079 6.86846 44.4339 8.10408 44.9282C9.20566 45.3688 10.4736 45.7281 11.8579 45.9914C10.9546 44.8998 10.3536 43.713 10.1153 42.4652C9.80032 42.3635 9.50085 42.2558 9.21825 42.1427C8.19181 41.7322 7.46182 41.2808 7.01297 40.8563C6.56729 40.4348 6.5 40.1449 6.5 39.9999C6.5 39.8549 6.56729 39.565 7.01297 39.1435C7.46182 38.719 8.19181 38.2677 9.21825 37.8571C9.84769 37.6053 10.5608 37.3799 11.343 37.1886C12.2746 35.8354 13.658 34.6089 15.3891 33.5676Z" fill="#8EAEBA"/>
<path fill-rule="evenodd" clip-rule="evenodd" d="M49.8846 42.4652C49.6463 43.713 49.0453 44.8998 48.1421 45.9914C49.5263 45.7281 50.7943 45.3688 51.8959 44.9282C53.1315 44.4339 54.2321 43.8079 55.0483 43.036C55.8677 42.2611 56.4999 41.2356 56.4999 39.9999C56.4999 38.7642 55.8677 37.7388 55.0483 36.9639C54.2321 36.192 53.1315 35.5659 51.8959 35.0717C49.9103 34.2774 47.384 33.7473 44.6108 33.5676C46.342 34.6089 47.7254 35.8354 48.657 37.1886C49.4391 37.3799 50.1523 37.6053 50.7817 37.8571C51.8081 38.2677 52.5381 38.719 52.987 39.1435C53.4327 39.565 53.4999 39.8549 53.4999 39.9999C53.4999 40.1449 53.4327 40.4348 52.987 40.8563C52.5381 41.2808 51.8081 41.7322 50.7817 42.1427C50.4991 42.2558 50.1996 42.3635 49.8846 42.4652Z" fill="#8EAEBA"/>
<path fill-rule="evenodd" clip-rule="evenodd" d="M41.119 25.717C40.6527 26.6221 40.0791 27.4629 39.415 28.2227C40.3329 28.7185 41.3836 29 42.5001 29C46.0899 29 49.0001 26.0899 49.0001 22.5C49.0001 18.9101 46.0899 16 42.5001 16C42.283 16 42.0685 16.0106 41.8569 16.0314C42.1729 16.9758 42.3792 17.9705 42.4607 19.0002C42.4738 19.0001 42.4869 19 42.5001 19C44.433 19 46.0001 20.567 46.0001 22.5C46.0001 24.433 44.433 26 42.5001 26C42.0096 26 41.5427 25.8991 41.119 25.717Z" fill="#8EAEBA"/>
<path fill-rule="evenodd" clip-rule="evenodd" d="M18.1431 16.0314C17.9316 16.0106 17.717 16 17.5 16C13.9101 16 11 18.9101 11 22.5C11 26.0899 13.9101 29 17.5 29C18.6164 29 19.6671 28.7185 20.585 28.2227C19.9209 27.4629 19.3474 26.6221 18.881 25.717C18.4573 25.8991 17.9904 26 17.5 26C15.567 26 14 24.433 14 22.5C14 20.567 15.567 19 17.5 19C17.5132 19 17.5263 19.0001 17.5394 19.0002C17.6209 17.9705 17.8272 16.9758 18.1431 16.0314Z" fill="#8EAEBA"/>
</svg>
