<svg width="60" height="60" viewBox="0 0 60 60" fill="none" xmlns="http://www.w3.org/2000/svg">
<path d="M40 8.50587L38.9421 9.5693C39.5273 10.1514 40.4727 10.1514 41.0579 9.5693L40 8.50587ZM41.1476 7.36429L40.0897 6.30086L40.0897 6.30086L41.1476 7.36429ZM38.8524 7.36429L39.9103 6.30086L38.8524 7.36429ZM27.3767 18.7801L28.4346 17.7166L28.4346 17.7166L27.3767 18.7801ZM37.7049 29.0543L36.647 30.1177L36.647 30.1177L37.7049 29.0543ZM42.2951 29.0543L41.2373 27.9909L41.2373 27.9909L42.2951 29.0543ZM52.6233 18.7801L53.6812 19.8435L53.6812 19.8435L52.6233 18.7801ZM41.0579 9.5693L42.2054 8.42772L40.0897 6.30086L38.9421 7.44243L41.0579 9.5693ZM37.7945 8.42772L38.9421 9.5693L41.0579 7.44243L39.9103 6.30086L37.7945 8.42772ZM26.3188 19.8435L36.647 30.1177L38.7627 27.9909L28.4346 17.7166L26.3188 19.8435ZM43.353 30.1177L53.6812 19.8435L51.5654 17.7166L41.2373 27.9909L43.353 30.1177ZM51.5654 8.42772C54.1449 10.9937 54.1449 15.1507 51.5654 17.7166L53.6812 19.8435C57.4396 16.1047 57.4396 10.0397 53.6812 6.30085L51.5654 8.42772ZM53.6812 6.30085C49.9271 2.56638 43.8438 2.56638 40.0897 6.30086L42.2054 8.42772C44.7892 5.85743 48.9816 5.85743 51.5654 8.42772L53.6812 6.30085ZM28.4346 8.42772C31.0184 5.85743 35.2108 5.85743 37.7945 8.42772L39.9103 6.30086C36.1562 2.56638 30.0729 2.56638 26.3188 6.30085L28.4346 8.42772ZM36.647 30.1177C38.4997 31.9608 41.5003 31.9608 43.353 30.1177L41.2373 27.9909C40.5548 28.6697 39.4452 28.6697 38.7627 27.9909L36.647 30.1177ZM26.3188 6.30085C22.5604 10.0397 22.5604 16.1047 26.3188 19.8435L28.4346 17.7166C25.8551 15.1507 25.8551 10.9937 28.4346 8.42772L26.3188 6.30085Z" fill="#8EAEBA"/>
<path d="M5 23.5C4.17157 23.5 3.5 24.1716 3.5 25C3.5 25.8284 4.17157 26.5 5 26.5V23.5ZM10 25L10.6012 23.6258C10.4116 23.5428 10.2069 23.5 10 23.5V25ZM18.0909 37.3713C17.3294 37.0449 16.4476 37.3977 16.1213 38.1591C15.7949 38.9206 16.1477 39.8024 16.9091 40.1287L18.0909 37.3713ZM27.0378 40.6617L28.4166 41.2526L27.0378 40.6617ZM24.4117 41.7122L23.8208 43.0909L24.4117 41.7122ZM29.2181 35.5745L30.5968 36.1654L29.2181 35.5745ZM5 26.5H10V23.5H5V26.5ZM9.39877 26.3742L27.5802 34.3286L28.7826 31.5801L10.6012 23.6258L9.39877 26.3742ZM27.8393 34.9836L25.6591 40.0708L28.4166 41.2526L30.5968 36.1654L27.8393 34.9836ZM25.0026 40.3334L18.0909 37.3713L16.9091 40.1287L23.8208 43.0909L25.0026 40.3334ZM25.6591 40.0708C25.5503 40.3246 25.2564 40.4422 25.0026 40.3334L23.8208 43.0909C25.5975 43.8523 27.6551 43.0293 28.4166 41.2526L25.6591 40.0708ZM27.5802 34.3286C27.8318 34.4387 27.9475 34.7312 27.8393 34.9836L30.5968 36.1654C31.3542 34.3981 30.5442 32.3508 28.7826 31.5801L27.5802 34.3286Z" fill="#8EAEBA"/>
<path d="M5.67082 46.1584C4.92985 45.7879 4.02884 46.0882 3.65836 46.8292C3.28788 47.5701 3.58821 48.4712 4.32918 48.8416L5.67082 46.1584ZM28.1708 38.6584L26.8292 37.9875L25.4875 40.6708L26.8292 41.3416L28.1708 38.6584ZM36.2331 44.3666L35.5623 45.7082L36.2331 44.3666ZM38.9164 46.5H48V43.5H38.9164V46.5ZM48.5 47V53H51.5V47H48.5ZM48 53.5H21.8885V56.5H48V53.5ZM18.9817 52.8138L5.67082 46.1584L4.32918 48.8416L17.64 55.4971L18.9817 52.8138ZM36.9039 43.0249L28.1708 38.6584L26.8292 41.3416L35.5623 45.7082L36.9039 43.0249ZM21.8885 53.5C20.8795 53.5 19.8842 53.2651 18.9817 52.8138L17.64 55.4971C18.9591 56.1566 20.4137 56.5 21.8885 56.5V53.5ZM48.5 53C48.5 53.2761 48.2761 53.5 48 53.5V56.5C49.933 56.5 51.5 54.933 51.5 53H48.5ZM48 46.5C48.2761 46.5 48.5 46.7239 48.5 47H51.5C51.5 45.067 49.933 43.5 48 43.5V46.5ZM38.9164 43.5C38.2178 43.5 37.5288 43.3373 36.9039 43.0249L35.5623 45.7082C36.6037 46.2289 37.7521 46.5 38.9164 46.5V43.5Z" fill="#8EAEBA"/>
</svg>
