<svg width="180" height="84" viewBox="0 0 180 84" fill="none" xmlns="http://www.w3.org/2000/svg">
<path d="M63.8231 67.147H63.0754V69.8698H62.2712V63.8176H63.0754V66.4839H63.6961L65.8123 63.8176H66.7998L64.4861 66.7519L66.9691 69.8698H65.9957L63.8231 67.147Z" fill="#919291"/>
<path d="M77.2115 63.8176V69.8698H76.4073V64.4665H74.2348L74.1219 66.8648C74.0796 67.6689 73.9949 68.2756 73.868 68.6847C73.741 69.0938 73.5576 69.3901 73.3319 69.5735C73.092 69.7569 72.7676 69.8556 72.3725 69.8698H72.1045V69.2208L72.2738 69.2067C72.5277 69.1926 72.7252 69.1079 72.8663 68.9528C73.0074 68.7976 73.1061 68.5719 73.1767 68.2474C73.2472 67.9229 73.3036 67.4291 73.3319 66.7519L73.4588 63.8176H77.2115Z" fill="#919291"/>
<path d="M87.369 63.8176H88.1731V69.8698H87.369V65.2001L84.3923 69.8698H83.5881V63.8176H84.3923V68.4872L87.369 63.8176Z" fill="#919291"/>
<path d="M99.1911 69.8698H98.387V67.0623H95.3256V69.8698H94.5215V63.8176H95.3256V66.4275H98.387V63.8176H99.1911V69.8698Z" fill="#919291"/>
<path d="M109.335 63.8176H110.139V69.8698H109.335V65.2001L106.358 69.8698H105.554V63.8176H106.358V68.4872L109.335 63.8176Z" fill="#919291"/>
<path d="M118.053 67.147H117.32V69.8698H116.516V63.8176H117.32V66.4839H117.941L120.057 63.8176H121.044L118.731 66.7519L121.213 69.8698H120.24L118.053 67.147Z" fill="#919291"/>
<path d="M130.214 68.2897H127.675L127.11 69.8698H126.292L128.606 63.8176H129.311L131.625 69.8698H130.806L130.214 68.2897ZM127.914 67.6266H129.974L128.944 64.791L127.914 67.6266Z" fill="#919291"/>
<path d="M66.8282 77.8124V83.8646H66.024V78.4613H63.8515L63.7386 80.8596C63.6963 81.6638 63.6116 82.2704 63.4847 82.6795C63.3577 83.0886 63.1743 83.3849 62.9486 83.5683C62.7087 83.7517 62.3843 83.8505 61.9892 83.8646H61.7212V83.2156L61.8905 83.2015C62.1444 83.1874 62.3419 83.1028 62.483 82.9476C62.6241 82.7924 62.7228 82.5667 62.7934 82.2422C62.8639 81.9177 62.9203 81.4239 62.9486 80.7468L63.0755 77.8124H66.8282Z" fill="#919291"/>
<path d="M76.8588 81.0713H74.2348V83.2156H77.2821V83.8646H73.4307V77.8124H77.2397V78.4613H74.2348V80.4082H76.8588V81.0713Z" fill="#919291"/>
<path d="M87.8205 77.8124V83.8646H87.0164V81.3534C86.7201 81.4381 86.4662 81.4945 86.2264 81.5227C85.9865 81.5509 85.7185 81.565 85.4081 81.565C84.7168 81.565 84.209 81.4099 83.8704 81.1136C83.5318 80.8173 83.3625 80.3518 83.3484 79.731V77.7842H84.1525V79.7028C84.1525 80.1261 84.2513 80.4223 84.4488 80.6198C84.6322 80.8032 84.9567 80.902 85.4081 80.902C85.9301 80.902 86.4662 80.8314 87.0164 80.6763V77.7842H87.8205V77.8124Z" fill="#919291"/>
<path d="M97.8508 81.0713H95.2267V83.2156H98.274V83.8646H94.4226V77.8124H98.2317V78.4613H95.2267V80.4082H97.8508V81.0713Z" fill="#919291"/>
<path d="M109.081 83.8646H108.277V81.0572H105.215V83.8646H104.411V77.8124H105.215V80.4223H108.277V77.8124H109.081V83.8646Z" fill="#919291"/>
<path d="M119.478 77.8124H120.282V83.8646H119.478V79.1949L116.501 83.8646H115.697V77.8124H116.501V82.482L119.478 77.8124Z" fill="#919291"/>
<path d="M130.059 83.8646V81.5086H128.662L127.407 83.8646H126.56L127.971 81.2829C127.195 80.9725 126.8 80.4223 126.8 79.6323C126.8 79.0538 126.983 78.6024 127.364 78.292C127.745 77.9676 128.267 77.8124 128.944 77.8124H130.877V83.8646H130.059ZM127.59 79.6323C127.59 79.9991 127.703 80.2953 127.929 80.5211C128.154 80.7468 128.479 80.8596 128.888 80.8596H130.059V78.4613H128.93C128.493 78.4613 128.168 78.5601 127.943 78.7717C127.703 78.9833 127.59 79.2655 127.59 79.6323Z" fill="#919291"/>
<path d="M146.438 78.4613H143.518V80.2812H145.027C145.662 80.2953 146.156 80.4505 146.508 80.775C146.861 81.0853 147.044 81.5227 147.044 82.0588C147.044 82.609 146.861 83.0463 146.508 83.3708C146.156 83.6953 145.662 83.8646 145.041 83.8787H142.713V77.8265H146.438V78.4613ZM143.503 80.9302V83.2156H144.971C145.366 83.2156 145.676 83.1169 145.902 82.9053C146.127 82.6936 146.226 82.4115 146.226 82.0588C146.226 81.7202 146.113 81.4522 145.902 81.2547C145.69 81.0571 145.394 80.9584 144.999 80.9443L143.503 80.9302Z" fill="#919291"/>
<path d="M157.668 81.0289C157.668 81.6214 157.569 82.1434 157.371 82.5807C157.174 83.0181 156.892 83.3567 156.525 83.5965C156.158 83.8363 155.735 83.9492 155.241 83.9492C154.762 83.9492 154.338 83.8363 153.971 83.5965C153.605 83.3567 153.323 83.0322 153.111 82.5949C152.913 82.1575 152.801 81.6638 152.801 81.0853V80.648C152.801 80.0696 152.899 79.5476 153.111 79.1103C153.308 78.6588 153.605 78.3202 153.971 78.0804C154.338 77.8406 154.762 77.7277 155.241 77.7277C155.721 77.7277 156.158 77.8406 156.525 78.0804C156.892 78.3202 157.174 78.6588 157.386 79.0961C157.583 79.5476 157.682 80.0555 157.682 80.648L157.668 81.0289ZM156.878 80.648C156.878 79.9285 156.737 79.3783 156.44 78.9974C156.158 78.6165 155.749 78.419 155.227 78.419C154.719 78.419 154.324 78.6165 154.042 78.9974C153.746 79.3783 153.605 79.9144 153.591 80.5916V81.043C153.591 81.7343 153.732 82.2845 154.028 82.6795C154.324 83.0745 154.719 83.272 155.241 83.272C155.763 83.272 156.158 83.0886 156.44 82.7077C156.722 82.3268 156.864 81.7907 156.878 81.0853V80.648Z" fill="#919291"/>
<path d="M168.22 77.8124V83.8646H167.416V78.4613H165.244L165.131 80.8596C165.088 81.6638 165.004 82.2704 164.877 82.6795C164.75 83.0886 164.566 83.3849 164.341 83.5683C164.101 83.7517 163.776 83.8505 163.381 83.8646H163.113V83.2156L163.283 83.2015C163.537 83.1874 163.734 83.1028 163.875 82.9476C164.016 82.7924 164.115 82.5667 164.185 82.2422C164.256 81.9177 164.312 81.4239 164.341 80.7468L164.468 77.8124H168.22Z" fill="#919291"/>
<path d="M178.392 77.8124H179.196V83.8646H178.392V79.1949L175.415 83.8646H174.611V77.8124H175.415V82.482L178.392 77.8124Z" fill="#919291"/>
<path d="M47.4438 0.0507812H46.6396V33.9516H47.4438V0.0507812Z" fill="black"/>
<path d="M47.4438 50.0343H46.6396V83.9351H47.4438V50.0343Z" fill="black"/>
<path d="M47.0348 43.0792C47.8139 43.0792 48.4456 42.4476 48.4456 41.6685C48.4456 40.8893 47.8139 40.2577 47.0348 40.2577C46.2556 40.2577 45.624 40.8893 45.624 41.6685C45.624 42.4476 46.2556 43.0792 47.0348 43.0792Z" fill="black"/>
<path d="M2.87797 33.9656L8.39408 47.0858L13.9102 33.9656H16.8023V50.0484H14.5732V43.7846L14.7849 37.027L9.24053 50.0484H7.53351L2.00329 37.0693L2.22901 43.7987V50.0625H0V33.9797H2.87797V33.9656Z" fill="#8EAEBA"/>
<path d="M32.73 50.0343H30.501V33.9515H32.73V50.0343Z" fill="#8EAEBA"/>
<path d="M73.8535 44.9414C73.6419 46.6485 72.9929 47.9605 71.8784 48.8775C70.7639 49.7945 69.2967 50.26 67.4486 50.26C65.4594 50.26 63.8511 49.5829 62.652 48.2144C61.4528 46.8601 60.8462 45.0261 60.8462 42.7547V41.2029C60.8462 39.7075 61.1283 38.3955 61.6927 37.2669C62.257 36.1382 63.047 35.2636 64.0769 34.6569C65.1067 34.0503 66.2918 33.7399 67.6461 33.7399C69.4378 33.7399 70.8768 34.2196 71.963 35.1648C73.0493 36.1241 73.6701 37.4361 73.8535 39.1291H71.6104C71.4128 37.8453 71.0037 36.9142 70.3548 36.3357C69.7058 35.7573 68.8029 35.4752 67.6461 35.4752C66.2212 35.4752 65.1067 35.9831 64.3026 36.9847C63.4984 37.9863 63.0893 39.4112 63.0893 41.2593V42.8112C63.0893 44.5605 63.4702 45.9431 64.232 46.9729C64.9939 48.0028 66.066 48.5248 67.4486 48.5248C68.6901 48.5248 69.6353 48.2567 70.2983 47.7207C70.9614 47.1846 71.3987 46.2535 71.6104 44.9273H73.8535V44.9414Z" fill="#8EAEBA"/>
<path d="M88.7517 48.3132H96.7507V50.0484H86.5085V33.9656H88.7517V48.3132Z" fill="#8EAEBA"/>
<path d="M111.296 50.0343H109.067V33.9515H111.296V50.0343Z" fill="#8EAEBA"/>
<path d="M137.945 50.0343H135.702L127.209 37.6478V50.0343H124.966V33.9515H127.209L135.73 46.3945V33.9515H137.945V50.0343Z" fill="#8EAEBA"/>
<path d="M153.901 50.0343H151.672V33.9515H153.901V50.0343Z" fill="#8EAEBA"/>
<path d="M180 44.9414C179.789 46.6485 179.14 47.9605 178.025 48.8775C176.911 49.7945 175.443 50.26 173.595 50.26C171.606 50.26 169.998 49.5829 168.799 48.2144C167.6 46.8601 166.993 45.0261 166.993 42.7547V41.2029C166.993 39.7075 167.275 38.3955 167.839 37.2669C168.404 36.1382 169.194 35.2636 170.224 34.6569C171.253 34.0503 172.438 33.7399 173.793 33.7399C175.584 33.7399 177.023 34.2196 178.11 35.1648C179.196 36.1241 179.817 37.4361 180 39.1291H177.757C177.56 37.8453 177.15 36.9142 176.501 36.3357C175.853 35.7573 174.95 35.4752 173.793 35.4752C172.368 35.4752 171.253 35.9831 170.449 36.9847C169.645 37.9863 169.236 39.4112 169.236 41.2593V42.8112C169.236 44.5605 169.617 45.9431 170.379 46.9729C171.141 48.0028 172.213 48.5248 173.595 48.5248C174.837 48.5248 175.782 48.2567 176.445 47.7207C177.108 47.1846 177.545 46.2535 177.757 44.9273H180V44.9414Z" fill="#8EAEBA"/>
</svg>
