<svg width="180" height="84" viewBox="0 0 180 84" fill="none" xmlns="http://www.w3.org/2000/svg">
<path d="M63.8231 67.096H63.0754V69.8188H62.2712V63.7666H63.0754V66.433H63.6961L65.8123 63.7666H66.7998L64.4861 66.701L66.9691 69.8188H65.9957L63.8231 67.096Z" fill="white"/>
<path d="M77.2115 63.7666V69.8188H76.4073V64.4155H74.2348L74.1219 66.8138C74.0796 67.618 73.9949 68.2246 73.868 68.6338C73.741 69.0429 73.5576 69.3391 73.3319 69.5225C73.092 69.7059 72.7676 69.8047 72.3725 69.8188H72.1045V69.1698L72.2738 69.1557C72.5277 69.1416 72.7252 69.057 72.8663 68.9018C73.0074 68.7466 73.1061 68.5209 73.1767 68.1964C73.2472 67.8719 73.3036 67.3782 73.3319 66.701L73.4588 63.7666H77.2115Z" fill="white"/>
<path d="M87.369 63.7666H88.1731V69.8188H87.369V65.1491L84.3923 69.8188H83.5881V63.7666H84.3923V68.4362L87.369 63.7666Z" fill="white"/>
<path d="M99.1911 69.8188H98.387V67.0114H95.3256V69.8188H94.5215V63.7666H95.3256V66.3765H98.387V63.7666H99.1911V69.8188Z" fill="white"/>
<path d="M109.335 63.7666H110.139V69.8188H109.335V65.1491L106.358 69.8188H105.554V63.7666H106.358V68.4362L109.335 63.7666Z" fill="white"/>
<path d="M118.053 67.096H117.32V69.8188H116.516V63.7666H117.32V66.433H117.941L120.057 63.7666H121.044L118.731 66.701L121.213 69.8188H120.24L118.053 67.096Z" fill="white"/>
<path d="M130.214 68.2387H127.675L127.11 69.8188H126.292L128.606 63.7666H129.311L131.625 69.8188H130.806L130.214 68.2387ZM127.914 67.5757H129.974L128.944 64.74L127.914 67.5757Z" fill="white"/>
<path d="M66.8282 77.7612V83.8134H66.024V78.4102H63.8515L63.7386 80.8085C63.6963 81.6126 63.6116 82.2193 63.4847 82.6284C63.3577 83.0375 63.1743 83.3338 62.9486 83.5172C62.7087 83.7006 62.3843 83.7993 61.9892 83.8134H61.7212V83.1645L61.8905 83.1504C62.1444 83.1362 62.3419 83.0516 62.483 82.8964C62.6241 82.7412 62.7228 82.5155 62.7934 82.191C62.8639 81.8666 62.9203 81.3728 62.9486 80.6956L63.0755 77.7612H66.8282Z" fill="white"/>
<path d="M76.8588 81.0201H74.2348V83.1645H77.2821V83.8134H73.4307V77.7612H77.2397V78.4102H74.2348V80.357H76.8588V81.0201Z" fill="white"/>
<path d="M87.8205 77.7616V83.8138H87.0164V81.3026C86.7201 81.3873 86.4662 81.4437 86.2264 81.4719C85.9865 81.5001 85.7185 81.5142 85.4081 81.5142C84.7168 81.5142 84.209 81.3591 83.8704 81.0628C83.5318 80.7666 83.3625 80.301 83.3484 79.6803V77.7334H84.1525V79.652C84.1525 80.0753 84.2513 80.3715 84.4488 80.569C84.6322 80.7524 84.9567 80.8512 85.4081 80.8512C85.9301 80.8512 86.4662 80.7807 87.0164 80.6255V77.7334H87.8205V77.7616Z" fill="white"/>
<path d="M97.8508 81.0201H95.2267V83.1645H98.274V83.8134H94.4226V77.7612H98.2317V78.4102H95.2267V80.357H97.8508V81.0201Z" fill="white"/>
<path d="M109.081 83.8134H108.277V81.006H105.215V83.8134H104.411V77.7612H105.215V80.3711H108.277V77.7612H109.081V83.8134Z" fill="white"/>
<path d="M119.478 77.7612H120.282V83.8134H119.478V79.1438L116.501 83.8134H115.697V77.7612H116.501V82.4309L119.478 77.7612Z" fill="white"/>
<path d="M130.059 83.8134V81.4574H128.662L127.407 83.8134H126.56L127.971 81.2317C127.195 80.9213 126.8 80.3711 126.8 79.5811C126.8 79.0027 126.983 78.5513 127.364 78.2409C127.745 77.9164 128.267 77.7612 128.944 77.7612H130.877V83.8134H130.059ZM127.59 79.5811C127.59 79.9479 127.703 80.2442 127.929 80.4699C128.154 80.6956 128.479 80.8085 128.888 80.8085H130.059V78.4102H128.93C128.493 78.4102 128.168 78.5089 127.943 78.7205C127.703 78.9322 127.59 79.2143 127.59 79.5811Z" fill="white"/>
<path d="M146.438 78.4102H143.518V80.2301H145.027C145.662 80.2442 146.156 80.3994 146.508 80.7239C146.861 81.0343 147.044 81.4716 147.044 82.0077C147.044 82.5579 146.861 82.9952 146.508 83.3197C146.156 83.6442 145.662 83.8135 145.041 83.8276H142.713V77.7754H146.438V78.4102ZM143.503 80.8791V83.1645H144.971C145.366 83.1645 145.676 83.0658 145.902 82.8542C146.127 82.6426 146.226 82.3604 146.226 82.0077C146.226 81.6691 146.113 81.4011 145.902 81.2036C145.69 81.0061 145.394 80.9073 144.999 80.8932L143.503 80.8791Z" fill="white"/>
<path d="M157.668 80.978C157.668 81.5705 157.569 82.0924 157.371 82.5298C157.174 82.9671 156.892 83.3057 156.525 83.5455C156.158 83.7854 155.735 83.8982 155.241 83.8982C154.762 83.8982 154.338 83.7854 153.971 83.5455C153.605 83.3057 153.323 82.9812 153.111 82.5439C152.913 82.1066 152.801 81.6128 152.801 81.0344V80.597C152.801 80.0186 152.899 79.4966 153.111 79.0593C153.308 78.6079 153.605 78.2693 153.971 78.0295C154.338 77.7896 154.762 77.6768 155.241 77.6768C155.721 77.6768 156.158 77.7896 156.525 78.0295C156.892 78.2693 157.174 78.6078 157.386 79.0452C157.583 79.4966 157.682 80.0045 157.682 80.597L157.668 80.978ZM156.878 80.597C156.878 79.8775 156.737 79.3273 156.44 78.9464C156.158 78.5655 155.749 78.368 155.227 78.368C154.719 78.368 154.324 78.5655 154.042 78.9464C153.746 79.3273 153.605 79.8634 153.591 80.5406V80.9921C153.591 81.6833 153.732 82.2335 154.028 82.6285C154.324 83.0236 154.719 83.2211 155.241 83.2211C155.763 83.2211 156.158 83.0377 156.44 82.6568C156.722 82.2759 156.864 81.7398 156.878 81.0344V80.597Z" fill="white"/>
<path d="M168.22 77.7612V83.8134H167.416V78.4102H165.244L165.131 80.8085C165.088 81.6126 165.004 82.2193 164.877 82.6284C164.75 83.0375 164.566 83.3338 164.341 83.5172C164.101 83.7006 163.776 83.7993 163.381 83.8134H163.113V83.1645L163.283 83.1504C163.537 83.1362 163.734 83.0516 163.875 82.8964C164.016 82.7412 164.115 82.5155 164.185 82.191C164.256 81.8666 164.312 81.3728 164.341 80.6956L164.468 77.7612H168.22Z" fill="white"/>
<path d="M178.392 77.7612H179.196V83.8134H178.392V79.1438L175.415 83.8134H174.611V77.7612H175.415V82.4309L178.392 77.7612Z" fill="white"/>
<path d="M47.4438 0H46.6396V33.9008H47.4438V0Z" fill="white"/>
<path d="M47.4438 49.9834H46.6396V83.8842H47.4438V49.9834Z" fill="white"/>
<path d="M47.0348 43.0286C47.8139 43.0286 48.4456 42.3969 48.4456 41.6178C48.4456 40.8387 47.8139 40.207 47.0348 40.207C46.2556 40.207 45.624 40.8387 45.624 41.6178C45.624 42.3969 46.2556 43.0286 47.0348 43.0286Z" fill="white"/>
<path d="M2.87797 33.9146L8.39408 47.0347L13.9102 33.9146H16.8023V49.9973H14.5732V43.7335L14.7849 36.9759L9.24053 49.9973H7.53351L2.00329 37.0182L2.22901 43.7476V50.0114H0V33.9287H2.87797V33.9146Z" fill="white"/>
<path d="M32.73 49.9832H30.501V33.9004H32.73V49.9832Z" fill="white"/>
<path d="M73.8535 44.8905C73.6419 46.5975 72.9929 47.9095 71.8784 48.8265C70.7639 49.7435 69.2967 50.2091 67.4486 50.2091C65.4594 50.2091 63.8511 49.5319 62.652 48.1635C61.4528 46.8091 60.8462 44.9751 60.8462 42.7038V41.1519C60.8462 39.6565 61.1283 38.3445 61.6927 37.2159C62.257 36.0873 63.047 35.2126 64.0769 34.606C65.1067 33.9993 66.2918 33.689 67.6461 33.689C69.4378 33.689 70.8768 34.1686 71.963 35.1138C73.0493 36.0732 73.6701 37.3852 73.8535 39.0781H71.6104C71.4128 37.7943 71.0037 36.8632 70.3548 36.2848C69.7058 35.7064 68.8029 35.4242 67.6461 35.4242C66.2212 35.4242 65.1067 35.9321 64.3026 36.9337C63.4984 37.9354 63.0893 39.3603 63.0893 41.2084V42.7602C63.0893 44.5096 63.4702 45.8921 64.232 46.922C64.9939 47.9518 66.066 48.4738 67.4486 48.4738C68.6901 48.4738 69.6353 48.2058 70.2983 47.6697C70.9614 47.1336 71.3987 46.2025 71.6104 44.8764H73.8535V44.8905Z" fill="white"/>
<path d="M88.7517 48.2621H96.7507V49.9973H86.5085V33.9146H88.7517V48.2621Z" fill="white"/>
<path d="M111.296 49.9832H109.067V33.9004H111.296V49.9832Z" fill="white"/>
<path d="M137.945 49.9832H135.702L127.209 37.5966V49.9832H124.966V33.9004H127.209L135.73 46.3434V33.9004H137.945V49.9832Z" fill="white"/>
<path d="M153.901 49.9832H151.672V33.9004H153.901V49.9832Z" fill="white"/>
<path d="M180 44.8905C179.789 46.5975 179.14 47.9095 178.025 48.8265C176.911 49.7435 175.443 50.2091 173.595 50.2091C171.606 50.2091 169.998 49.5319 168.799 48.1635C167.6 46.8091 166.993 44.9751 166.993 42.7038V41.1519C166.993 39.6565 167.275 38.3445 167.839 37.2159C168.404 36.0873 169.194 35.2126 170.224 34.606C171.253 33.9993 172.438 33.689 173.793 33.689C175.584 33.689 177.023 34.1686 178.11 35.1138C179.196 36.0732 179.817 37.3852 180 39.0781H177.757C177.56 37.7943 177.15 36.8632 176.501 36.2848C175.853 35.7064 174.95 35.4242 173.793 35.4242C172.368 35.4242 171.253 35.9321 170.449 36.9337C169.645 37.9354 169.236 39.3603 169.236 41.2084V42.7602C169.236 44.5096 169.617 45.8921 170.379 46.922C171.141 47.9518 172.213 48.4738 173.595 48.4738C174.837 48.4738 175.782 48.2058 176.445 47.6697C177.108 47.1336 177.545 46.2025 177.757 44.8764H180V44.8905Z" fill="white"/>
</svg>
