<svg width="20" height="20" viewBox="0 0 20 20" fill="none" xmlns="http://www.w3.org/2000/svg">
<path fill-rule="evenodd" clip-rule="evenodd" d="M4.16667 3.125C3.59137 3.125 3.125 3.59137 3.125 4.16667C3.125 11.1853 8.81471 16.875 15.8333 16.875C16.4086 16.875 16.875 16.4086 16.875 15.8333V14.4617C16.875 14.0358 16.6157 13.6528 16.2202 13.4946L14.5251 12.8165C14.0221 12.6153 13.4488 12.8333 13.2065 13.3178L13.059 13.6128C12.933 13.8649 12.6538 14.0015 12.3774 13.9462L12.5 13.3333C12.3774 13.9462 12.3776 13.9462 12.3774 13.9462L12.3766 13.946L12.3756 13.9458L12.3729 13.9453L12.3654 13.9437L12.3415 13.9385C12.3216 13.9342 12.2941 13.9279 12.2595 13.9195C12.1904 13.9027 12.0929 13.8773 11.9721 13.8418C11.7307 13.7708 11.3945 13.6586 11.0038 13.4911C10.2253 13.1575 9.21341 12.5973 8.30806 11.6919C7.40271 10.7866 6.84249 9.77465 6.50887 8.9962C6.34144 8.60554 6.2292 8.2693 6.15821 8.02792C6.12267 7.90709 6.09735 7.80962 6.08053 7.74049C6.07212 7.70592 6.06583 7.6784 6.06145 7.65855L6.05628 7.63459L6.05471 7.62706L6.05418 7.62443L6.05397 7.62341C6.05393 7.62321 6.0538 7.62257 6.66667 7.5L6.0538 7.62257C5.99853 7.3462 6.13507 7.06703 6.38716 6.94098L6.68217 6.79348C7.16674 6.55119 7.38469 5.97793 7.18349 5.47492L6.50544 3.7798C6.34725 3.38432 5.96422 3.125 5.53828 3.125H4.16667ZM7.40268 7.82258C8.3546 7.24775 8.76372 6.05976 8.34408 5.01068L7.66604 3.31556C7.31802 2.44551 6.47535 1.875 5.53828 1.875H4.16667C2.90101 1.875 1.875 2.90101 1.875 4.16667C1.875 11.8756 8.12436 18.125 15.8333 18.125C17.099 18.125 18.125 17.099 18.125 15.8333V14.4617C18.125 13.5246 17.5545 12.682 16.6844 12.334L14.9893 11.6559C13.9402 11.2363 12.7523 11.6454 12.1774 12.5973C11.9922 12.5381 11.7592 12.4549 11.4962 12.3422C10.8163 12.0508 9.95326 11.5694 9.19194 10.8081C8.43062 10.0467 7.94918 9.18368 7.6578 8.5038C7.54509 8.24081 7.46194 8.00784 7.40268 7.82258Z" fill="#F9FAFB"/>
</svg>
